<?xml version="1.0" standalone="no"?>
<!DOCTYPE svg PUBLIC "-//W3C//DTD SVG 1.1//EN" "http://www.w3.org/Graphics/SVG/1.1/DTD/svg11.dtd" >
<svg>
<metadata>
Created by FontForge 20090914 at Tue Jul 15 14:13:05 2014
 By www-data
Copyright 2010, 2012 Adobe Systems Incorporated. All Rights Reserved.
</metadata>
<defs>
<font id="SourceSansPro-Regular" horiz-adv-x="0" >
  <font-face 
    font-family="Source Sans Pro"
    font-weight="400"
    font-stretch="normal"
    units-per-em="1000"
    panose-1="2 11 5 3 3 4 3 2 2 4"
    ascent="750"
    descent="-250"
    x-height="486"
    cap-height="656"
    bbox="-192 -323 1160 952"
    underline-thickness="50"
    underline-position="-50"
    unicode-range="U+000D-U+FEFF"
  />
<missing-glyph horiz-adv-x="653" 
d="M89 660h476v-660h-476v660zM281 340l-127 232v-462zM498 110v462l-126 -232zM454 58l-73 132l-52 103h-4l-54 -103l-74 -132h257zM329 387l49 94l66 119h-235l66 -119l50 -94h4z" />
    <glyph glyph-name="f_f" unicode="ff" horiz-adv-x="574" 
d="M586 645c-19.333 8 -37.667 11.999 -55 11.999c-46 0 -69 -31.333 -69 -94v-77h103v-67h-103v-419h-82v419h-202v-419h-82v419h-66v62l66 5v64c0 50.667 12.5 90.667 37.5 120s62.833 44 113.5 44c16 0 31.833 -1.66699 47.5 -5s29.5 -7.66602 41.5 -12.999l-17 -62
c-20 8.66699 -41.667 13 -65 13c-24 0 -42.667 -8.5 -56 -25.5s-20 -41.5 -20 -73.5v-62h202v77c0 50 11.5 89.333 34.5 118s58.833 43 107.5 43c15.333 0 29.833 -1.5 43.5 -4.5s26.167 -6.83301 37.5 -11.5z" />
    <glyph glyph-name="f_t" unicode="ft" horiz-adv-x="594" 
d="M581 6c-13.333 -4.66699 -27.833 -8.83301 -43.5 -12.5s-31.167 -5.5 -46.5 -5.5c-26 0 -47.833 4 -65.5 12s-32 19 -43 33s-18.833 31 -23.5 51s-7 42 -7 66v269h-174v-419h-82v419h-66v62l66 5v77c0 50 11.5 89.333 34.5 118s58.833 43 107.5 43
c15.333 0 29.833 -1.5 43.5 -4.5s26.167 -6.83301 37.5 -11.5l-18 -63c-18 8 -36.333 12 -55 12c-45.333 0 -68 -31.333 -68 -94v-77h178l10 136h68v-136h132v-67h-132v-270c0 -30 5.66699 -53.167 17 -69.5s31 -24.5 59 -24.5c8.66699 0 18 1.33301 28 4s19 5.66699 27 9z
" />
    <glyph glyph-name=".notdef" horiz-adv-x="653" 
d="M89 660h476v-660h-476v660zM281 340l-127 232v-462zM498 110v462l-126 -232zM454 58l-73 132l-52 103h-4l-54 -103l-74 -132h257zM329 387l49 94l66 119h-235l66 -119l50 -94h4z" />
    <glyph glyph-name="NULL" 
 />
    <glyph glyph-name="NULL" 
 />
    <glyph glyph-name="CR" unicode="&#xd;" horiz-adv-x="202" 
 />
    <glyph glyph-name="space" unicode=" " horiz-adv-x="202" 
 />
    <glyph glyph-name="exclam" unicode="!" horiz-adv-x="289" 
d="M105 576l-2 94h83l-2 -94l-11 -378h-57zM85 50c0 19.333 5.83301 34.833 17.5 46.5s25.834 17.5 42.501 17.5c16 0 29.833 -5.83301 41.5 -17.5s17.5 -27.167 17.5 -46.5c0 -18 -5.83301 -32.833 -17.5 -44.5s-25.5 -17.5 -41.5 -17.5
c-16.667 0 -30.834 5.83301 -42.501 17.5s-17.5 26.5 -17.5 44.5z" />
    <glyph glyph-name="quotedbl" unicode="&#x22;" horiz-adv-x="425" 
d="M83 598l-3 92h88l-3 -92l-16 -167h-50zM259 598l-3 92h88l-3 -92l-16 -167h-50z" />
    <glyph glyph-name="numbersign" unicode="#" horiz-adv-x="497" 
d="M115 204h-80v57h87l18 148h-85v58h92l23 183h53l-23 -183h133l24 183h53l-24 -183h81v-58h-87l-18 -148h85v-57h-92l-25 -204h-53l24 204h-132l-25 -204h-54zM308 261l18 148h-132l-18 -148h132z" />
    <glyph glyph-name="dollar" unicode="$" horiz-adv-x="497" 
d="M380 524c-18.667 18 -36.833 32 -54.5 42s-40.167 15 -67.5 15c-30.667 0 -55 -8.66699 -73 -26s-27 -40.666 -27 -69.999c0 -24 6.83301 -43.667 20.5 -59s30.834 -28.833 51.501 -40.5s43.167 -23 67.5 -34s46.833 -24.333 67.5 -40s37.834 -35 51.501 -58
s20.5 -52.5 20.5 -88.5c0 -48 -13.833 -87.333 -41.5 -118s-65.5 -49.334 -113.5 -56.001v-101h-60v99c-32 3.33301 -63 12.166 -93 26.499s-55.667 31.166 -77 50.499l38 57c21.333 -18.667 44.833 -34.5 70.5 -47.5s53.834 -19.5 84.501 -19.5
c37.333 0 65.166 9.33301 83.499 28s27.5 43.667 27.5 75c0 26.667 -6.83301 48.834 -20.5 66.501s-30.834 33 -51.501 46s-43.167 25.167 -67.5 36.5s-46.833 24.333 -67.5 39s-37.834 32.5 -51.501 53.5s-20.5 47.833 -20.5 80.5c0 44.667 13.167 81.834 39.5 111.501
s61.5 48.167 105.5 55.5v100h60v-99c32 -3.33301 59.167 -12 81.5 -26s42.5 -30.667 60.5 -50z" />
    <glyph glyph-name="percent" unicode="%" horiz-adv-x="824" 
d="M184 254c-45.333 0 -81.5 18 -108.5 54s-40.5 87.333 -40.5 154c0 66 13.5 116.833 40.5 152.5s63.167 53.5 108.5 53.5c44.667 0 80.667 -17.833 108 -53.5s41 -86.5 41 -152.5c0 -66.667 -13.667 -118 -41 -154s-63.333 -54 -108 -54zM184 305
c25.333 0 46 13.167 62 39.5s24 65.5 24 117.5s-8 90.833 -24 116.5s-36.667 38.5 -62 38.5c-26 0 -47 -12.833 -63 -38.5s-24 -64.5 -24 -116.5s8 -91.167 24 -117.5s37 -39.5 63 -39.5zM202 -12l362 680h56l-362 -680h-56zM641 -12c-45.333 0 -81.5 18 -108.5 54
s-40.5 87.333 -40.5 154c0 66 13.5 116.833 40.5 152.5s63.167 53.5 108.5 53.5c44.667 0 80.667 -17.833 108 -53.5s41 -86.5 41 -152.5c0 -66.667 -13.667 -118 -41 -154s-63.333 -54 -108 -54zM641 39c25.333 0 46 13.167 62 39.5s24 65.5 24 117.5s-8 90.833 -24 116.5
s-36.667 38.5 -62 38.5c-26 0 -47 -12.833 -63 -38.5s-24 -64.5 -24 -116.5s8 -91.167 24 -117.5s37 -39.5 63 -39.5z" />
    <glyph glyph-name="ampersand" unicode="&#x26;" horiz-adv-x="609" 
d="M112 175c0 -18 3.33008 -34.499 9.99707 -49.499s15.834 -27.833 27.501 -38.5s25.334 -18.834 41.001 -24.501s32.5 -8.5 50.5 -8.5c22.667 0 44.334 4.66699 65.001 14s40.667 22.333 60 39c-32 28 -62.833 58.667 -92.5 92s-56.167 67.666 -79.5 102.999
c-23.333 -18.667 -42.833 -38.167 -58.5 -58.5s-23.5 -43.166 -23.5 -68.499zM188.997 514.001c0 -18 2.83301 -36.666 8.5 -55.999s13.167 -39 22.5 -59c14.667 10 28.834 20.167 42.501 30.5s25.667 21 36 32s18.5 22.667 24.5 35s9 25.833 9 40.5
c0 19.333 -4.83301 36.166 -14.5 50.499s-25.5 21.5 -47.5 21.5c-24.667 0 -44.334 -9 -59.001 -27s-22 -40.667 -22 -68zM571.997 -11.998c-23.333 6.66699 -47.6689 16.168 -73.002 28.501s-51.333 27.833 -78 46.5c-25.333 -22.667 -53.5 -40.834 -84.5 -54.501
s-65.833 -20.5 -104.5 -20.5c-30 0 -57.167 4.5 -81.5 13.5s-45.333 21.5 -63 37.5s-31.334 35.167 -41.001 57.5s-14.5 46.833 -14.5 73.5c0 22 3.5 42 10.5 60s16.5 34.667 28.5 50s25.833 29.5 41.5 42.5s31.834 25.167 48.501 36.5
c-13.333 27.333 -23.833 53.833 -31.5 79.5s-11.5 50.5 -11.5 74.5c0 22 3.66699 42.333 11 61s17.666 35 30.999 49s29.333 25 48 33s39.334 12 62.001 12c40.667 0 72.334 -12 95.001 -36s34 -55.333 34 -94c0 -21.333 -4.33301 -41 -13 -59s-20 -34.833 -34 -50.5
s-29.833 -30.334 -47.5 -44.001l-53.5 -40.5c21.333 -34 46.5 -66.667 75.5 -98s59.167 -60 90.5 -86c20 27.333 37.833 57 53.5 89s28.5 67 38.5 105h77c-13.333 -43.333 -29.333 -84.666 -48 -123.999s-41 -76.333 -67 -111c22.667 -15.333 44.334 -28.333 65.001 -39
s40 -18.667 58 -24z" />
    <glyph glyph-name="quotesingle" unicode="'" horiz-adv-x="249" 
d="M83 598l-3 92h88l-3 -92l-16 -167h-50z" />
    <glyph glyph-name="parenleft" unicode="(" horiz-adv-x="303" 
d="M214 -176c-41.333 66.667 -73.666 137 -96.999 211s-35 155 -35 243s11.667 168.833 35 242.5s55.666 144.167 96.999 211.5l51 -24c-38.667 -64 -67.5 -132.5 -86.5 -205.5s-28.5 -147.833 -28.5 -224.5s9.5 -151.5 28.5 -224.5s47.833 -141.5 86.5 -205.5l-51 -24v0z
" />
    <glyph glyph-name="parenright" unicode=")" horiz-adv-x="303" 
d="M38 -152c38.667 64 67.5 132.5 86.5 205.5s28.5 147.833 28.5 224.5s-9.5 151.5 -28.5 224.5s-47.833 141.5 -86.5 205.5l51 24c41.333 -67.333 73.666 -137.833 96.999 -211.5s35 -154.5 35 -242.5s-11.667 -169 -35 -243s-55.666 -144.333 -96.999 -211l-51 24v0z" />
    <glyph glyph-name="asterisk" unicode="*" horiz-adv-x="418" 
d="M98 449l57 94l-97 40l15 46l102 -25l9 108h49l9 -107l103 24l15 -46l-97 -40l56 -94l-39 -29l-71 86l-71 -86z" />
    <glyph glyph-name="plus" unicode="+" horiz-adv-x="497" 
d="M216 299h-182v62h182v195h65v-195h182v-62h-182v-195h-65v195z" />
    <glyph glyph-name="comma" unicode="," horiz-adv-x="249" 
d="M47 -122c28 12.667 50.001 29.332 66.001 49.999s24 44.667 24 72c-2 -0.666992 -5.33301 -1 -10 -1c-16 0 -29.833 4.83301 -41.5 14.5s-17.5 23.834 -17.5 42.501c0 18 6 32.167 18 42.5s26.333 15.5 43 15.5c21.333 0 38.166 -8.66699 50.499 -26s18.5 -41 18.5 -71
c0 -43.333 -11.667 -81 -35 -113s-55.333 -56.667 -96 -74z" />
    <glyph glyph-name="hyphen" unicode="-" horiz-adv-x="311" 
d="M41 282h230v-63h-230v63z" />
    <glyph glyph-name="period" unicode="." horiz-adv-x="249" 
d="M65 50c0 19.333 5.83301 34.833 17.5 46.5s25.834 17.5 42.501 17.5c16 0 29.833 -5.83301 41.5 -17.5s17.5 -27.167 17.5 -46.5c0 -18 -5.83301 -32.833 -17.5 -44.5s-25.5 -17.5 -41.5 -17.5c-16.667 0 -30.834 5.83301 -42.501 17.5s-17.5 26.5 -17.5 44.5z" />
    <glyph glyph-name="slash" unicode="/" horiz-adv-x="350" 
d="M277 710h60l-267 -870h-60z" />
    <glyph glyph-name="zero" unicode="0" horiz-adv-x="497" 
d="M249 -12c-64.667 0 -115 28.667 -151 86s-54 139.666 -54 246.999s18 189 54 245s86.333 84 151 84c64 0 114 -28 150 -84s54 -137.667 54 -245s-18 -189.666 -54 -246.999s-86 -86 -150 -86zM249 54c18.667 0 35.5 5.16406 50.5 15.4971s28 26.333 39 48
s19.5 49.334 25.5 83.001s9 73.834 9 120.501s-3 86.667 -9 120s-14.5 60.5 -25.5 81.5s-24 36.5 -39 46.5s-31.833 15 -50.5 15s-35.667 -5 -51 -15s-28.5 -25.5 -39.5 -46.5s-19.5 -48.167 -25.5 -81.5s-9 -73.333 -9 -120c0 -93.333 11.5 -161.166 34.5 -203.499
s53.167 -63.5 90.5 -63.5z" />
    <glyph glyph-name="one" unicode="1" horiz-adv-x="497" 
d="M79 68l146 -0.000976562v470h-116v53c29.333 5.33301 54.833 11.833 76.5 19.5s41.167 16.834 58.5 27.501h63v-570h132v-68h-360v68z" />
    <glyph glyph-name="two" unicode="2" horiz-adv-x="497" 
d="M40 49l128.003 129.999c37.333 38.667 68.666 74.5 93.999 107.5s44.666 63.333 57.999 91s20 54.5 20 80.5c0 36.667 -10 66.667 -30 90s-50.333 35 -91 35c-26.667 0 -51.334 -7.5 -74.001 -22.5s-43.334 -33.167 -62.001 -54.5l-47 47
c26.667 29.333 55 52.833 85 70.5s66 26.5 108 26.5c59.333 0 106 -17.167 140 -51.5s51 -79.833 51 -136.5c0 -30 -6.5 -60.167 -19.5 -90.5s-31 -61.666 -54 -93.999s-50.333 -66 -82 -101l-104.5 -111.5l54 4c18.667 1.33301 36.334 2 53.001 2h185v-71h-412v49z" />
    <glyph glyph-name="three" unicode="3" horiz-adv-x="497" 
d="M68 132c19.333 -20 41.8291 -37.668 67.4961 -53.001s57.5 -23 95.5 -23c38.667 0 70.334 10.5 95.001 31.5s37 49.5 37 85.5c0 18.667 -3.5 35.834 -10.5 51.501s-18.5 29.167 -34.5 40.5s-37 20 -63 26s-58 9 -96 9v63c34 0 62.5 3 85.5 9s41.667 14.333 56 25
s24.5 23.334 30.5 38.001s9 30.334 9 47.001c0 31.333 -9.83301 56 -29.5 74s-46.5 27 -80.5 27c-26.667 0 -51.167 -6 -73.5 -18s-43.166 -27.667 -62.499 -47l-44 52c24.667 23.333 51.834 42.5 81.501 57.5s63.5 22.5 101.5 22.5c28 0 53.667 -3.66699 77 -11
s43.5 -17.833 60.5 -31.5s30.167 -30.5 39.5 -50.5s14 -43 14 -69c0 -38.667 -10.667 -70.334 -32 -95.001s-49.333 -43.667 -84 -57v-4c19.333 -4.66699 37.333 -11.5 54 -20.5s31.334 -20.333 44.001 -34s22.5 -29.5 29.5 -47.5s10.5 -38 10.5 -60
c0 -28 -5.5 -53.333 -16.5 -76s-26 -41.834 -45 -57.501s-41.167 -27.667 -66.5 -36s-52.666 -12.5 -81.999 -12.5c-25.333 0 -48.5 2.5 -69.5 7.5s-40.167 11.667 -57.5 20s-32.833 17.833 -46.5 28.5s-25.834 22 -36.501 34z" />
    <glyph glyph-name="four" unicode="4" horiz-adv-x="497" 
d="M304 242v185c0 17.333 0.5 37.833 1.5 61.5s2.16699 44.167 3.5 61.5h-4c-8 -15.333 -16.333 -30.333 -25 -45l-27 -45l-149 -218h200zM469 176h-87v-176h-78v176h-287v54l273 408h92v-396h87v-66z" />
    <glyph glyph-name="five" unicode="5" horiz-adv-x="497" 
d="M65 129c18.667 -19.333 40.8359 -36.3301 66.5029 -50.9971s57.167 -22 94.5 -22c19.333 0 37.5 3.5 54.5 10.5s31.833 16.833 44.5 29.5s22.667 28 30 46s11 38 11 60c0 44 -12.333 78.333 -37 103s-57.667 37 -99 37c-22 0 -40.833 -3.33301 -56.5 -10
s-33.167 -16.334 -52.5 -29.001l-44 28l21 307h319v-71h-247l-17 -189c15.333 8 30.666 14.333 45.999 19s32.666 7 51.999 7c27.333 0 53 -4 77 -12s45 -20.167 63 -36.5s32.167 -37 42.5 -62s15.5 -54.833 15.5 -89.5s-6 -65.334 -18 -92.001s-28 -49.167 -48 -67.5
s-42.833 -32.333 -68.5 -42s-52.5 -14.5 -80.5 -14.5c-25.333 0 -48.5 2.5 -69.5 7.5s-40 11.5 -57 19.5s-32.333 17.167 -46 27.5s-25.834 21.166 -36.501 32.499z" />
    <glyph glyph-name="six" unicode="6" horiz-adv-x="497" 
d="M268 53c16 0 30.666 3.33301 43.999 10s25 16.167 35 28.5s17.833 27 23.5 44s8.5 36.167 8.5 57.5c0 42 -9.66699 75 -29 99s-49 36 -89 36c-20 0 -41.833 -6.5 -65.5 -19.5s-46.167 -34.5 -67.5 -64.5c5.33301 -62.667 19.833 -110.167 43.5 -142.5
s55.834 -48.5 96.501 -48.5zM398.999 531c-13.333 15.333 -29.167 27.498 -47.5 36.498s-37.5 13.5 -57.5 13.5c-22 0 -43 -4.66699 -63 -14s-37.667 -24.666 -53 -45.999s-27.666 -49.166 -36.999 -83.499s-14.333 -76.833 -15 -127.5c20 24.667 43.333 44.167 70 58.5
s53 21.5 79 21.5c55.333 0 99.5 -16.333 132.5 -49s49.5 -82 49.5 -148c0 -30.667 -5 -58.5 -15 -83.5s-23.667 -46.5 -41 -64.5s-37.333 -32 -60 -42s-47 -15 -73 -15c-31.333 0 -60.333 6.33301 -87 19s-49.834 31.834 -69.501 57.501s-35.167 57.667 -46.5 96
s-17 83.166 -17 134.499c0 64 6.66699 118.5 20 163.5s31.333 81.667 54 110s48.5 49 77.5 62s59.5 19.5 91.5 19.5c34.667 0 64.5 -6.5 89.5 -19.5s46.5 -29.167 64.5 -48.5z" />
    <glyph glyph-name="seven" unicode="7" horiz-adv-x="497" 
d="M177 0c2.66699 60 8.00195 115 16.002 165s19.167 97.5 33.5 142.5s32.666 88.5 54.999 130.5s49.166 85 80.499 129h-318v71h411v-51c-38 -48 -68.833 -94 -92.5 -138s-42.5 -88.833 -56.5 -134.5s-24.167 -94 -30.5 -145s-10.833 -107.5 -13.5 -169.5h-85v0z" />
    <glyph glyph-name="eight" unicode="8" horiz-adv-x="497" 
d="M115 171c0 -18 3.5 -34.334 10.5 -49.001s16.667 -27.5 29 -38.5s26.833 -19.5 43.5 -25.5s34.667 -9 54 -9c37.333 0 67.5 10.333 90.5 31s34.5 47.667 34.5 81c0 20.667 -4.66699 38.334 -14 53.001s-22 27.5 -38 38.5s-34.5 21 -55.5 30l-65.5 27.5
c-25.333 -17.333 -46.5 -37.5 -63.5 -60.5s-25.5 -49.167 -25.5 -78.5zM295 347.999c21.333 19.333 37.8311 39.668 49.498 61.001s17.5 43.666 17.5 66.999c0 32 -9.66699 58.833 -29 80.5s-46.666 32.5 -81.999 32.5c-30 0 -54.667 -9.33301 -74 -28s-29 -43.667 -29 -75
c0 -19.333 4 -35.833 12 -49.5s18.833 -25.834 32.5 -36.501s29.334 -20.167 47.001 -28.5s36.167 -16.166 55.5 -23.499zM40.998 163.001c0 20.667 3.50195 39.8311 10.502 57.498s16 33.667 27 48s23.667 27 38 38s29.166 20.5 44.499 28.5v4
c-23.333 16.667 -44 36.834 -62 60.501s-27 52.5 -27 86.5c0 24.667 4.66699 47 14 67s22 37.167 38 51.5s35 25.5 57 33.5s46 12 72 12c28 0 53 -4.16699 75 -12.5s40.833 -20 56.5 -35s27.667 -33 36 -54s12.5 -43.833 12.5 -68.5c0 -16.667 -2.83301 -32.667 -8.5 -48
s-12.667 -29.666 -21 -42.999s-17.666 -25.333 -27.999 -36s-20.5 -19.667 -30.5 -27v-4c14 -8 27.667 -17.167 41 -27.5s25.166 -22 35.499 -35s18.666 -27.833 24.999 -44.5s9.5 -35.667 9.5 -57c0 -24 -5 -46.333 -15 -67s-24 -38.667 -42 -54s-39.667 -27.333 -65 -36
s-53.333 -13 -84 -13c-30 0 -57.833 4.33301 -83.5 13s-47.667 20.834 -66 36.501s-32.833 34.167 -43.5 55.5s-16 44.666 -16 69.999z" />
    <glyph glyph-name="nine" unicode="9" horiz-adv-x="497" 
d="M235 310c20.667 0 42.833 6.49902 66.5 19.499s46.167 34.833 67.5 65.5c-5.33301 62.667 -20 110 -44 142s-56.333 48 -97 48c-15.333 0 -29.833 -3.33301 -43.5 -10s-25.5 -16.167 -35.5 -28.5s-17.833 -27.166 -23.5 -44.499s-8.5 -36.333 -8.5 -57
c0 -42 9.66699 -75 29 -99s49 -36 89 -36zM96.999 106.999c13.333 -15.333 29.1689 -27.668 47.502 -37.001s37.5 -14 57.5 -14c22.667 0 44 4.66699 64 14s37.667 24.833 53 46.5s27.666 49.834 36.999 84.501s14.333 77.667 15 129c-20 -25.333 -43.333 -45.333 -70 -60
s-53.334 -22 -80.001 -22c-55.333 0 -99.333 16.333 -132 49s-49 82 -49 148c0 30.667 5 58.5 15 83.5s23.5 46.5 40.5 64.5s37 32 60 42s47.167 15 72.5 15c31.333 0 60.5 -6.33301 87.5 -19s50.333 -31.834 70 -57.501s35 -57.667 46 -96s16.5 -83.166 16.5 -134.499
c0 -64 -6.66699 -118.5 -20 -163.5s-31.333 -81.667 -54 -110s-48.5 -49 -77.5 -62s-59.5 -19.5 -91.5 -19.5c-34 0 -63.833 6.33301 -89.5 19s-47.167 28.667 -64.5 48z" />
    <glyph glyph-name="colon" unicode=":" horiz-adv-x="249" 
d="M65 411c0 19.333 5.83301 34.833 17.5 46.5s25.834 17.5 42.501 17.5c16 0 29.833 -5.83301 41.5 -17.5s17.5 -27.167 17.5 -46.5c0 -18 -5.83301 -32.833 -17.5 -44.5s-25.5 -17.5 -41.5 -17.5c-16.667 0 -30.834 5.83301 -42.501 17.5s-17.5 26.5 -17.5 44.5zM65 50
c0 19.333 5.83301 34.833 17.5 46.5s25.834 17.5 42.501 17.5c16 0 29.833 -5.83301 41.5 -17.5s17.5 -27.167 17.5 -46.5c0 -18 -5.83301 -32.833 -17.5 -44.5s-25.5 -17.5 -41.5 -17.5c-16.667 0 -30.834 5.83301 -42.501 17.5s-17.5 26.5 -17.5 44.5z" />
    <glyph glyph-name="semicolon" unicode=";" horiz-adv-x="249" 
d="M65 411c0 19.333 5.83301 34.833 17.5 46.5s25.834 17.5 42.501 17.5c16 0 29.833 -5.83301 41.5 -17.5s17.5 -27.167 17.5 -46.5c0 -18 -5.83301 -32.833 -17.5 -44.5s-25.5 -17.5 -41.5 -17.5c-16.667 0 -30.834 5.83301 -42.501 17.5s-17.5 26.5 -17.5 44.5zM47 -122
c28 12.667 50.001 29.332 66.001 49.999s24 44.667 24 72c-2 -0.666992 -5.33301 -1 -10 -1c-16 0 -29.833 4.83301 -41.5 14.5s-17.5 23.834 -17.5 42.501c0 18 6 32.167 18 42.5s26.333 15.5 43 15.5c21.333 0 38.166 -8.66699 50.499 -26s18.5 -41 18.5 -71
c0 -43.333 -11.667 -81 -35 -113s-55.333 -56.667 -96 -74z" />
    <glyph glyph-name="less" unicode="&#x3c;" horiz-adv-x="497" 
d="M34 365l429 168v-71l-211 -78l-134 -50v-4l134 -50l211 -78v-71l-429 168v66z" />
    <glyph glyph-name="equal" unicode="=" horiz-adv-x="497" 
d="M34 468h429v-62h-429v62zM34 255h429v-62h-429v62z" />
    <glyph glyph-name="greater" unicode="&#x3e;" horiz-adv-x="497" 
d="M463 299l-429 -168v71l211 78l134 50v4l-134 50l-211 78v71l429 -168v-66z" />
    <glyph glyph-name="question" unicode="?" horiz-adv-x="425" 
d="M160 198c-4 26 -3.16602 49.501 2.50098 70.501s13.5 40.333 23.5 58s21.5 34.167 34.5 49.5s25.167 30.5 36.5 45.5s20.833 30.167 28.5 45.5s11.5 32 11.5 50c0 26.667 -8.16699 49.5 -24.5 68.5s-40.5 28.5 -72.5 28.5c-22 0 -42.833 -5.16699 -62.5 -15.5
s-37.167 -24.5 -52.5 -42.5l-47 43c21.333 24 45.666 43.833 72.999 59.5s59 23.5 95 23.5c52 0 93.5 -14.167 124.5 -42.5s46.5 -67.5 46.5 -117.5c0 -22 -4 -42 -12 -60s-17.833 -35 -29.5 -51s-24 -31.833 -37 -47.5s-25 -31.834 -36 -48.501s-19.5 -34.5 -25.5 -53.5
s-7.66699 -40.167 -5 -63.5h-72zM139.001 50.001c0 19.333 5.66699 34.833 17 46.5s25.333 17.5 42 17.5s30.834 -5.83301 42.501 -17.5s17.5 -27.167 17.5 -46.5c0 -18 -5.83301 -32.833 -17.5 -44.5s-25.834 -17.5 -42.501 -17.5s-30.667 5.83301 -42 17.5
s-17 26.5 -17 44.5z" />
    <glyph glyph-name="at" unicode="@" horiz-adv-x="847" 
d="M51 203c0 66.667 11.1738 127.329 33.5068 181.996s52.666 101.334 90.999 140.001s82.666 68.5 132.999 89.5s103.5 31.5 159.5 31.5c50.667 0 96.167 -8 136.5 -24s74.666 -38.5 102.999 -67.5s50.166 -63.833 65.499 -104.5s23 -85.667 23 -135
c0 -44 -6.16699 -82.5 -18.5 -115.5s-28.166 -60.667 -47.499 -83s-40.833 -39.166 -64.5 -50.499s-46.834 -17 -69.501 -17c-27.333 0 -50.5 6.33301 -69.5 19s-30.167 31.667 -33.5 57h-2c-16.667 -19.333 -35.667 -35.5 -57 -48.5s-43 -19.5 -65 -19.5
c-34 0 -62.5 12 -85.5 36s-34.5 59 -34.5 105c0 26.667 4.5 53.834 13.5 81.501s21.833 52.667 38.5 75s36.834 40.5 60.501 54.5s50.167 21 79.5 21c17.333 0 32.666 -3.83301 45.999 -11.5s24.666 -19.834 33.999 -36.501h2l11 40h55l-39 -200c-20 -78 -2 -117 54 -117
c16 0 31.833 4.66699 47.5 14s30 22.833 43 40.5s23.5 39.334 31.5 65.001s12 54.834 12 87.501c0 40 -5.83301 77.167 -17.5 111.5s-29.167 63.833 -52.5 88.5s-52.333 44 -87 58s-74.667 21 -120 21c-44.667 0 -88 -9.16699 -130 -27.5s-79.333 -44.166 -112 -77.499
s-58.834 -73.666 -78.501 -120.999s-29.5 -100.333 -29.5 -159c0 -48.667 7.5 -92 22.5 -130s35.833 -70 62.5 -96s58.167 -45.833 94.5 -59.5s75.833 -20.5 118.5 -20.5c30.667 0 59.667 4.16699 87 12.5s52.333 19.166 75 32.499l22 -49c-56.667 -34 -120 -51 -190 -51
c-49.333 0 -95.333 7.66699 -138 23s-79.834 38.166 -111.501 68.499s-56.667 67.833 -75 112.5s-27.5 96 -27.5 154zM315.007 202.995c0 -32 6.66699 -54.998 20 -68.998s30 -21 50 -21c14 0 28.5 4.66699 43.5 14s31.167 24.333 48.5 45l29 159
c-9.33301 15.333 -19 26.166 -29 32.499s-21.667 9.5 -35 9.5c-20 0 -37.833 -5.33301 -53.5 -16s-29 -24.334 -40 -41.001s-19.333 -35 -25 -55s-8.5 -39.333 -8.5 -58z" />
    <glyph glyph-name="A" unicode="A" horiz-adv-x="544" 
d="M369 267l-31 100c-12 36.667 -23.333 73.167 -34 109.5l-32 111.5h-4c-10 -38 -20.333 -75.167 -31 -111.5s-22 -72.833 -34 -109.5l-31 -100h197zM390 200h-239l-63 -200h-85l222 656h94l222 -656h-89z" />
    <glyph glyph-name="B" unicode="B" horiz-adv-x="588" 
d="M90 656h195.001c33.333 0 63.833 -3 91.5 -9s51.334 -15.333 71.001 -28s35 -29.167 46 -49.5s16.5 -44.833 16.5 -73.5c0 -32.667 -9.33301 -62.167 -28 -88.5s-47.334 -44.5 -86.001 -54.5v-4c48 -7.33301 85.333 -24 112 -50s40 -61.667 40 -107c0 -32 -6 -60 -18 -84
s-29 -44 -51 -60s-48.333 -28 -79 -36s-64.334 -12 -101.001 -12h-209v656zM270.001 376c56.667 0 97.167 9.66699 121.5 29s36.5 47.333 36.5 84c0 36 -12.833 61.833 -38.5 77.5s-64.167 23.5 -115.5 23.5h-101v-214h97zM287.001 66c56.667 0 100.667 10.5 132 31.5
s47 53.833 47 98.5c0 40.667 -15.333 70.5 -46 89.5s-75 28.5 -133 28.5h-114v-248h114z" />
    <glyph glyph-name="C" unicode="C" horiz-adv-x="571" 
d="M52 328c0 52.667 7.33203 100.001 21.999 142.001s35 77.667 61 107s56.833 51.833 92.5 67.5s74.5 23.5 116.5 23.5c40 0 75 -8.16699 105 -24.5s54.667 -35.166 74 -56.499l-47 -53c-17.333 18.667 -36.5 33.5 -57.5 44.5s-45.5 16.5 -73.5 16.5
c-31.333 0 -59.666 -6.16699 -84.999 -18.5s-47 -30 -65 -53s-32 -50.833 -42 -83.5s-15 -69.334 -15 -110.001c0 -41.333 4.83301 -78.5 14.5 -111.5s23.167 -61.167 40.5 -84.5s38.5 -41.333 63.5 -54s53.167 -19 84.5 -19c32 0 59.833 6.33301 83.5 19
s46.167 30.667 67.5 54l47 -51c-26 -30 -55.333 -53.333 -88 -70s-70 -25 -112 -25c-41.333 0 -79.5 7.66699 -114.5 23s-65.333 37.5 -91 66.5s-45.667 64.667 -60 107s-21.5 90.166 -21.5 143.499z" />
    <glyph glyph-name="D" unicode="D" horiz-adv-x="615" 
d="M90 656h164c101.333 0 178.333 -28 231 -84s79 -136.333 79 -241c0 -52 -6.66699 -98.5 -20 -139.5s-33 -75.667 -59 -104s-58 -50 -96 -65s-81.667 -22.5 -131 -22.5h-168v656zM248 68c76.667 0 134.167 23 172.5 69s57.5 110.667 57.5 194s-19.167 147 -57.5 191
s-95.833 66 -172.5 66h-75v-520h75z" />
    <glyph glyph-name="E" unicode="E" horiz-adv-x="527" 
d="M90 656h378v-70h-295v-206h249v-71h-249v-238h305v-71h-388v656z" />
    <glyph glyph-name="F" unicode="F" horiz-adv-x="494" 
d="M90 656h378v-70h-295v-222h250v-70h-250v-294h-83v656z" />
    <glyph glyph-name="G" unicode="G" horiz-adv-x="617" 
d="M52 328c0 52.667 7.50391 100.002 22.5039 142.002s36 77.667 63 107s58.833 51.833 95.5 67.5s77 23.5 121 23.5c45.333 0 83.166 -8.5 113.499 -25.5s55.166 -35.5 74.499 -55.5l-47 -53c-16.667 17.333 -35.834 31.833 -57.501 43.5s-49.167 17.5 -82.5 17.5
s-63.333 -6.16699 -90 -18.5s-49.334 -30 -68.001 -53s-33.167 -50.833 -43.5 -83.5s-15.5 -69.334 -15.5 -110.001c0 -41.333 4.83301 -78.5 14.5 -111.5s23.667 -61.167 42 -84.5s41 -41.333 68 -54s58.167 -19 93.5 -19c23.333 0 45.5 3.5 66.5 10.5
s38.167 16.5 51.5 28.5v171h-139v69h215v-276c-21.333 -22 -49.5 -40.167 -84.5 -54.5s-74.5 -21.5 -118.5 -21.5c-43.333 0 -83 7.66699 -119 23s-67 37.5 -93 66.5s-46.333 64.667 -61 107s-22 90.166 -22 143.499z" />
    <glyph glyph-name="H" unicode="H" horiz-adv-x="652" 
d="M90 656h83v-275h305v275h84v-656h-84v309h-305v-309h-83v656z" />
    <glyph glyph-name="I" unicode="I" horiz-adv-x="263" 
d="M90 656h83v-656h-83v656z" />
    <glyph glyph-name="J" unicode="J" horiz-adv-x="480" 
d="M91 135c14.667 -26 31.334 -44.832 50.001 -56.499s39.667 -17.5 63 -17.5c35.333 0 61.666 10.833 78.999 32.5s26 57.5 26 107.5v455h84v-463c0 -28 -3.5 -54.5 -10.5 -79.5s-17.667 -46.833 -32 -65.5s-33 -33.334 -56 -44.001s-50.5 -16 -82.5 -16
c-82 0 -142.333 35 -181 105z" />
    <glyph glyph-name="K" unicode="K" horiz-adv-x="579" 
d="M90 656h83v-329h3l273 329h94l-205 -250l237 -406h-93l-196 341l-113 -133v-208h-83v656z" />
    <glyph glyph-name="L" unicode="L" horiz-adv-x="486" 
d="M90 656h83v-585h287v-71h-370v656z" />
    <glyph glyph-name="M" unicode="M" horiz-adv-x="727" 
d="M90 656h98l127 -352l48 -134h4l46 134l126 352h98v-656h-79v361c0 29.333 1.16699 61.666 3.5 96.999s4.83301 67.666 7.5 96.999h-4l-53 -146l-126 -343h-47l-127 343l-52 146h-4c2 -29.333 4.33301 -61.666 7 -96.999s4 -67.666 4 -96.999v-361h-77v656z" />
    <glyph glyph-name="N" unicode="N" horiz-adv-x="647" 
d="M90 656l86 -0.00195312l237 -412l71 -136h4l-6.5 103.5c-2.33301 35.667 -3.5 70.834 -3.5 105.501v339h79v-656h-86l-238 413l-71 135h-4c2.66699 -33.333 5.16699 -67.166 7.5 -101.499s3.5 -68.833 3.5 -103.5v-343h-79v656z" />
    <glyph glyph-name="O" unicode="O" horiz-adv-x="664" 
d="M332 -12c-41.333 0 -79.166 7.99902 -113.499 23.999s-63.833 38.833 -88.5 68.5s-43.834 65.667 -57.501 108s-20.5 89.833 -20.5 142.5s6.83301 99.834 20.5 141.501s32.834 77 57.501 106s54.167 51.167 88.5 66.5s72.166 23 113.499 23
s79.166 -7.83301 113.499 -23.5s64 -38 89 -67s44.333 -64.333 58 -106s20.5 -88.5 20.5 -140.5c0 -52.667 -6.83301 -100.167 -20.5 -142.5s-33 -78.333 -58 -108s-54.667 -52.5 -89 -68.5s-72.166 -24 -113.499 -24zM332 60.999c29.333 0 55.833 6.33301 79.5 19
s44 30.834 61 54.501s30.167 52 39.5 85s14 70.167 14 111.5c0 40.667 -4.66699 77.334 -14 110.001s-22.5 60.334 -39.5 83.001s-37.333 40.167 -61 52.5s-50.167 18.5 -79.5 18.5s-55.833 -6.16699 -79.5 -18.5s-44 -29.833 -61 -52.5s-30.167 -50.334 -39.5 -83.001
s-14 -69.334 -14 -110.001c0 -41.333 4.66699 -78.5 14 -111.5s22.5 -61.333 39.5 -85s37.333 -41.834 61 -54.501s50.167 -19 79.5 -19z" />
    <glyph glyph-name="P" unicode="P" horiz-adv-x="576" 
d="M90 656h201c36 0 69 -3.33301 99 -10s55.5 -17.5 76.5 -32.5s37.333 -34.833 49 -59.5s17.5 -55 17.5 -91c0 -34.667 -5.83301 -64.667 -17.5 -90s-28.167 -46.333 -49.5 -63s-46.833 -29.167 -76.5 -37.5s-62.5 -12.5 -98.5 -12.5h-118v-260h-83v656zM281 328
c57.333 0 99.833 10.833 127.5 32.5s41.5 55.834 41.5 102.501c0 47.333 -14 80.166 -42 98.499s-70.333 27.5 -127 27.5h-108v-261h108z" />
    <glyph glyph-name="Q" unicode="Q" horiz-adv-x="664" 
d="M138 331c0 -42 4.66699 -79.833 14 -113.5s22.5 -62.5 39.5 -86.5s37.333 -42.333 61 -55s50.167 -19 79.5 -19s55.833 6.33301 79.5 19s44 31 61 55s30.167 52.833 39.5 86.5s14 71.5 14 113.5c0 40.667 -4.66699 77.334 -14 110.001s-22.5 60.334 -39.5 83.001
s-37.333 40.167 -61 52.5s-50.167 18.5 -79.5 18.5s-55.833 -6.16699 -79.5 -18.5s-44 -29.833 -61 -52.5s-30.167 -50.334 -39.5 -83.001s-14 -69.334 -14 -110.001zM627 -149c-10 -3.33301 -23.3301 -6.66797 -39.9971 -10.001s-34.667 -5 -54 -5
c-60.667 0 -111.334 14.5 -152.001 43.5s-70.667 66.167 -90 111.5c-36 4.66699 -68.667 16 -98 34s-54.5 41.667 -75.5 71s-37.167 63.833 -48.5 103.5s-17 83.5 -17 131.5c0 52.667 6.83301 99.834 20.5 141.501s32.834 77 57.501 106s54.167 51.167 88.5 66.5
s72.166 23 113.499 23s79.166 -7.83301 113.499 -23.5s64 -38 89 -67s44.333 -64.333 58 -106s20.5 -88.5 20.5 -140.5c0 -47.333 -5.5 -90.5 -16.5 -129.5s-26.667 -73 -47 -102s-44.833 -52.667 -73.5 -71s-60.334 -30.5 -95.001 -36.5c15.333 -29.333 37 -51 65 -65
s60 -21 96 -21c14.667 0 27.5 1 38.5 3s21.167 4.33301 30.5 7z" />
    <glyph glyph-name="R" unicode="R" horiz-adv-x="581" 
d="M173 345l110 0.000976562c51.333 0 90.666 10.5 117.999 31.5s41 52.833 41 95.5c0 43.333 -13.667 73.666 -41 90.999s-66.666 26 -117.999 26h-110v-244zM450 0.000976562l-157.996 277h-119v-277h-83v656h205c33.333 0 64.166 -3.16699 92.499 -9.5
s52.666 -16.833 72.999 -31.5s36.166 -33.667 47.499 -57s17 -52 17 -86c0 -51.333 -13.333 -92.333 -40 -123s-62.334 -51.667 -107.001 -63l166 -286h-94z" />
    <glyph glyph-name="S" unicode="S" horiz-adv-x="534" 
d="M92 143c23.333 -24.667 50.833 -44.502 82.5 -59.502s64.5 -22.5 98.5 -22.5c43.333 0 77 9.83301 101 29.5s36 45.5 36 77.5c0 16.667 -2.83301 30.834 -8.5 42.501s-13.334 21.667 -23.001 30s-21.167 15.833 -34.5 22.5l-43 21l-94 41
c-15.333 6.66699 -31 14.667 -47 24s-30.333 20.666 -43 33.999s-23 29.166 -31 47.499s-12 39.5 -12 63.5c0 24.667 5.16699 47.667 15.5 69s24.666 39.833 42.999 55.5s40 27.834 65 36.501s52.5 13 82.5 13c39.333 0 75.666 -7.5 108.999 -22.5
s61.666 -34.5 84.999 -58.5l-45 -54c-20 19.333 -42.167 34.5 -66.5 45.5s-51.833 16.5 -82.5 16.5c-36.667 0 -66.167 -8.5 -88.5 -25.5s-33.5 -40.5 -33.5 -70.5c0 -16 3.16699 -29.5 9.5 -40.5s14.833 -20.667 25.5 -29s22.334 -15.666 35.001 -21.999
s25.667 -12.166 39 -17.499l93 -40c18.667 -8 36.334 -17.167 53.001 -27.5s31 -22.333 43 -36s21.5 -29.667 28.5 -48s10.5 -39.5 10.5 -63.5c0 -26 -5.16699 -50.333 -15.5 -73s-25.166 -42.5 -44.499 -59.5s-42.666 -30.333 -69.999 -40s-58.333 -14.5 -93 -14.5
c-46 0 -88.667 8.66699 -128 26s-73.333 41 -102 71z" />
    <glyph glyph-name="T" unicode="T" horiz-adv-x="536" 
d="M226 586h-198v70h480v-70h-198v-586h-84v586z" />
    <glyph glyph-name="U" unicode="U" horiz-adv-x="645" 
d="M87 656h82.999v-387c0 -39.333 4 -72.333 12 -99s18.833 -48 32.5 -64s29.834 -27.5 48.501 -34.5s38.667 -10.5 60 -10.5c22 0 42.333 3.5 61 10.5s35 18.5 49 34.5s25 37.333 33 64s12 59.667 12 99v387h80v-385c0 -52.667 -6 -97 -18 -133s-28.5 -65.167 -49.5 -87.5
s-45.833 -38.333 -74.5 -48s-59.667 -14.5 -93 -14.5s-64.5 4.83301 -93.5 14.5s-54 25.667 -75 48s-37.5 51.5 -49.5 87.5s-18 80.333 -18 133v385z" />
    <glyph glyph-name="V" unicode="V" horiz-adv-x="515" 
d="M0 656l89 -0.000976562l105 -354c12 -39.333 22.5 -75.666 31.5 -108.999s19.833 -69.333 32.5 -108h4c12 38.667 22.667 74.667 32 108l31 109l105 354h85l-208 -656h-97z" />
    <glyph glyph-name="W" unicode="W" horiz-adv-x="786" 
d="M23 656l86 -0.000976562l69 -357c6 -36 12.333 -71.333 19 -106s13 -70 19 -106h4c7.33301 36 15 71.5 23 106.5s15.667 70.167 23 105.5l91 357h76l91 -357l24 -105l24 -107h4l18 106.5c6 35 12.333 70.167 19 105.5l69 357h80l-136 -656h-100l-99 395
c-6 25.333 -11.5 50.166 -16.5 74.499l-15.5 74.5h-4c-5.33301 -25.333 -10.833 -50.166 -16.5 -74.499s-11.167 -49.166 -16.5 -74.499l-97 -395h-99z" />
    <glyph glyph-name="X" unicode="X" horiz-adv-x="513" 
d="M206 339l-178 317h92l89 -168l24.5 -44.5l26.5 -50.5h4l24.5 50.5l22.5 44.5l87 168h88l-179 -321l191 -335h-92l-96 177l-26.5 49.5l-29.5 55.5h-4l-27 -55.5l-25 -49.5l-95 -177h-88z" />
    <glyph glyph-name="Y" unicode="Y" horiz-adv-x="476" 
d="M196 254l-197 402h89l85 -185l31 -71l32 -72h4l34 72c11.333 23.333 22 47 32 71l84 185h87l-197 -402v-254h-84v254z" />
    <glyph glyph-name="Z" unicode="Z" horiz-adv-x="539" 
d="M45 50l345 536h-314v70h418v-49l-346 -536h349v-71h-452v50z" />
    <glyph glyph-name="bracketleft" unicode="[" horiz-adv-x="303" 
d="M94 708h179v-47h-117v-766h117v-47h-179v860z" />
    <glyph glyph-name="backslash" unicode="\" horiz-adv-x="350" 
d="M14 710h59l267 -870h-59z" />
    <glyph glyph-name="bracketright" unicode="]" horiz-adv-x="303" 
d="M147 -105v766h-116v47h178v-860h-178v47h116z" />
    <glyph glyph-name="asciicircum" unicode="^" horiz-adv-x="497" 
d="M212 670h73l152 -386h-72l-65 176l-49 133h-4l-50 -133l-65 -176h-72z" />
    <glyph glyph-name="underscore" unicode="_" horiz-adv-x="500" 
d="M488 -71v-55h-476v55h476z" />
    <glyph glyph-name="grave" unicode="`" horiz-adv-x="542" 
d="M160 714h86l90 -141h-63z" />
    <glyph glyph-name="a" unicode="a" horiz-adv-x="512" 
d="M58 126c0 53.333 23.832 94.167 71.499 122.5s123.5 48.166 227.5 59.499c0 15.333 -1.5 30.333 -4.5 45s-8.33301 27.667 -16 39s-17.834 20.5 -30.501 27.5s-29 10.5 -49 10.5c-28.667 0 -55.167 -5.33301 -79.5 -16s-46.166 -22.667 -65.499 -36l-33 57
c22.667 14.667 50.334 28.834 83.001 42.501s68.667 20.5 108 20.5c59.333 0 102.333 -18.167 129 -54.5s40 -84.833 40 -145.5v-298h-68l-7 58h-2c-23.333 -19.333 -48.5 -35.833 -75.5 -49.5s-55.5 -20.5 -85.5 -20.5c-41.333 0 -75.5 12 -102.5 36s-40.5 58 -40.5 102z
M138.999 132.001c0 -28 8.16699 -48.001 24.5 -60.001s36.5 -18 60.5 -18c23.333 0 45.5 5.5 66.5 16.5s43.167 27.167 66.5 48.5v135c-40.667 -5.33301 -75 -11.666 -103 -18.999s-50.5 -16 -67.5 -26s-29.167 -21.5 -36.5 -34.5s-11 -27.167 -11 -42.5z" />
    <glyph glyph-name="b" unicode="b" horiz-adv-x="555" 
d="M82 712l81.998 0.00292969v-194l-2 -88c22 19.333 46 35.5 72 48.5s52.667 19.5 80 19.5c31.333 0 59 -5.83301 83 -17.5s44.167 -28.334 60.5 -50.001s28.666 -47.667 36.999 -78s12.5 -64.166 12.5 -101.499c0 -41.333 -5.66699 -78.333 -17 -111
s-26.666 -60.334 -45.999 -83.001s-41.666 -39.834 -66.999 -51.501s-52 -17.5 -80 -17.5c-22.667 0 -46.167 5.16699 -70.5 15.5s-47.166 25.166 -68.499 44.499h-3l-7 -48h-66v712zM163.998 108.003c21.333 -18.667 42.498 -31.834 63.498 -39.501s39.5 -11.5 55.5 -11.5
c20 0 38.5 4.5 55.5 13.5s31.667 21.667 44 38s22 36.5 29 60.5s10.5 51 10.5 81c0 26.667 -2.33301 51 -7 73s-12.167 40.833 -22.5 56.5s-23.666 27.834 -39.999 36.501s-35.833 13 -58.5 13c-39.333 0 -82.666 -22 -129.999 -66v-255z" />
    <glyph glyph-name="c" unicode="c" horiz-adv-x="456" 
d="M46 242c0 40.667 6.33594 76.8311 19.0029 108.498s29.667 58.5 51 80.5s46.166 38.667 74.499 50s58.166 17 89.499 17c32 0 59.5 -5.83301 82.5 -17.5s42.833 -25.167 59.5 -40.5l-41 -53c-14.667 12.667 -29.834 23 -45.501 31s-33.167 12 -52.5 12
c-22 0 -42.333 -4.5 -61 -13.5s-34.667 -21.833 -48 -38.5s-23.833 -36.5 -31.5 -59.5s-11.5 -48.5 -11.5 -76.5s3.66699 -53.333 11 -76s17.5 -42.167 30.5 -58.5s28.833 -29 47.5 -38s39 -13.5 61 -13.5c23.333 0 44.5 4.83301 63.5 14.5s35.833 21.167 50.5 34.5l37 -54
c-22 -19.333 -46.5 -34.666 -73.5 -45.999s-55.167 -17 -84.5 -17c-32 0 -62 5.66699 -90 17s-52.167 27.833 -72.5 49.5s-36.333 48.334 -48 80.001s-17.5 67.5 -17.5 107.5z" />
    <glyph glyph-name="d" unicode="d" horiz-adv-x="555" 
d="M47 242c0 39.333 5.83301 74.834 17.5 106.501s27.167 58.5 46.5 80.5s41.666 39 66.999 51s52 18 80 18s52.333 -5 73 -15s41.667 -23.667 63 -41l-4 83v187h83v-712h-68l-7 57h-3c-19.333 -18.667 -41.5 -34.834 -66.5 -48.501s-51.833 -20.5 -80.5 -20.5
c-61.333 0 -110.166 22 -146.499 66s-54.5 106.667 -54.5 188zM132 243.001c0 -58.667 11.667 -104.334 35 -137.001s56.333 -49 99 -49c22.667 0 44 5.5 64 16.5s40 27.833 60 50.5v254c-20.667 18.667 -40.5 31.834 -59.5 39.501s-38.5 11.5 -58.5 11.5
c-19.333 0 -37.5 -4.5 -54.5 -13.5s-31.833 -21.667 -44.5 -38s-22.667 -35.833 -30 -58.5s-11 -48 -11 -76z" />
    <glyph glyph-name="e" unicode="e" horiz-adv-x="496" 
d="M46 242c0 40 6.16895 75.833 18.502 107.5s28.666 58.5 48.999 80.5s43.5 38.833 69.5 50.5s53 17.5 81 17.5c30.667 0 58.167 -5.33301 82.5 -16s44.666 -26 60.999 -46s28.833 -44 37.5 -72s13 -59.333 13 -94c0 -18 -1 -33 -3 -45h-328
c3.33301 -52.667 19.5 -94.334 48.5 -125.001s66.833 -46 113.5 -46c23.333 0 44.833 3.5 64.5 10.5s38.5 16.167 56.5 27.5l29 -54c-21.333 -13.333 -45 -25 -71 -35s-55.667 -15 -89 -15c-32.667 0 -63.167 5.83301 -91.5 17.5s-53 28.334 -74 50.001
s-37.5 48.167 -49.5 79.5s-18 67 -18 107zM386.002 279c0 50 -10.499 88.167 -31.499 114.5s-50.5 39.5 -88.5 39.5c-17.333 0 -33.833 -3.5 -49.5 -10.5s-29.834 -17 -42.501 -30s-23.167 -29 -31.5 -48s-13.833 -40.833 -16.5 -65.5h260z" />
    <glyph glyph-name="f" unicode="f" horiz-adv-x="292" 
d="M301 645c-18 8 -36.333 12 -55 12c-45.333 0 -68 -31.333 -68 -94v-77h103v-67h-103v-419h-82v419h-66v62l66 5v77c0 50 11.5 89.333 34.5 118s58.833 43 107.5 43c15.333 0 29.833 -1.5 43.5 -4.5s26.167 -6.83301 37.5 -11.5z" />
    <glyph glyph-name="g" unicode="g" horiz-adv-x="504" 
d="M117 -82c0 -26 12.501 -46.668 37.501 -62.001s59.5 -23 103.5 -23c23.333 0 44.5 2.83301 63.5 8.5s35.167 13 48.5 22s23.666 19.5 30.999 31.5s11 24.333 11 37c0 22.667 -8.33301 38.334 -25 47.001s-41 13 -73 13h-84c-9.33301 0 -19.5 0.5 -30.5 1.5
s-21.833 3.16699 -32.5 6.5c-17.333 -12.667 -30 -26 -38 -40s-12 -28 -12 -42zM45.001 -93.001c0 20.667 6.33301 40.332 19 58.999s30 35.667 52 51v4c-12 7.33301 -22.167 17.5 -30.5 30.5s-12.5 29.167 -12.5 48.5c0 20.667 5.66699 38.667 17 54s23.333 27.333 36 36v4
c-16 13.333 -30.5 31.166 -43.5 53.499s-19.5 48.166 -19.5 77.499c0 26.667 4.83301 50.667 14.5 72s22.834 39.5 39.501 54.5s36.167 26.5 58.5 34.5s45.833 12 70.5 12c13.333 0 25.833 -1.16699 37.5 -3.5s22.167 -5.16602 31.5 -8.49902h169v-63h-100
c11.333 -11.333 20.833 -25.666 28.5 -42.999s11.5 -36.333 11.5 -57c0 -26 -4.66699 -49.5 -14 -70.5s-22 -38.667 -38 -53s-34.833 -25.5 -56.5 -33.5s-44.834 -12 -69.501 -12c-12 0 -24.333 1.5 -37 4.5s-24.667 7.16699 -36 12.5
c-8.66699 -7.33301 -16 -15.5 -22 -24.5s-9 -20.167 -9 -33.5c0 -15.333 6 -28 18 -38s34.667 -15 68 -15h94c56.667 0 99.167 -9.16699 127.5 -27.5s42.5 -47.833 42.5 -88.5c0 -22.667 -5.66699 -44.167 -17 -64.5s-27.666 -38.166 -48.999 -53.499
s-47.166 -27.5 -77.499 -36.5s-64.5 -13.5 -102.5 -13.5c-30 0 -57.333 2.83301 -82 8.5s-45.834 14.167 -63.501 25.5s-31.334 25 -41.001 41s-14.5 34.667 -14.5 56zM246.001 208.997c14 0 27.167 2.66699 39.5 8s23.333 13 33 23s17.167 22.167 22.5 36.5s8 30.5 8 48.5
c0 36 -10 63.833 -30 83.5s-44.333 29.5 -73 29.5s-53 -9.83301 -73 -29.5s-30 -47.5 -30 -83.5c0 -18 2.66699 -34.167 8 -48.5s12.833 -26.5 22.5 -36.5s20.667 -17.667 33 -23s25.5 -8 39.5 -8z" />
    <glyph glyph-name="h" unicode="h" horiz-adv-x="544" 
d="M82 712l82 0.000976562v-194l-3 -100c23.333 22 47.666 40.833 72.999 56.5s55 23.5 89 23.5c51.333 0 88.833 -16 112.5 -48s35.5 -79.333 35.5 -142v-308h-82v297c0 46 -7.33301 79.167 -22 99.5s-38 30.5 -70 30.5c-25.333 0 -47.666 -6.33301 -66.999 -19
s-41.333 -31.334 -66 -56.001v-352h-82v712z" />
    <glyph glyph-name="i" unicode="i" horiz-adv-x="246" 
d="M124 586c-16 0 -29.5 5 -40.5 15s-16.5 22.667 -16.5 38c0 16 5.5 28.833 16.5 38.5s24.5 14.5 40.5 14.5s29.5 -4.83301 40.5 -14.5s16.5 -22.5 16.5 -38.5c0 -15.333 -5.5 -28 -16.5 -38s-24.5 -15 -40.5 -15zM82 486h82v-486h-82v486z" />
    <glyph glyph-name="j" unicode="j" horiz-adv-x="247" 
d="M83 486l82 -0.000976562v-541c0 -49.333 -10 -88.666 -30 -117.999s-54.333 -44 -103 -44c-15.333 0 -29 1.33301 -41 4s-22.333 5.66699 -31 9l17 62c6 -2 13 -3.83301 21 -5.5s16.333 -2.5 25 -2.5c24 0 40 8.33301 48 25s12 40 12 70v541zM125 585.999
c-16 0 -29.5 5 -40.5 15s-16.5 22.667 -16.5 38c0 16 5.5 28.833 16.5 38.5s24.5 14.5 40.5 14.5c15.333 0 28.5 -4.83301 39.5 -14.5s16.5 -22.5 16.5 -38.5c0 -15.333 -5.5 -28 -16.5 -38s-24.167 -15 -39.5 -15z" />
    <glyph glyph-name="k" unicode="k" horiz-adv-x="495" 
d="M82 712h81v-482h3l207 256h91l-163 -195l185 -291h-90l-142 234l-91 -106v-128h-81v712z" />
    <glyph glyph-name="l" unicode="l" horiz-adv-x="255" 
d="M82 712l81.9971 -0.000976562v-620c0 -13.333 2.33301 -22.666 7 -27.999s10 -8 16 -8h7.5c2.33301 0 5.83301 0.666992 10.5 2l11 -62c-5.33301 -2.66699 -11.666 -4.66699 -18.999 -6s-16.666 -2 -27.999 -2c-31.333 0 -53.666 9.33301 -66.999 28s-20 46 -20 82v614z
" />
    <glyph glyph-name="m" unicode="m" horiz-adv-x="829" 
d="M82 486l68.0029 -0.000976562l7 -70h3c21.333 23.333 44.5 42.833 69.5 58.5s52.167 23.5 81.5 23.5c37.333 0 66.5 -8.16699 87.5 -24.5s36.5 -39.166 46.5 -68.499c25.333 28 50.833 50.5 76.5 67.5s53.5 25.5 83.5 25.5c50 0 87.167 -16 111.5 -48
s36.5 -79.333 36.5 -142v-308h-82v297c0 46 -7.33301 79.167 -22 99.5s-37.334 30.5 -68.001 30.5c-36.667 0 -77.334 -25 -122.001 -75v-352h-82v297c0 46 -7.33301 79.167 -22 99.5s-37.667 30.5 -69 30.5c-36.667 0 -77.334 -25 -122.001 -75v-352h-82v486z" />
    <glyph glyph-name="n" unicode="n" horiz-adv-x="547" 
d="M82 486l67.999 0.000976562l7 -70h3c23.333 23.333 47.833 42.833 73.5 58.5s55.5 23.5 89.5 23.5c51.333 0 88.833 -16 112.5 -48s35.5 -79.333 35.5 -142v-308h-82v297c0 46 -7.33301 79.167 -22 99.5s-38 30.5 -70 30.5c-25.333 0 -47.666 -6.33301 -66.999 -19
s-41.333 -31.334 -66 -56.001v-352h-82v486z" />
    <glyph glyph-name="o" unicode="o" horiz-adv-x="542" 
d="M46 242c0 40.667 6.16699 76.834 18.5 108.501s28.833 58.5 49.5 80.5s44.5 38.667 71.5 50s55.5 17 85.5 17s58.5 -5.66699 85.5 -17s50.833 -28 71.5 -50s37.167 -48.833 49.5 -80.5s18.5 -67.834 18.5 -108.501c0 -40 -6.16699 -75.833 -18.5 -107.5
s-28.833 -58.334 -49.5 -80.001s-44.5 -38.167 -71.5 -49.5s-55.5 -17 -85.5 -17s-58.5 5.66699 -85.5 17s-50.833 27.833 -71.5 49.5s-37.167 48.334 -49.5 80.001s-18.5 67.5 -18.5 107.5zM131 242c0 -28 3.33301 -53.333 10 -76s16.167 -42.167 28.5 -58.5
s27.166 -29 44.499 -38s36.333 -13.5 57 -13.5s39.667 4.5 57 13.5s32.166 21.667 44.499 38s21.833 35.833 28.5 58.5s10 48 10 76s-3.33301 53.5 -10 76.5s-16.167 42.833 -28.5 59.5s-27.166 29.5 -44.499 38.5s-36.333 13.5 -57 13.5s-39.667 -4.5 -57 -13.5
s-32.166 -21.833 -44.499 -38.5s-21.833 -36.5 -28.5 -59.5s-10 -48.5 -10 -76.5z" />
    <glyph glyph-name="p" unicode="p" horiz-adv-x="555" 
d="M164 -41l-0.00195312 -163.999h-82v691h68l7 -56h3c22 18.667 46.167 34.667 72.5 48s53.833 20 82.5 20c31.333 0 59 -5.83301 83 -17.5s44 -28.334 60 -50.001s28.167 -47.667 36.5 -78s12.5 -64.5 12.5 -102.5c0 -41.333 -5.66699 -78.166 -17 -110.499
s-26.666 -59.833 -45.999 -82.5s-41.666 -39.834 -66.999 -51.501s-52 -17.5 -80 -17.5c-22.667 0 -45.167 5 -67.5 15s-44.833 23.667 -67.5 41zM163.998 108.001c22 -18.667 43.332 -31.835 63.999 -39.502s39 -11.5 55 -11.5c20 0 38.5 4.5 55.5 13.5
s31.667 21.667 44 38s22 36.5 29 60.5s10.5 51 10.5 81c0 26.667 -2.33301 51 -7 73s-12.167 40.833 -22.5 56.5s-23.666 27.834 -39.999 36.501s-35.833 13 -58.5 13c-20.667 0 -41.5 -5.66699 -62.5 -17s-43.5 -27.666 -67.5 -48.999v-255z" />
    <glyph glyph-name="q" unicode="q" horiz-adv-x="550" 
d="M47 242c0 39.333 5.83301 74.833 17.5 106.5s27.167 58.5 46.5 80.5s41.666 39 66.999 51s52 18 80 18s52.667 -4.83301 74 -14.5s43 -24.167 65 -43.5h2l8 46h66v-691h-83v173l4 86c-19.333 -18 -41.5 -33.5 -66.5 -46.5s-51.5 -19.5 -79.5 -19.5
c-61.333 0 -110.166 22 -146.499 66s-54.5 106.667 -54.5 188zM132 243c0 -58.667 11.667 -104.334 35 -137.001s56.333 -49 99 -49c22.667 0 44 5.5 64 16.5s40 27.833 60 50.5v254c-20.667 18.667 -40.5 31.834 -59.5 39.501s-38.5 11.5 -58.5 11.5
c-19.333 0 -37.5 -4.5 -54.5 -13.5s-31.833 -21.667 -44.5 -38s-22.667 -35.833 -30 -58.5s-11 -48 -11 -76z" />
    <glyph glyph-name="r" unicode="r" horiz-adv-x="347" 
d="M82 486h68l7 -88h3c16.667 30.667 36.834 55 60.501 73s49.5 27 77.5 27c19.333 0 36.666 -3.33301 51.999 -10l-16 -72c-8 2.66699 -15.333 4.66699 -22 6s-15 2 -25 2c-20.667 0 -42.167 -8.33301 -64.5 -25s-41.833 -45.667 -58.5 -87v-312h-82v486z" />
    <glyph glyph-name="s" unicode="s" horiz-adv-x="419" 
d="M69 110c21.333 -17.333 43.1641 -31.3369 65.4971 -42.0039s48.166 -16 77.499 -16c32 0 56 7.33301 72 22s24 32.667 24 54c0 12.667 -3.33301 23.667 -10 33s-15.167 17.5 -25.5 24.5s-22.166 13.167 -35.499 18.5l-40 16c-17.333 6 -34.666 12.833 -51.999 20.5
s-32.833 17 -46.5 28s-24.834 23.833 -33.501 38.5s-13 32.334 -13 53.001c0 19.333 3.83301 37.5 11.5 54.5s18.667 31.667 33 44s31.833 22 52.5 29s44 10.5 70 10.5c30.667 0 58.834 -5.33301 84.501 -16s47.834 -23.667 66.501 -39l-39 -52
c-16.667 12.667 -34 23 -52 31s-37.667 12 -59 12c-30.667 0 -53.167 -7 -67.5 -21s-21.5 -30.333 -21.5 -49c0 -11.333 3 -21.166 9 -29.499s14 -15.666 24 -21.999s21.5 -12 34.5 -17l40.5 -15.5l52.5 -21c17.667 -7.33301 33.5 -16.5 47.5 -27.5s25.5 -24.5 34.5 -40.5
s13.5 -35.333 13.5 -58c0 -20 -3.83301 -38.667 -11.5 -56s-19 -32.666 -34 -45.999s-33.667 -23.833 -56 -31.5s-47.833 -11.5 -76.5 -11.5c-34.667 0 -67.667 6.33301 -99 19s-58.666 28.667 -81.999 48z" />
    <glyph glyph-name="t" unicode="t" horiz-adv-x="338" 
d="M96 419l-72 0.000976562v62l76 5l10 136h69v-136h131v-67h-131v-270c0 -30 5.5 -53.167 16.5 -69.5s30.5 -24.5 58.5 -24.5c8.66699 0 18 1.33301 28 4s19 5.66699 27 9l16 -62c-13.333 -4.66699 -27.833 -8.83398 -43.5 -12.501s-31.167 -5.5 -46.5 -5.5
c-26 0 -47.833 4 -65.5 12s-32 19 -43 33s-18.833 31 -23.5 51s-7 42 -7 66v269z" />
    <glyph glyph-name="u" unicode="u" horiz-adv-x="544" 
d="M75 486h83.002v-297c0 -46 7.16699 -79.167 21.5 -99.5s37.5 -30.5 69.5 -30.5c25.333 0 47.666 6.5 66.999 19.5s40.666 33.833 63.999 62.5v345h82v-486h-68l-7 76h-3c-22.667 -26.667 -46.5 -48 -71.5 -64s-54.5 -24 -88.5 -24c-52 0 -89.833 16 -113.5 48
s-35.5 79.333 -35.5 142v308z" />
    <glyph glyph-name="v" unicode="v" horiz-adv-x="467" 
d="M12 486h85l92 -276l22.5 -72l22.5 -71h4l22 71l22 72l92 276h81l-172 -486h-96z" />
    <glyph glyph-name="w" unicode="w" horiz-adv-x="718" 
d="M24 486l84 -0.000976562l72 -281l15 -68l14 -67h4l16 67.5c5.33301 22.333 11 44.833 17 67.5l75 281h80l76 -281l17.5 -68l16.5 -67h4c5.33301 22.667 10.333 45 15 67l15 68l71 281h78l-130 -486h-100l-70 261c-6 23.333 -11.5 46.333 -16.5 69
s-10.5 46.334 -16.5 71.001h-4l-16 -71.5c-5.33301 -23 -11.333 -46.167 -18 -69.5l-68 -260h-96z" />
    <glyph glyph-name="x" unicode="x" horiz-adv-x="446" 
d="M173 254l-147 232h89l65 -107l23 -40.5c8 -13.667 16.333 -27.167 25 -40.5h4l22 40.5l22 40.5l59 107h86l-147 -241l158 -245h-89l-71 113l-26 44c-8.66699 14.667 -17.667 29 -27 43h-4c-8.66699 -14 -17 -28.167 -25 -42.5l-24 -44.5l-66 -113h-86z" />
    <glyph glyph-name="y" unicode="y" horiz-adv-x="467" 
d="M49 -134l18.002 -4.5c6.66699 -1.66699 13 -2.5 19 -2.5c28 0 50.833 9.83301 68.5 29.5s31.5 44.5 41.5 74.5l11 36l-195 487h85l99 -269l23.5 -67.5l23.5 -69.5h4c7.33301 22 14.333 45 21 69s13.334 46.667 20.001 68l87 269h80l-183 -526
c-8.66699 -24 -18.334 -46.333 -29.001 -67s-23.334 -38.5 -38.001 -53.5s-31.334 -26.833 -50.001 -35.5s-40.334 -13 -65.001 -13c-11.333 0 -21.666 0.833008 -30.999 2.5s-18 4.16699 -26 7.5l16 65v0z" />
    <glyph glyph-name="z" unicode="z" horiz-adv-x="425" 
d="M31 44l256 375h-228v67h332v-44l-256 -375h264v-67h-368v44z" />
    <glyph glyph-name="braceleft" unicode="{" horiz-adv-x="303" 
d="M273 -105v-46.999h-45c-39.333 0 -68.666 9.33301 -87.999 28s-29 53.667 -29 105c0 18 0.5 35.167 1.5 51.5l3 47.5l3 46c1 15.333 1.5 31.333 1.5 48c0 10 -1.33301 19.5 -4 28.5s-7.16699 17.167 -13.5 24.5s-15.166 13.333 -26.499 18s-25.333 7 -42 7v52
c16.667 0 30.667 2.33301 42 7s20.166 10.5 26.499 17.5s10.833 15.167 13.5 24.5s4 18.666 4 27.999c0 34 -1.5 65.667 -4.5 95s-4.5 62.333 -4.5 99c0 51.333 9.66699 86.333 29 105s48.666 28 87.999 28h45v-47h-27c-27.333 0 -45.5 -7 -54.5 -21
s-13.5 -37.333 -13.5 -70c0 -30.667 1 -60 3 -88s3 -59 3 -93c0 -32.667 -4.66699 -57.5 -14 -74.5s-24.666 -28.5 -45.999 -34.5v-4c21.333 -6 36.666 -17.667 45.999 -35s14 -42 14 -74c0 -34 -1 -65 -3 -93s-3 -57.333 -3 -88c0 -32.667 4.5 -56 13.5 -70
s27.167 -21 54.5 -21h27z" />
    <glyph glyph-name="bar" unicode="|" horiz-adv-x="241" 
d="M92 750h58v-1000h-58v1000z" />
    <glyph glyph-name="braceright" unicode="}" horiz-adv-x="303" 
d="M57 -105c27.333 0 45.501 7.00098 54.501 21.001s13.5 37.333 13.5 70c0 30.667 -0.833008 60 -2.5 88s-2.5 59 -2.5 93c0 32 4.5 56.667 13.5 74s24.167 29 45.5 35v4c-21.333 6 -36.5 17.5 -45.5 34.5s-13.5 41.833 -13.5 74.5c0 34 0.833008 65 2.5 93
s2.5 57.333 2.5 88c0 32.667 -4.5 56 -13.5 70s-27.167 21 -54.5 21h-26v47h44c20 0 37.333 -2.16699 52 -6.5s26.834 -11.5 36.501 -21.5s16.834 -23.5 21.501 -40.5s7 -38.5 7 -64.5c0 -36.667 -1.5 -69.667 -4.5 -99s-4.5 -61 -4.5 -95c0 -19.333 6 -36.833 18 -52.5
s34.667 -23.834 68 -24.501v-52c-16.667 0 -30.5 -2.33301 -41.5 -7s-19.833 -10.667 -26.5 -18s-11.334 -15.5 -14.001 -24.5s-4 -18.5 -4 -28.5c0 -16.667 0.5 -32.667 1.5 -48l3 -46l3 -47.5c1 -16.333 1.5 -33.5 1.5 -51.5c0 -26 -2.33301 -47.5 -7 -64.5
s-11.834 -30.5 -21.501 -40.5s-21.834 -17.167 -36.501 -21.5s-32 -6.5 -52 -6.5h-44v47h26z" />
    <glyph glyph-name="asciitilde" unicode="~" horiz-adv-x="497" 
d="M36 313c18 32 38 55 60 69s43.667 21 65 21c20 0 37.833 -4.33301 53.5 -13s30.334 -18.334 44.001 -29.001s26.834 -20.334 39.501 -29.001s26 -13 40 -13c14.667 0 28.334 4.83301 41.001 14.5s24.667 25.167 36 46.5l46 -34c-18 -32 -38 -54.833 -60 -68.5
s-43.667 -20.5 -65 -20.5c-20 0 -37.833 4.33301 -53.5 13s-30.334 18.334 -44.001 29.001s-26.834 20.334 -39.501 29.001s-26 13 -40 13c-14.667 0 -28.334 -4.83301 -41.001 -14.5s-24.667 -25.167 -36 -46.5z" />
    <glyph glyph-name="uni00A0" unicode="&#xa0;" horiz-adv-x="202" 
 />
    <glyph glyph-name="exclamdown" unicode="&#xa1;" horiz-adv-x="289" 
d="M184 -90l2 -94h-83l2 94l11 378h57zM204 436c0 -19.333 -5.83301 -34.833 -17.5 -46.5s-25.5 -17.5 -41.5 -17.5c-16.667 0 -30.834 5.83301 -42.501 17.5s-17.5 27.167 -17.5 46.5c0 18 5.83301 32.833 17.5 44.5s25.834 17.5 42.501 17.5
c16 0 29.833 -5.83301 41.5 -17.5s17.5 -26.5 17.5 -44.5z" />
    <glyph glyph-name="cent" unicode="&#xa2;" horiz-adv-x="497" 
d="M262 477c-36.667 -8.66699 -65.667 -27.667 -87 -57s-32 -66 -32 -110c0 -44.667 10.333 -81.667 31 -111s50 -48.333 88 -57v335zM454 133c-19.333 -17.333 -40.9941 -31.666 -64.9941 -42.999s-49 -18 -75 -20v-103h-52v104c-30 3.33301 -57.333 11.166 -82 23.499
s-45.834 28.5 -63.501 48.5s-31.334 44 -41.001 72s-14.5 59.667 -14.5 95c0 34.667 5.16699 65.667 15.5 93s24.5 51 42.5 71s39.333 36.167 64 48.5s51 20.5 79 24.5v106h52v-103c29.333 -1.33301 54.666 -7.66602 75.999 -18.999s39.666 -24.333 54.999 -39l-40 -52
c-13.333 12 -27.5 21.667 -42.5 29s-31.167 11.666 -48.5 12.999v-344c21.333 1.33301 40.666 6.5 57.999 15.5s32.666 19.5 45.999 31.5z" />
    <glyph glyph-name="sterling" unicode="&#xa3;" horiz-adv-x="497" 
d="M453 71l0.000976562 -71h-399v50c34 18.667 60.167 43.834 78.5 75.501s27.5 66.5 27.5 104.5c0 9.33301 -0.666992 18.5 -2 27.5s-3 18.167 -5 27.5h-100v52l67 4h18c-6.66699 21.333 -12.834 42.166 -18.501 62.499s-8.5 41.166 -8.5 62.499c0 28 4.5 53.333 13.5 76
s21.667 42 38 58s35.833 28.333 58.5 37s48 13 76 13c36 0 66.5 -7.16699 91.5 -21.5s46.167 -32.166 63.5 -53.499l-48 -47c-12.667 15.333 -27 28 -43 38s-35.333 15 -58 15c-36 0 -63.5 -10.833 -82.5 -32.5s-28.5 -49.834 -28.5 -84.501
c0 -21.333 2.5 -41.833 7.5 -61.5s10.5 -40.167 16.5 -61.5h159v-56h-146c1.33301 -9.33301 2.5 -18.5 3.5 -27.5s1.5 -18.5 1.5 -28.5c0 -35.333 -5.33301 -64.666 -16 -87.999s-26 -45.333 -46 -66v-4h281z" />
    <glyph glyph-name="currency" unicode="&#xa4;" horiz-adv-x="497" 
d="M26 148l64 65c-11.333 15.333 -20.166 32.666 -26.499 51.999s-9.5 40.666 -9.5 63.999s3.16699 44.833 9.5 64.5s15.166 37.167 26.499 52.5l-64 66l44 45l68 -70c32 24.667 69 37 111 37c19.333 0 38.666 -3.16699 57.999 -9.5s36.666 -15.5 51.999 -27.5l68 70l44 -45
l-65 -66c11.333 -15.333 20.333 -32.833 27 -52.5s10 -41.167 10 -64.5s-3.33301 -44.666 -10 -63.999s-15.667 -36.666 -27 -51.999l65 -65l-44 -45l-68 69c-15.333 -12.667 -32.666 -22.167 -51.999 -28.5s-38.666 -9.5 -57.999 -9.5c-42.667 0 -79.667 12.667 -111 38
l-68 -69zM130 329c0 -20 3.16699 -38.167 9.5 -54.5s14.833 -30.5 25.5 -42.5s23.334 -21.167 38.001 -27.5s30 -9.5 46 -9.5s31.167 3.16699 45.5 9.5s26.833 15.5 37.5 27.5s19.167 26.167 25.5 42.5s9.5 34.5 9.5 54.5s-3.16699 38.167 -9.5 54.5
s-14.833 30.5 -25.5 42.5s-23.167 21.167 -37.5 27.5s-29.5 9.5 -45.5 9.5s-31.333 -3.16699 -46 -9.5s-27.334 -15.5 -38.001 -27.5s-19.167 -26.167 -25.5 -42.5s-9.5 -34.5 -9.5 -54.5z" />
    <glyph glyph-name="yen" unicode="&#xa5;" horiz-adv-x="497" 
d="M109 638l78 -170.999l29.5 -66.5l30.5 -68.5h4c11.333 23.333 21.833 46.166 31.5 68.499l29.5 66.5l78 171h84l-164 -320h142v-47h-163v-65h163v-48h-163v-158h-82v158h-162v48h162v65h-162v47h141l-163 320h86z" />
    <glyph glyph-name="brokenbar" unicode="&#xa6;" horiz-adv-x="241" 
d="M92 750h58v-459h-58v459zM150 214v-464h-58v464h58z" />
    <glyph glyph-name="section" unicode="&#xa7;" horiz-adv-x="497" 
d="M320 193c19.333 9.33301 34.168 20.333 44.501 33s15.5 30 15.5 52c0 22.667 -6.66699 41.334 -20 56.001s-30 27.5 -50 38.5s-41.833 21.167 -65.5 30.5s-45.834 20 -66.501 32c-19.333 -10.667 -34.333 -22.667 -45 -36s-16 -30.333 -16 -51
c0 -22 6.66699 -40.167 20 -54.5s30.166 -26.833 50.499 -37.5s42.333 -20.834 66 -30.501s45.834 -20.5 66.501 -32.5zM365.002 574c-16 13.333 -33.0029 24.333 -51.0029 33s-38 13 -60 13c-28 0 -48.167 -6.16699 -60.5 -18.5s-18.5 -27.166 -18.5 -44.499
c0 -18 6.83301 -33 20.5 -45s30.834 -23 51.501 -33s42.834 -20 66.501 -30s45.834 -22.167 66.501 -36.5s37.834 -31.666 51.501 -51.999s20.5 -45.833 20.5 -76.5c0 -32 -7.83301 -57.833 -23.5 -77.5s-36.167 -36.834 -61.5 -51.501
c9.33301 -11.333 16.666 -23.5 21.999 -36.5s8 -28.167 8 -45.5c0 -20 -4 -38.333 -12 -55s-19.167 -31 -33.5 -43s-31.333 -21.5 -51 -28.5s-41.167 -10.5 -64.5 -10.5c-36 0 -68.667 6.33301 -98 19s-54.333 30 -75 52l50 45c16.667 -16 34.667 -28.667 54 -38
s42.333 -14 69 -14s47.5 6.66699 62.5 20s22.5 29.666 22.5 48.999c0 18.667 -6.83301 34.334 -20.5 47.001s-30.667 24 -51 34s-42.5 19.833 -66.5 29.5s-46.167 21.5 -66.5 35.5s-37.333 31.167 -51 51.5s-20.5 45.833 -20.5 76.5c0 29.333 8 54.666 24 75.999
s36.667 39 62 53c-10 10.667 -17.833 22.667 -23.5 36s-8.5 28.666 -8.5 45.999s3.16699 33.833 9.5 49.5s16 29.5 29 41.5s28.833 21.5 47.5 28.5s40.667 10.5 66 10.5c32 0 60.833 -5.66699 86.5 -17s48.167 -24.666 67.5 -39.999z" />
    <glyph glyph-name="dieresis" unicode="&#xa8;" horiz-adv-x="542" 
d="M185 588c-14.667 0 -26.5 4.66699 -35.5 14s-13.5 21 -13.5 35s4.5 25.667 13.5 35s20.833 14 35.5 14c14 0 25.667 -4.66699 35 -14s14 -21 14 -35s-4.66699 -25.667 -14 -35s-21 -14 -35 -14zM357 588c-14 0 -25.667 4.66699 -35 14s-14 21 -14 35
s4.66699 25.667 14 35s21 14 35 14c14.667 0 26.5 -4.66699 35.5 -14s13.5 -21 13.5 -35s-4.5 -25.667 -13.5 -35s-20.833 -14 -35.5 -14z" />
    <glyph glyph-name="copyright" unicode="&#xa9;" horiz-adv-x="744" 
d="M49 323c0 50.667 8.66699 96.334 26 137.001s40.666 75.334 69.999 104.001s63.666 50.667 102.999 66s80.666 23 123.999 23s84.5 -7.66699 123.5 -23s73.333 -37.333 103 -66s53.167 -63.334 70.5 -104.001s26 -86.334 26 -137.001
c0 -51.333 -8.66699 -97.5 -26 -138.5s-40.833 -76 -70.5 -105s-64 -51.333 -103 -67s-80.167 -23.5 -123.5 -23.5s-84.666 7.83301 -123.999 23.5s-73.666 38 -102.999 67s-52.666 64 -69.999 105s-26 87.167 -26 138.5zM96 323c0 -44 7.33301 -83.833 22 -119.5
s34.5 -66.334 59.5 -92.001s54.167 -45.5 87.5 -59.5s69 -21 107 -21s73.667 7 107 21s62.5 33.833 87.5 59.5s44.833 56.334 59.5 92.001s22 75.5 22 119.5c0 43.333 -7.33301 82.833 -22 118.5s-34.5 66.167 -59.5 91.5s-54.167 44.833 -87.5 58.5s-69 20.5 -107 20.5
s-73.667 -6.83301 -107 -20.5s-62.5 -33.167 -87.5 -58.5s-44.833 -55.833 -59.5 -91.5s-22 -75.167 -22 -118.5zM198 323c0 28.667 5.16797 54.667 15.501 78s24 43.333 41 60s36.667 29.334 59 38.001s45.5 13 69.5 13c28 0 51.833 -5.5 71.5 -16.5s37.5 -24.5 53.5 -40.5
l-35 -39c-13.333 13.333 -26.833 23.5 -40.5 30.5s-29.167 10.5 -46.5 10.5c-36.667 0 -66.167 -12.5 -88.5 -37.5s-33.5 -57.167 -33.5 -96.5c0 -44 10.833 -78.833 32.5 -104.5s50.5 -38.5 86.5 -38.5c21.333 0 40 4.16699 56 12.5s31.333 18.833 46 31.5l30 -42
c-18.667 -16 -38.334 -29.5 -59.001 -40.5s-46 -16.5 -76 -16.5c-25.333 0 -49 4.5 -71 13.5s-41.333 22 -58 39s-29.667 37.667 -39 62s-14 52.166 -14 83.499z" />
    <glyph glyph-name="ordfeminine" unicode="&#xaa;" horiz-adv-x="345" 
d="M136 258c-30 0 -54 8.66797 -72 26.001s-27 40.333 -27 69c0 35.333 15.833 62.166 47.5 80.499s82.167 30.833 151.5 37.5c-0.666992 21.333 -5.33398 39 -14.001 53s-24.667 21 -48 21c-17.333 0 -35.166 -3.5 -53.499 -10.5s-34.166 -14.833 -47.499 -23.5l-23 42
c16.667 10.667 36.5 20.5 59.5 29.5s47.5 13.5 73.5 13.5c40 0 69.167 -11.667 87.5 -35s27.5 -56.333 27.5 -99v-196h-50l-7 37h-4c-13.333 -12 -28.333 -22.5 -45 -31.5s-35.334 -13.5 -56.001 -13.5zM154 308.001c26 0 53.332 13.334 81.999 40.001v85
c-51.333 -6 -87.166 -15.333 -107.499 -28s-30.5 -28.334 -30.5 -47.001c0 -17.333 5 -30 15 -38s23.667 -12 41 -12z" />
    <glyph glyph-name="guillemotleft" unicode="&#xab;" horiz-adv-x="429" 
d="M45 221v62l136 155l36 -30l-118 -156l118 -158l-36 -28zM203 221v62l136 155l36 -30l-118 -156l118 -158l-36 -28z" />
    <glyph glyph-name="logicalnot" unicode="&#xac;" horiz-adv-x="497" 
d="M34 361h429v-257h-66v195h-363v62z" />
    <glyph glyph-name="uni00AD" unicode="&#xad;" horiz-adv-x="311" 
d="M41 282h230v-63h-230v63z" />
    <glyph glyph-name="registered" unicode="&#xae;" horiz-adv-x="423" 
d="M211 319c-26 0 -50.333 4.83301 -73 14.5s-42.5 23.167 -59.5 40.5s-30.5 38 -40.5 62s-15 50.667 -15 80s5 56 15 80s23.5 44.667 40.5 62s36.833 30.833 59.5 40.5s47 14.5 73 14.5s50.5 -4.83301 73.5 -14.5s43 -23.167 60 -40.5s30.5 -38 40.5 -62s15 -50.667 15 -80
s-5 -56 -15 -80s-23.5 -44.667 -40.5 -62s-37 -30.833 -60 -40.5s-47.5 -14.5 -73.5 -14.5zM211 356c20.667 0 40.167 3.83301 58.5 11.5s34.166 18.5 47.499 32.5s23.833 30.833 31.5 50.5s11.5 41.5 11.5 65.5c0 23.333 -3.83301 44.833 -11.5 64.5
s-18.167 36.667 -31.5 51s-29.166 25.5 -47.499 33.5s-37.833 12 -58.5 12c-21.333 0 -41 -4 -59 -12s-33.5 -19.167 -46.5 -33.5s-23.333 -31.333 -31 -51s-11.5 -41.167 -11.5 -64.5c0 -24 3.83301 -45.833 11.5 -65.5s18 -36.5 31 -50.5s28.5 -24.833 46.5 -32.5
s37.667 -11.5 59 -11.5zM139 620h76.001c21.333 0 39.666 -4.83301 54.999 -14.5s23 -26.5 23 -50.5c0 -12 -3.33301 -23.167 -10 -33.5s-15.667 -17.5 -27 -21.5l46 -83h-46l-35 70h-41v-70h-41v203zM206.001 519c28.667 0 43 11.333 43 34c0 10 -3 18 -9 24
s-16.667 9 -32 9h-28v-67h26z" />
    <glyph glyph-name="macron" unicode="&#xaf;" horiz-adv-x="542" 
d="M148 658h246v-57h-246v57z" />
    <glyph glyph-name="degree" unicode="&#xb0;" horiz-adv-x="331" 
d="M166 429c-16.667 0 -32.5 3 -47.5 9s-28.333 14.5 -40 25.5s-20.834 24.333 -27.501 40s-10 33.167 -10 52.5c0 20 3.33301 37.833 10 53.5s15.834 29.167 27.501 40.5s25 20 40 26s30.833 9 47.5 9s32.5 -3 47.5 -9s28.333 -14.667 40 -26s20.834 -24.833 27.501 -40.5
s10 -33.5 10 -53.5c0 -19.333 -3.33301 -36.833 -10 -52.5s-15.834 -29 -27.501 -40s-25 -19.5 -40 -25.5s-30.833 -9 -47.5 -9zM166 475c22 0 40 7.66699 54 23s21 34.666 21 57.999c0 24.667 -7 44.667 -21 60s-32 23 -54 23s-40 -7.66699 -54 -23s-21 -35.333 -21 -60
c0 -23.333 7 -42.666 21 -57.999s32 -23 54 -23z" />
    <glyph glyph-name="plusminus" unicode="&#xb1;" horiz-adv-x="497" 
d="M216 304h-182v62h182v190h65v-190h182v-62h-182v-177h-65v177zM34 62h429v-62h-429v62z" />
    <glyph glyph-name="two.sups" unicode="&#xb2;" horiz-adv-x="367" 
d="M52 477l80.001 73.499c23.333 21.667 42.666 41.5 57.999 59.5s27 34.833 35 50.5s12 30.834 12 45.501c0 25.333 -6.66699 45.333 -20 60s-31.666 22 -54.999 22c-16.667 0 -32 -5.5 -46 -16.5s-26.667 -24.5 -38 -40.5l-38 35c15.333 22.667 34.166 41 56.499 55
s46.833 21 73.5 21c39.333 0 70.833 -10.667 94.5 -32s35.5 -52.666 35.5 -93.999c0 -18.667 -3.66699 -36.667 -11 -54s-17.5 -34.833 -30.5 -52.5s-28.333 -35.834 -46 -54.501l-57.5 -60h165v-55h-268v37z" />
    <glyph glyph-name="three.sups" unicode="&#xb3;" horiz-adv-x="367" 
d="M78 537c12 -18 26.334 -32.1709 43.001 -42.5039s35.334 -15.5 56.001 -15.5c21.333 0 39.666 6 54.999 18s23 29.333 23 52s-10.667 39.834 -32 51.501s-51 17.5 -89 17.5v41c34 0 60.167 6.66699 78.5 20s27.5 30 27.5 50c0 18.667 -6.5 33.667 -19.5 45
s-30.167 17 -51.5 17c-14.667 0 -28.667 -4.5 -42 -13.5s-25.666 -20.167 -36.999 -33.5l-39 34c17.333 19.333 36.166 34.833 56.499 46.5s44.166 17.5 71.499 17.5c16.667 0 32.5 -2.33301 47.5 -7s28.167 -11.5 39.5 -20.5s20.333 -20 27 -33s10 -27.833 10 -44.5
c0 -23.333 -6.33301 -42.833 -19 -58.5s-29 -28.167 -49 -37.5c22 -5.33301 41.5 -16.166 58.5 -32.499s25.5 -37.5 25.5 -63.5c0 -18 -3.66699 -34.167 -11 -48.5s-17.333 -26.666 -30 -36.999s-27.5 -18.166 -44.5 -23.499s-34.833 -8 -53.5 -8
c-32 0 -60.333 7.16699 -85 21.5s-44.667 32.5 -60 54.5z" />
    <glyph glyph-name="acute" unicode="&#xb4;" horiz-adv-x="542" 
d="M269 573h-63l90 141h86z" />
    <glyph glyph-name="uni00B5" unicode="&#xb5;" horiz-adv-x="550" 
d="M82 486h81.998v-297c0 -46 7.33301 -79.167 22 -99.5s38 -30.5 70 -30.5c25.333 0 47.5 6.5 66.5 19.5s40.167 33.833 63.5 62.5v345h82v-486h-68l-7 76h-2c-19.333 -26 -40.5 -46.5 -63.5 -61.5s-48.5 -22.5 -76.5 -22.5c-19.333 0 -36.666 2.83301 -51.999 8.5
s-28.666 17.167 -39.999 34.5l5 -90v-145h-82v686z" />
    <glyph glyph-name="paragraph" unicode="&#xb6;" horiz-adv-x="560" 
d="M380 656h84v-736h-84v736zM293 226c-36 0 -69.5 4.16699 -100.5 12.5s-57.667 21.333 -80 39s-39.833 40.167 -52.5 67.5s-19 60 -19 98c0 39.333 6 72.5 18 99.5s28.833 49 50.5 66s47.167 29.167 76.5 36.5s61.333 11 96 11h44v-430h-33z" />
    <glyph glyph-name="periodcentered" unicode="&#xb7;" horiz-adv-x="249" 
d="M65 321c0 19.333 5.83301 34.833 17.5 46.5s25.834 17.5 42.501 17.5c16 0 29.833 -5.83301 41.5 -17.5s17.5 -27.167 17.5 -46.5c0 -18 -5.83301 -32.833 -17.5 -44.5s-25.5 -17.5 -41.5 -17.5c-16.667 0 -30.834 5.83301 -42.501 17.5s-17.5 26.5 -17.5 44.5z" />
    <glyph glyph-name="cedilla" unicode="&#xb8;" horiz-adv-x="542" 
d="M258 3l53.001 0.000976562l-25 -53c16 -5.33301 29.833 -13.333 41.5 -24s17.5 -26.334 17.5 -47.001c0 -14.667 -4 -27.334 -12 -38.001s-18.667 -19.667 -32 -27s-28.833 -13.166 -46.5 -17.499s-35.834 -7.5 -54.501 -9.5l-8 41
c26.667 3.33301 48.167 8.83301 64.5 16.5s24.5 18.167 24.5 31.5s-5.5 23.5 -16.5 30.5s-26.5 13.167 -46.5 18.5z" />
    <glyph glyph-name="one.sups" unicode="&#xb9;" horiz-adv-x="367" 
d="M172 748h-85v42c22 4 40.333 9.16699 55 15.5s28.667 14.5 42 24.5h52v-390h-64v308z" />
    <glyph glyph-name="ordmasculine" unicode="&#xba;" horiz-adv-x="365" 
d="M182 258c-20.667 0 -40.167 3.83301 -58.5 11.5s-34.5 18.667 -48.5 33s-25 32 -33 53s-12 44.833 -12 71.5s4 50.5 12 71.5s19 38.667 33 53s30.167 25.333 48.5 33s37.833 11.5 58.5 11.5s40.167 -3.83301 58.5 -11.5s34.5 -18.667 48.5 -33s25 -32 33 -53
s12 -44.833 12 -71.5s-4 -50.5 -12 -71.5s-19 -38.667 -33 -53s-30.167 -25.333 -48.5 -33s-37.833 -11.5 -58.5 -11.5zM182 309c28 0 49.667 10.833 65 32.5s23 50.167 23 85.5c0 36 -7.66699 64.667 -23 86s-37 32 -65 32s-49.833 -10.667 -65.5 -32s-23.5 -50 -23.5 -86
c0 -35.333 7.83301 -63.833 23.5 -85.5s37.5 -32.5 65.5 -32.5z" />
    <glyph glyph-name="guillemotright" unicode="&#xbb;" horiz-adv-x="429" 
d="M172 252l-118 156l35 30l137 -155v-62l-137 -155l-35 28zM330 252l-118 156l35 30l137 -155v-62l-137 -155l-35 28z" />
    <glyph glyph-name="onequarter" unicode="&#xbc;" horiz-adv-x="781" 
d="M149 574h-85v42c22 4 40.333 9.16699 55 15.5s28.667 14.5 42 24.5h52v-390h-64v308zM180 -12l362 680h56l-362 -680h-56zM633 150v70l4 109h-4l-50 -81l-61 -98h111zM749 104h-58v-104h-58v104h-178v33l164 253h72v-240h58v-46z" />
    <glyph glyph-name="onehalf" unicode="&#xbd;" horiz-adv-x="808" 
d="M149 574h-85v42c22 4 40.333 9.16699 55 15.5s28.667 14.5 42 24.5h52v-390h-64v308zM159 -12l362 680h56l-362 -680h-56zM493 37l80.001 73.499c23.333 21.667 42.666 41.5 57.999 59.5s27 34.833 35 50.5s12 30.834 12 45.501c0 25.333 -6.66699 45.333 -20 60
s-31.666 22 -54.999 22c-16.667 0 -32 -5.5 -46 -16.5s-26.667 -24.5 -38 -40.5l-38 35c15.333 22.667 34.166 41 56.499 55s46.833 21 73.5 21c39.333 0 70.833 -10.667 94.5 -32s35.5 -52.666 35.5 -93.999c0 -18.667 -3.66699 -36.667 -11 -54s-17.5 -34.833 -30.5 -52.5
s-28.333 -35.834 -46 -54.501l-57.5 -60h165v-55h-268v37z" />
    <glyph glyph-name="threequarters" unicode="&#xbe;" horiz-adv-x="796" 
d="M78 363c12 -18 26.334 -32.1709 43.001 -42.5039s35.334 -15.5 56.001 -15.5c21.333 0 39.666 6 54.999 18s23 29.333 23 52s-10.667 39.834 -32 51.501s-51 17.5 -89 17.5v41c34 0 60.167 6.66699 78.5 20s27.5 30 27.5 50c0 18.667 -6.5 33.667 -19.5 45
s-30.167 17 -51.5 17c-14.667 0 -28.667 -4.5 -42 -13.5s-25.666 -20.167 -36.999 -33.5l-39 34c17.333 19.333 36.166 34.833 56.499 46.5s44.166 17.5 71.499 17.5c16.667 0 32.5 -2.33301 47.5 -7s28.167 -11.5 39.5 -20.5s20.333 -20 27 -33s10 -27.833 10 -44.5
c0 -23.333 -6.33301 -42.833 -19 -58.5s-29 -28.167 -49 -37.5c22 -5.33301 41.5 -16.166 58.5 -32.499s25.5 -37.5 25.5 -63.5c0 -18 -3.66699 -34.167 -11 -48.5s-17.333 -26.666 -30 -36.999s-27.5 -18.166 -44.5 -23.499s-34.833 -8 -53.5 -8
c-32 0 -60.333 7.16699 -85 21.5s-44.667 32.5 -60 54.5zM217.001 -12.0039l362 680h56l-362 -680h-56zM648.001 149.996v70l4 109h-4l-50 -81l-61 -98h111zM764.001 103.996h-58v-104h-58v104h-178v33l164 253h72v-240h58v-46z" />
    <glyph glyph-name="questiondown" unicode="&#xbf;" horiz-adv-x="425" 
d="M265 288c3.33301 -26 2.33301 -49.5 -3 -70.5s-13 -40.333 -23 -58s-21.5 -34.167 -34.5 -49.5s-25.167 -30.5 -36.5 -45.5s-20.833 -30.333 -28.5 -46s-11.5 -32.167 -11.5 -49.5c0 -26.667 8 -49.334 24 -68.001s40.333 -28 73 -28c22 0 42.667 5 62 15
s36.666 24 51.999 42l48 -43c-21.333 -23.333 -45.666 -43 -72.999 -59s-59 -24 -95 -24c-52 0 -93.5 14.167 -124.5 42.5s-46.5 67.5 -46.5 117.5c0 22 4 42 12 60s17.833 35 29.5 51s24 31.833 37 47.5s24.833 31.834 35.5 48.501s19 34.5 25 53.5s7.66699 40.167 5 63.5
h73zM286 436c0 -19.333 -5.83301 -34.833 -17.5 -46.5s-25.5 -17.5 -41.5 -17.5c-16.667 0 -30.834 5.83301 -42.501 17.5s-17.5 27.167 -17.5 46.5c0 18 5.83301 32.833 17.5 44.5s25.834 17.5 42.501 17.5c16 0 29.833 -5.83301 41.5 -17.5s17.5 -26.5 17.5 -44.5z" />
    <glyph glyph-name="Agrave" unicode="&#xc0;" horiz-adv-x="544" 
d="M369 267l-31 100c-12 36.667 -23.333 73.167 -34 109.5l-32 111.5h-4c-10 -38 -20.333 -75.167 -31 -111.5s-22 -72.833 -34 -109.5l-31 -100h197zM390 200h-239l-63 -200h-85l222 656h94l222 -656h-89zM140 818h94l88 -112h-69z" />
    <glyph glyph-name="Aacute" unicode="&#xc1;" horiz-adv-x="544" 
d="M369 267l-31 100c-12 36.667 -23.333 73.167 -34 109.5l-32 111.5h-4c-10 -38 -20.333 -75.167 -31 -111.5s-22 -72.833 -34 -109.5l-31 -100h197zM390 200h-239l-63 -200h-85l222 656h94l222 -656h-89zM289 706h-69l88 112h94z" />
    <glyph glyph-name="Acircumflex" unicode="&#xc2;" horiz-adv-x="544" 
d="M369 267l-31 100c-12 36.667 -23.333 73.167 -34 109.5l-32 111.5h-4c-10 -38 -20.333 -75.167 -31 -111.5s-22 -72.833 -34 -109.5l-31 -100h197zM390 200h-239l-63 -200h-85l222 656h94l222 -656h-89zM135 706l96 112h80l96 -112h-67l-67 68h-4l-67 -68h-67z" />
    <glyph glyph-name="Atilde" unicode="&#xc3;" horiz-adv-x="544" 
d="M369 267l-31 100c-12 36.667 -23.333 73.167 -34 109.5l-32 111.5h-4c-10 -38 -20.333 -75.167 -31 -111.5s-22 -72.833 -34 -109.5l-31 -100h197zM390 200h-239l-63 -200h-85l222 656h94l222 -656h-89zM331 711c-13.333 0 -25.333 2.66895 -36 8.00195
s-20.5 11.333 -29.5 18s-17.833 12.667 -26.5 18s-17.667 8 -27 8s-17.666 -4.33301 -24.999 -13s-12.333 -21.667 -15 -39h-46c3.33301 31.333 12.333 57.166 27 77.499s34 30.5 58 30.5c13.333 0 25.333 -2.66699 36 -8s20.5 -11.333 29.5 -18s17.833 -12.667 26.5 -18
s17.667 -8 27 -8s17.666 4.5 24.999 13.5s12.333 21.833 15 38.5h46c-3.33301 -30.667 -12.333 -56.334 -27 -77.001s-34 -31 -58 -31z" />
    <glyph glyph-name="Adieresis" unicode="&#xc4;" horiz-adv-x="544" 
d="M369 267l-31 100c-12 36.667 -23.333 73.167 -34 109.5l-32 111.5h-4c-10 -38 -20.333 -75.167 -31 -111.5s-22 -72.833 -34 -109.5l-31 -100h197zM390 200h-239l-63 -200h-85l222 656h94l222 -656h-89zM185 715c-14.667 0 -26.5 4.66699 -35.5 14s-13.5 21 -13.5 35
c0 14.667 4.5 26.5 13.5 35.5s20.833 13.5 35.5 13.5c14 0 25.667 -4.5 35 -13.5s14 -20.833 14 -35.5c0 -14 -4.66699 -25.667 -14 -35s-21 -14 -35 -14zM357 715c-14 0 -25.667 4.66699 -35 14s-14 21 -14 35c0 14.667 4.66699 26.5 14 35.5s21 13.5 35 13.5
c14.667 0 26.5 -4.5 35.5 -13.5s13.5 -20.833 13.5 -35.5c0 -14 -4.5 -25.667 -13.5 -35s-20.833 -14 -35.5 -14z" />
    <glyph glyph-name="Aring" unicode="&#xc5;" horiz-adv-x="544" 
d="M369 267l-31 100c-12 36.667 -23.333 73.167 -34 109.5l-32 111.5h-4c-10 -38 -20.333 -75.167 -31 -111.5s-22 -72.833 -34 -109.5l-31 -100h197zM390 200h-239l-63 -200h-85l222 656h94l222 -656h-89zM271 699c-27.333 0 -49.666 7.83301 -66.999 23.5
s-26 37.167 -26 64.5c0 26.667 8.66699 48 26 64s39.666 24 66.999 24c26.667 0 48.834 -8 66.501 -24s26.5 -37.333 26.5 -64c0 -27.333 -8.83301 -48.833 -26.5 -64.5s-39.834 -23.5 -66.501 -23.5zM271 735c12.667 0 23.667 4.5 33 13.5s14 21.833 14 38.5
c0 15.333 -4.66699 27.666 -14 36.999s-20.333 14 -33 14c-13.333 0 -24.666 -4.66699 -33.999 -14s-14 -21.666 -14 -36.999c0 -16.667 4.66699 -29.5 14 -38.5s20.666 -13.5 33.999 -13.5z" />
    <glyph glyph-name="AE" unicode="&#xc6;" horiz-adv-x="822" 
d="M401 258v332h-4l-107 -214l-61 -118h172zM773 71v-71h-372v191h-206l-99 -191h-88l344 656h411v-70h-278v-206h232v-71h-232v-238h288z" />
    <glyph glyph-name="Ccedilla" unicode="&#xc7;" horiz-adv-x="571" 
d="M52 328c0 52.667 7.33203 100.001 21.999 142.001s35 77.667 61 107s56.833 51.833 92.5 67.5s74.5 23.5 116.5 23.5c40 0 75 -8.16699 105 -24.5s54.667 -35.166 74 -56.499l-47 -53c-17.333 18.667 -36.5 33.5 -57.5 44.5s-45.5 16.5 -73.5 16.5
c-31.333 0 -59.666 -6.16699 -84.999 -18.5s-47 -30 -65 -53s-32 -50.833 -42 -83.5s-15 -69.334 -15 -110.001c0 -41.333 4.83301 -78.5 14.5 -111.5s23.167 -61.167 40.5 -84.5s38.5 -41.333 63.5 -54s53.167 -19 84.5 -19c32 0 59.833 6.33301 83.5 19
s46.167 30.667 67.5 54l47 -51c-26 -30 -55.333 -53.333 -88 -70s-70 -25 -112 -25c-41.333 0 -79.5 7.66699 -114.5 23s-65.333 37.5 -91 66.5s-45.667 64.667 -60 107s-21.5 90.166 -21.5 143.499zM323.999 3.00098l53.001 0.000976562l-25 -53
c16 -5.33301 29.833 -13.333 41.5 -24s17.5 -26.334 17.5 -47.001c0 -14.667 -4 -27.334 -12 -38.001s-18.667 -19.667 -32 -27s-28.833 -13.166 -46.5 -17.499s-35.834 -7.5 -54.501 -9.5l-8 41c26.667 3.33301 48.167 8.83301 64.5 16.5s24.5 18.167 24.5 31.5
s-5.5 23.5 -16.5 30.5s-26.5 13.167 -46.5 18.5z" />
    <glyph glyph-name="Egrave" unicode="&#xc8;" horiz-adv-x="527" 
d="M90 656h378v-70h-295v-206h249v-71h-249v-238h305v-71h-388v656zM153 818h94l88 -112h-69z" />
    <glyph glyph-name="Eacute" unicode="&#xc9;" horiz-adv-x="527" 
d="M90 656h378v-70h-295v-206h249v-71h-249v-238h305v-71h-388v656zM302 706h-69l88 112h94z" />
    <glyph glyph-name="Ecircumflex" unicode="&#xca;" horiz-adv-x="527" 
d="M90 656h378v-70h-295v-206h249v-71h-249v-238h305v-71h-388v656zM148 706l96 112h80l96 -112h-67l-67 68h-4l-67 -68h-67z" />
    <glyph glyph-name="Edieresis" unicode="&#xcb;" horiz-adv-x="527" 
d="M90 656h378v-70h-295v-206h249v-71h-249v-238h305v-71h-388v656zM198 715c-14.667 0 -26.5 4.66699 -35.5 14s-13.5 21 -13.5 35c0 14.667 4.5 26.5 13.5 35.5s20.833 13.5 35.5 13.5c14 0 25.667 -4.5 35 -13.5s14 -20.833 14 -35.5c0 -14 -4.66699 -25.667 -14 -35
s-21 -14 -35 -14zM370 715c-14 0 -25.667 4.66699 -35 14s-14 21 -14 35c0 14.667 4.66699 26.5 14 35.5s21 13.5 35 13.5c14.667 0 26.5 -4.5 35.5 -13.5s13.5 -20.833 13.5 -35.5c0 -14 -4.5 -25.667 -13.5 -35s-20.833 -14 -35.5 -14z" />
    <glyph glyph-name="Igrave" unicode="&#xcc;" horiz-adv-x="263" 
d="M90 656h83v-656h-83v656zM0 818h94l88 -112h-69z" />
    <glyph glyph-name="Iacute" unicode="&#xcd;" horiz-adv-x="263" 
d="M90 656h83v-656h-83v656zM149 706h-69l88 112h94z" />
    <glyph glyph-name="Icircumflex" unicode="&#xce;" horiz-adv-x="263" 
d="M90 656h83v-656h-83v656zM-5 706l96 112h80l96 -112h-67l-67 68h-4l-67 -68h-67z" />
    <glyph glyph-name="Idieresis" unicode="&#xcf;" horiz-adv-x="263" 
d="M90 656h83v-656h-83v656zM45 715c-14.667 0 -26.5 4.66699 -35.5 14s-13.5 21 -13.5 35c0 14.667 4.5 26.5 13.5 35.5s20.833 13.5 35.5 13.5c14 0 25.667 -4.5 35 -13.5s14 -20.833 14 -35.5c0 -14 -4.66699 -25.667 -14 -35s-21 -14 -35 -14zM217 715
c-14 0 -25.667 4.66699 -35 14s-14 21 -14 35c0 14.667 4.66699 26.5 14 35.5s21 13.5 35 13.5c14.667 0 26.5 -4.5 35.5 -13.5s13.5 -20.833 13.5 -35.5c0 -14 -4.5 -25.667 -13.5 -35s-20.833 -14 -35.5 -14z" />
    <glyph glyph-name="Eth" unicode="&#xd0;" horiz-adv-x="638" 
d="M270 68c76.667 0 134.167 23 172.5 69s57.5 110.667 57.5 194s-19.167 147 -57.5 191s-95.833 66 -172.5 66h-75v-220h149v-47h-149v-253h75zM276 656c101.333 0 178.333 -28 231 -84s79 -136.333 79 -241c0 -52 -6.66699 -98.5 -20 -139.5s-33 -75.667 -59 -104
s-58 -50 -96 -65s-81.667 -22.5 -131 -22.5h-168v321h-79v43l79 4v288h164z" />
    <glyph glyph-name="Ntilde" unicode="&#xd1;" horiz-adv-x="647" 
d="M90 656l86 -0.00195312l237 -412l71 -136h4l-6.5 103.5c-2.33301 35.667 -3.5 70.834 -3.5 105.501v339h79v-656h-86l-238 413l-71 135h-4c2.66699 -33.333 5.16699 -67.166 7.5 -101.499s3.5 -68.833 3.5 -103.5v-343h-79v656zM386 710.998
c-13.333 0 -25.333 2.66895 -36 8.00195s-20.5 11.333 -29.5 18s-17.833 12.667 -26.5 18s-17.667 8 -27 8s-17.666 -4.33301 -24.999 -13s-12.333 -21.667 -15 -39h-46c3.33301 31.333 12.333 57.166 27 77.499s34 30.5 58 30.5c13.333 0 25.333 -2.66699 36 -8
s20.5 -11.333 29.5 -18s17.833 -12.667 26.5 -18s17.667 -8 27 -8s17.666 4.5 24.999 13.5s12.333 21.833 15 38.5h46c-3.33301 -30.667 -12.333 -56.334 -27 -77.001s-34 -31 -58 -31z" />
    <glyph glyph-name="Ograve" unicode="&#xd2;" horiz-adv-x="664" 
d="M332 -12c-41.333 0 -79.166 7.99902 -113.499 23.999s-63.833 38.833 -88.5 68.5s-43.834 65.667 -57.501 108s-20.5 89.833 -20.5 142.5s6.83301 99.834 20.5 141.501s32.834 77 57.501 106s54.167 51.167 88.5 66.5s72.166 23 113.499 23
s79.166 -7.83301 113.499 -23.5s64 -38 89 -67s44.333 -64.333 58 -106s20.5 -88.5 20.5 -140.5c0 -52.667 -6.83301 -100.167 -20.5 -142.5s-33 -78.333 -58 -108s-54.667 -52.5 -89 -68.5s-72.166 -24 -113.499 -24zM332 60.999c29.333 0 55.833 6.33301 79.5 19
s44 30.834 61 54.501s30.167 52 39.5 85s14 70.167 14 111.5c0 40.667 -4.66699 77.334 -14 110.001s-22.5 60.334 -39.5 83.001s-37.333 40.167 -61 52.5s-50.167 18.5 -79.5 18.5s-55.833 -6.16699 -79.5 -18.5s-44 -29.833 -61 -52.5s-30.167 -50.334 -39.5 -83.001
s-14 -69.334 -14 -110.001c0 -41.333 4.66699 -78.5 14 -111.5s22.5 -61.333 39.5 -85s37.333 -41.834 61 -54.501s50.167 -19 79.5 -19zM201 817.999h94l88 -112h-69z" />
    <glyph glyph-name="Oacute" unicode="&#xd3;" horiz-adv-x="664" 
d="M332 -12c-41.333 0 -79.166 7.99902 -113.499 23.999s-63.833 38.833 -88.5 68.5s-43.834 65.667 -57.501 108s-20.5 89.833 -20.5 142.5s6.83301 99.834 20.5 141.501s32.834 77 57.501 106s54.167 51.167 88.5 66.5s72.166 23 113.499 23
s79.166 -7.83301 113.499 -23.5s64 -38 89 -67s44.333 -64.333 58 -106s20.5 -88.5 20.5 -140.5c0 -52.667 -6.83301 -100.167 -20.5 -142.5s-33 -78.333 -58 -108s-54.667 -52.5 -89 -68.5s-72.166 -24 -113.499 -24zM332 60.999c29.333 0 55.833 6.33301 79.5 19
s44 30.834 61 54.501s30.167 52 39.5 85s14 70.167 14 111.5c0 40.667 -4.66699 77.334 -14 110.001s-22.5 60.334 -39.5 83.001s-37.333 40.167 -61 52.5s-50.167 18.5 -79.5 18.5s-55.833 -6.16699 -79.5 -18.5s-44 -29.833 -61 -52.5s-30.167 -50.334 -39.5 -83.001
s-14 -69.334 -14 -110.001c0 -41.333 4.66699 -78.5 14 -111.5s22.5 -61.333 39.5 -85s37.333 -41.834 61 -54.501s50.167 -19 79.5 -19zM350 705.999h-69l88 112h94z" />
    <glyph glyph-name="Ocircumflex" unicode="&#xd4;" horiz-adv-x="664" 
d="M332 -12c-41.333 0 -79.166 7.99902 -113.499 23.999s-63.833 38.833 -88.5 68.5s-43.834 65.667 -57.501 108s-20.5 89.833 -20.5 142.5s6.83301 99.834 20.5 141.501s32.834 77 57.501 106s54.167 51.167 88.5 66.5s72.166 23 113.499 23
s79.166 -7.83301 113.499 -23.5s64 -38 89 -67s44.333 -64.333 58 -106s20.5 -88.5 20.5 -140.5c0 -52.667 -6.83301 -100.167 -20.5 -142.5s-33 -78.333 -58 -108s-54.667 -52.5 -89 -68.5s-72.166 -24 -113.499 -24zM332 60.999c29.333 0 55.833 6.33301 79.5 19
s44 30.834 61 54.501s30.167 52 39.5 85s14 70.167 14 111.5c0 40.667 -4.66699 77.334 -14 110.001s-22.5 60.334 -39.5 83.001s-37.333 40.167 -61 52.5s-50.167 18.5 -79.5 18.5s-55.833 -6.16699 -79.5 -18.5s-44 -29.833 -61 -52.5s-30.167 -50.334 -39.5 -83.001
s-14 -69.334 -14 -110.001c0 -41.333 4.66699 -78.5 14 -111.5s22.5 -61.333 39.5 -85s37.333 -41.834 61 -54.501s50.167 -19 79.5 -19zM196 705.999l96 112h80l96 -112h-67l-67 68h-4l-67 -68h-67z" />
    <glyph glyph-name="Otilde" unicode="&#xd5;" horiz-adv-x="664" 
d="M332 -12c-41.333 0 -79.166 7.99902 -113.499 23.999s-63.833 38.833 -88.5 68.5s-43.834 65.667 -57.501 108s-20.5 89.833 -20.5 142.5s6.83301 99.834 20.5 141.501s32.834 77 57.501 106s54.167 51.167 88.5 66.5s72.166 23 113.499 23
s79.166 -7.83301 113.499 -23.5s64 -38 89 -67s44.333 -64.333 58 -106s20.5 -88.5 20.5 -140.5c0 -52.667 -6.83301 -100.167 -20.5 -142.5s-33 -78.333 -58 -108s-54.667 -52.5 -89 -68.5s-72.166 -24 -113.499 -24zM332 60.999c29.333 0 55.833 6.33301 79.5 19
s44 30.834 61 54.501s30.167 52 39.5 85s14 70.167 14 111.5c0 40.667 -4.66699 77.334 -14 110.001s-22.5 60.334 -39.5 83.001s-37.333 40.167 -61 52.5s-50.167 18.5 -79.5 18.5s-55.833 -6.16699 -79.5 -18.5s-44 -29.833 -61 -52.5s-30.167 -50.334 -39.5 -83.001
s-14 -69.334 -14 -110.001c0 -41.333 4.66699 -78.5 14 -111.5s22.5 -61.333 39.5 -85s37.333 -41.834 61 -54.501s50.167 -19 79.5 -19zM392 710.999c-13.333 0 -25.333 2.66895 -36 8.00195s-20.5 11.333 -29.5 18s-17.833 12.667 -26.5 18s-17.667 8 -27 8
s-17.666 -4.33301 -24.999 -13s-12.333 -21.667 -15 -39h-46c3.33301 31.333 12.333 57.166 27 77.499s34 30.5 58 30.5c13.333 0 25.333 -2.66699 36 -8s20.5 -11.333 29.5 -18s17.833 -12.667 26.5 -18s17.667 -8 27 -8s17.666 4.5 24.999 13.5s12.333 21.833 15 38.5h46
c-3.33301 -30.667 -12.333 -56.334 -27 -77.001s-34 -31 -58 -31z" />
    <glyph glyph-name="Odieresis" unicode="&#xd6;" horiz-adv-x="664" 
d="M332 -12c-41.333 0 -79.166 7.99902 -113.499 23.999s-63.833 38.833 -88.5 68.5s-43.834 65.667 -57.501 108s-20.5 89.833 -20.5 142.5s6.83301 99.834 20.5 141.501s32.834 77 57.501 106s54.167 51.167 88.5 66.5s72.166 23 113.499 23
s79.166 -7.83301 113.499 -23.5s64 -38 89 -67s44.333 -64.333 58 -106s20.5 -88.5 20.5 -140.5c0 -52.667 -6.83301 -100.167 -20.5 -142.5s-33 -78.333 -58 -108s-54.667 -52.5 -89 -68.5s-72.166 -24 -113.499 -24zM332 60.999c29.333 0 55.833 6.33301 79.5 19
s44 30.834 61 54.501s30.167 52 39.5 85s14 70.167 14 111.5c0 40.667 -4.66699 77.334 -14 110.001s-22.5 60.334 -39.5 83.001s-37.333 40.167 -61 52.5s-50.167 18.5 -79.5 18.5s-55.833 -6.16699 -79.5 -18.5s-44 -29.833 -61 -52.5s-30.167 -50.334 -39.5 -83.001
s-14 -69.334 -14 -110.001c0 -41.333 4.66699 -78.5 14 -111.5s22.5 -61.333 39.5 -85s37.333 -41.834 61 -54.501s50.167 -19 79.5 -19zM246 714.999c-14.667 0 -26.5 4.66699 -35.5 14s-13.5 21 -13.5 35c0 14.667 4.5 26.5 13.5 35.5s20.833 13.5 35.5 13.5
c14 0 25.667 -4.5 35 -13.5s14 -20.833 14 -35.5c0 -14 -4.66699 -25.667 -14 -35s-21 -14 -35 -14zM418 714.999c-14 0 -25.667 4.66699 -35 14s-14 21 -14 35c0 14.667 4.66699 26.5 14 35.5s21 13.5 35 13.5c14.667 0 26.5 -4.5 35.5 -13.5s13.5 -20.833 13.5 -35.5
c0 -14 -4.5 -25.667 -13.5 -35s-20.833 -14 -35.5 -14z" />
    <glyph glyph-name="multiply" unicode="&#xd7;" horiz-adv-x="497" 
d="M50 171l155 159l-155 158l44 45l155 -159l154 159l44 -45l-155 -158l155 -159l-44 -45l-154 160l-155 -160z" />
    <glyph glyph-name="Oslash" unicode="&#xd8;" horiz-adv-x="664" 
d="M208 116c16.667 -17.333 35.6689 -30.834 57.002 -40.501s44.666 -14.5 69.999 -14.5c29.333 0 55.833 6.33301 79.5 19s44 30.834 61 54.501s30.167 52 39.5 85s14 70.167 14 111.5c0 32 -2.83301 61.333 -8.5 88s-13.834 50.667 -24.501 72zM462.002 540.999
c-34 36 -76.333 54.002 -127 54.002c-29.333 0 -56 -6.16699 -80 -18.5s-44.5 -29.833 -61.5 -52.5s-30.167 -50.334 -39.5 -83.001s-14 -69.334 -14 -110.001c0 -64 11.333 -118.667 34 -164zM550.002 561.001c20.667 -28.667 36.6689 -62.167 48.002 -100.5
s17 -81.5 17 -129.5c0 -52.667 -6.83301 -100.167 -20.5 -142.5s-33 -78.333 -58 -108s-54.667 -52.5 -89 -68.5s-71.833 -24 -112.5 -24c-34.667 0 -66.834 5.5 -96.501 16.5s-56.167 27.167 -79.5 48.5l-63 -83l-46 36l70 91
c-21.333 29.333 -37.666 63.666 -48.999 102.999s-17 83 -17 131c0 52.667 6.83301 99.834 20.5 141.501s33 77 58 106s54.667 51.167 89 66.5s72.166 23 113.499 23c69.333 0 127.666 -21 174.999 -63l63 81l46 -35z" />
    <glyph glyph-name="Ugrave" unicode="&#xd9;" horiz-adv-x="645" 
d="M87 656h82.999v-387c0 -39.333 4 -72.333 12 -99s18.833 -48 32.5 -64s29.834 -27.5 48.501 -34.5s38.667 -10.5 60 -10.5c22 0 42.333 3.5 61 10.5s35 18.5 49 34.5s25 37.333 33 64s12 59.667 12 99v387h80v-385c0 -52.667 -6 -97 -18 -133s-28.5 -65.167 -49.5 -87.5
s-45.833 -38.333 -74.5 -48s-59.667 -14.5 -93 -14.5s-64.5 4.83301 -93.5 14.5s-54 25.667 -75 48s-37.5 51.5 -49.5 87.5s-18 80.333 -18 133v385zM190.999 818h94l88 -112h-69z" />
    <glyph glyph-name="Uacute" unicode="&#xda;" horiz-adv-x="645" 
d="M87 656h82.999v-387c0 -39.333 4 -72.333 12 -99s18.833 -48 32.5 -64s29.834 -27.5 48.501 -34.5s38.667 -10.5 60 -10.5c22 0 42.333 3.5 61 10.5s35 18.5 49 34.5s25 37.333 33 64s12 59.667 12 99v387h80v-385c0 -52.667 -6 -97 -18 -133s-28.5 -65.167 -49.5 -87.5
s-45.833 -38.333 -74.5 -48s-59.667 -14.5 -93 -14.5s-64.5 4.83301 -93.5 14.5s-54 25.667 -75 48s-37.5 51.5 -49.5 87.5s-18 80.333 -18 133v385zM339.999 706h-69l88 112h94z" />
    <glyph glyph-name="Ucircumflex" unicode="&#xdb;" horiz-adv-x="645" 
d="M87 656h82.999v-387c0 -39.333 4 -72.333 12 -99s18.833 -48 32.5 -64s29.834 -27.5 48.501 -34.5s38.667 -10.5 60 -10.5c22 0 42.333 3.5 61 10.5s35 18.5 49 34.5s25 37.333 33 64s12 59.667 12 99v387h80v-385c0 -52.667 -6 -97 -18 -133s-28.5 -65.167 -49.5 -87.5
s-45.833 -38.333 -74.5 -48s-59.667 -14.5 -93 -14.5s-64.5 4.83301 -93.5 14.5s-54 25.667 -75 48s-37.5 51.5 -49.5 87.5s-18 80.333 -18 133v385zM185.999 706l96 112h80l96 -112h-67l-67 68h-4l-67 -68h-67z" />
    <glyph glyph-name="Udieresis" unicode="&#xdc;" horiz-adv-x="645" 
d="M87 656h82.999v-387c0 -39.333 4 -72.333 12 -99s18.833 -48 32.5 -64s29.834 -27.5 48.501 -34.5s38.667 -10.5 60 -10.5c22 0 42.333 3.5 61 10.5s35 18.5 49 34.5s25 37.333 33 64s12 59.667 12 99v387h80v-385c0 -52.667 -6 -97 -18 -133s-28.5 -65.167 -49.5 -87.5
s-45.833 -38.333 -74.5 -48s-59.667 -14.5 -93 -14.5s-64.5 4.83301 -93.5 14.5s-54 25.667 -75 48s-37.5 51.5 -49.5 87.5s-18 80.333 -18 133v385zM235.999 715c-14.667 0 -26.5 4.66699 -35.5 14s-13.5 21 -13.5 35c0 14.667 4.5 26.5 13.5 35.5s20.833 13.5 35.5 13.5
c14 0 25.667 -4.5 35 -13.5s14 -20.833 14 -35.5c0 -14 -4.66699 -25.667 -14 -35s-21 -14 -35 -14zM407.999 715c-14 0 -25.667 4.66699 -35 14s-14 21 -14 35c0 14.667 4.66699 26.5 14 35.5s21 13.5 35 13.5c14.667 0 26.5 -4.5 35.5 -13.5s13.5 -20.833 13.5 -35.5
c0 -14 -4.5 -25.667 -13.5 -35s-20.833 -14 -35.5 -14z" />
    <glyph glyph-name="Yacute" unicode="&#xdd;" horiz-adv-x="476" 
d="M196 254l-197 402h89l85 -185l31 -71l32 -72h4l34 72c11.333 23.333 22 47 32 71l84 185h87l-197 -402v-254h-84v254zM256 706h-69l88 112h94z" />
    <glyph glyph-name="Thorn" unicode="&#xde;" horiz-adv-x="583" 
d="M90 656l83 0.000976562v-110h118c36 0 69 -3.33301 99 -10s55.5 -17.667 76.5 -33s37.333 -35.166 49 -59.499s17.5 -54.5 17.5 -90.5c0 -34.667 -5.83301 -64.834 -17.5 -90.501s-28.167 -46.834 -49.5 -63.501s-46.833 -29 -76.5 -37s-62.5 -12 -98.5 -12h-118v-150
h-83v656zM281 218.001c57.333 0 99.833 10.668 127.5 32.001s41.5 55.666 41.5 102.999s-14 80 -42 98s-70.333 27 -127 27h-108v-260h108z" />
    <glyph glyph-name="germandbls" unicode="&#xdf;" horiz-adv-x="576" 
d="M82 515c0 62.667 17.002 112.838 51.002 150.505s82.333 56.5 145 56.5c26 0 49.167 -3.83301 69.5 -11.5s37.5 -18.167 51.5 -31.5s24.5 -28.833 31.5 -46.5s10.5 -36.5 10.5 -56.5c0 -25.333 -4.66699 -46.833 -14 -64.5s-19.833 -33.834 -31.5 -48.501
s-22.167 -28.834 -31.5 -42.501s-14 -29.167 -14 -46.5c0 -16 4.83301 -29.333 14.5 -40s21.834 -20.167 36.501 -28.5s30.5 -16.833 47.5 -25.5s32.833 -19 47.5 -31s26.834 -27 36.501 -45s14.5 -40.333 14.5 -67c0 -21.333 -3.66699 -41 -11 -59s-18 -33.667 -32 -47
s-30.833 -23.833 -50.5 -31.5s-41.834 -11.5 -66.501 -11.5c-28 0 -53.333 4.33301 -76 13s-44.334 20.667 -65.001 36l33 58c17.333 -14.667 34.5 -25.5 51.5 -32.5s35.167 -10.5 54.5 -10.5c28 0 49 8 63 24s21 34.667 21 56c0 19.333 -4.83301 35.333 -14.5 48
s-21.834 23.667 -36.501 33s-30.5 18.166 -47.5 26.499s-32.833 17.833 -47.5 28.5s-26.834 23.5 -36.501 38.5s-14.5 34.167 -14.5 57.5c0 22.667 4.5 42 13.5 58s19 31.333 30 46s21.167 29.667 30.5 45s14 33.666 14 54.999c0 25.333 -6.83301 46.166 -20.5 62.499
s-34.5 24.5 -62.5 24.5c-36 0 -63.833 -12.833 -83.5 -38.5s-29.5 -64.5 -29.5 -116.5v-500h-82v515z" />
    <glyph glyph-name="agrave" unicode="&#xe0;" horiz-adv-x="512" 
d="M58 126c0 53.333 23.832 94.167 71.499 122.5s123.5 48.166 227.5 59.499c0 15.333 -1.5 30.333 -4.5 45s-8.33301 27.667 -16 39s-17.834 20.5 -30.501 27.5s-29 10.5 -49 10.5c-28.667 0 -55.167 -5.33301 -79.5 -16s-46.166 -22.667 -65.499 -36l-33 57
c22.667 14.667 50.334 28.834 83.001 42.501s68.667 20.5 108 20.5c59.333 0 102.333 -18.167 129 -54.5s40 -84.833 40 -145.5v-298h-68l-7 58h-2c-23.333 -19.333 -48.5 -35.833 -75.5 -49.5s-55.5 -20.5 -85.5 -20.5c-41.333 0 -75.5 12 -102.5 36s-40.5 58 -40.5 102z
M138.999 132.001c0 -28 8.16699 -48.001 24.5 -60.001s36.5 -18 60.5 -18c23.333 0 45.5 5.5 66.5 16.5s43.167 27.167 66.5 48.5v135c-40.667 -5.33301 -75 -11.666 -103 -18.999s-50.5 -16 -67.5 -26s-29.167 -21.5 -36.5 -34.5s-11 -27.167 -11 -42.5zM157.999 714h86
l90 -141h-63z" />
    <glyph glyph-name="aacute" unicode="&#xe1;" horiz-adv-x="512" 
d="M58 126c0 53.333 23.832 94.167 71.499 122.5s123.5 48.166 227.5 59.499c0 15.333 -1.5 30.333 -4.5 45s-8.33301 27.667 -16 39s-17.834 20.5 -30.501 27.5s-29 10.5 -49 10.5c-28.667 0 -55.167 -5.33301 -79.5 -16s-46.166 -22.667 -65.499 -36l-33 57
c22.667 14.667 50.334 28.834 83.001 42.501s68.667 20.5 108 20.5c59.333 0 102.333 -18.167 129 -54.5s40 -84.833 40 -145.5v-298h-68l-7 58h-2c-23.333 -19.333 -48.5 -35.833 -75.5 -49.5s-55.5 -20.5 -85.5 -20.5c-41.333 0 -75.5 12 -102.5 36s-40.5 58 -40.5 102z
M138.999 132.001c0 -28 8.16699 -48.001 24.5 -60.001s36.5 -18 60.5 -18c23.333 0 45.5 5.5 66.5 16.5s43.167 27.167 66.5 48.5v135c-40.667 -5.33301 -75 -11.666 -103 -18.999s-50.5 -16 -67.5 -26s-29.167 -21.5 -36.5 -34.5s-11 -27.167 -11 -42.5zM266.999 573h-63
l90 141h86z" />
    <glyph glyph-name="acircumflex" unicode="&#xe2;" horiz-adv-x="512" 
d="M58 126c0 53.333 23.832 94.167 71.499 122.5s123.5 48.166 227.5 59.499c0 15.333 -1.5 30.333 -4.5 45s-8.33301 27.667 -16 39s-17.834 20.5 -30.501 27.5s-29 10.5 -49 10.5c-28.667 0 -55.167 -5.33301 -79.5 -16s-46.166 -22.667 -65.499 -36l-33 57
c22.667 14.667 50.334 28.834 83.001 42.501s68.667 20.5 108 20.5c59.333 0 102.333 -18.167 129 -54.5s40 -84.833 40 -145.5v-298h-68l-7 58h-2c-23.333 -19.333 -48.5 -35.833 -75.5 -49.5s-55.5 -20.5 -85.5 -20.5c-41.333 0 -75.5 12 -102.5 36s-40.5 58 -40.5 102z
M138.999 132.001c0 -28 8.16699 -48.001 24.5 -60.001s36.5 -18 60.5 -18c23.333 0 45.5 5.5 66.5 16.5s43.167 27.167 66.5 48.5v135c-40.667 -5.33301 -75 -11.666 -103 -18.999s-50.5 -16 -67.5 -26s-29.167 -21.5 -36.5 -34.5s-11 -27.167 -11 -42.5zM234.999 714h68
l95 -141h-60l-67 91h-4l-67 -91h-60z" />
    <glyph glyph-name="atilde" unicode="&#xe3;" horiz-adv-x="512" 
d="M58 126c0 53.333 23.832 94.167 71.499 122.5s123.5 48.166 227.5 59.499c0 15.333 -1.5 30.333 -4.5 45s-8.33301 27.667 -16 39s-17.834 20.5 -30.501 27.5s-29 10.5 -49 10.5c-28.667 0 -55.167 -5.33301 -79.5 -16s-46.166 -22.667 -65.499 -36l-33 57
c22.667 14.667 50.334 28.834 83.001 42.501s68.667 20.5 108 20.5c59.333 0 102.333 -18.167 129 -54.5s40 -84.833 40 -145.5v-298h-68l-7 58h-2c-23.333 -19.333 -48.5 -35.833 -75.5 -49.5s-55.5 -20.5 -85.5 -20.5c-41.333 0 -75.5 12 -102.5 36s-40.5 58 -40.5 102z
M138.999 132.001c0 -28 8.16699 -48.001 24.5 -60.001s36.5 -18 60.5 -18c23.333 0 45.5 5.5 66.5 16.5s43.167 27.167 66.5 48.5v135c-40.667 -5.33301 -75 -11.666 -103 -18.999s-50.5 -16 -67.5 -26s-29.167 -21.5 -36.5 -34.5s-11 -27.167 -11 -42.5zM129.999 579
c2.66699 30 10.666 55.167 23.999 75.5s32.333 30.5 57 30.5c12.667 0 24.334 -2.66699 35.001 -8s20.5 -11.166 29.5 -17.499l25.5 -17.5c8 -5.33301 16 -8 24 -8c18.667 0 31 17 37 51h46c-2.66699 -30 -10.667 -55.167 -24 -75.5s-32.333 -30.5 -57 -30.5
c-12.667 0 -24.167 2.66699 -34.5 8s-20 11.166 -29 17.499l-25.5 17.5c-8 5.33301 -16.333 8 -25 8c-18.667 0 -31 -17 -37 -51h-46v0z" />
    <glyph glyph-name="adieresis" unicode="&#xe4;" horiz-adv-x="512" 
d="M58 126c0 53.333 23.832 94.167 71.499 122.5s123.5 48.166 227.5 59.499c0 15.333 -1.5 30.333 -4.5 45s-8.33301 27.667 -16 39s-17.834 20.5 -30.501 27.5s-29 10.5 -49 10.5c-28.667 0 -55.167 -5.33301 -79.5 -16s-46.166 -22.667 -65.499 -36l-33 57
c22.667 14.667 50.334 28.834 83.001 42.501s68.667 20.5 108 20.5c59.333 0 102.333 -18.167 129 -54.5s40 -84.833 40 -145.5v-298h-68l-7 58h-2c-23.333 -19.333 -48.5 -35.833 -75.5 -49.5s-55.5 -20.5 -85.5 -20.5c-41.333 0 -75.5 12 -102.5 36s-40.5 58 -40.5 102z
M138.999 132.001c0 -28 8.16699 -48.001 24.5 -60.001s36.5 -18 60.5 -18c23.333 0 45.5 5.5 66.5 16.5s43.167 27.167 66.5 48.5v135c-40.667 -5.33301 -75 -11.666 -103 -18.999s-50.5 -16 -67.5 -26s-29.167 -21.5 -36.5 -34.5s-11 -27.167 -11 -42.5zM182.999 588
c-14.667 0 -26.5 4.66699 -35.5 14s-13.5 21 -13.5 35s4.5 25.667 13.5 35s20.833 14 35.5 14c14 0 25.667 -4.66699 35 -14s14 -21 14 -35s-4.66699 -25.667 -14 -35s-21 -14 -35 -14zM354.999 588c-14 0 -25.667 4.66699 -35 14s-14 21 -14 35s4.66699 25.667 14 35
s21 14 35 14c14.667 0 26.5 -4.66699 35.5 -14s13.5 -21 13.5 -35s-4.5 -25.667 -13.5 -35s-20.833 -14 -35.5 -14z" />
    <glyph glyph-name="aring" unicode="&#xe5;" horiz-adv-x="512" 
d="M58 126c0 53.333 23.832 94.167 71.499 122.5s123.5 48.166 227.5 59.499c0 15.333 -1.5 30.333 -4.5 45s-8.33301 27.667 -16 39s-17.834 20.5 -30.501 27.5s-29 10.5 -49 10.5c-28.667 0 -55.167 -5.33301 -79.5 -16s-46.166 -22.667 -65.499 -36l-33 57
c22.667 14.667 50.334 28.834 83.001 42.501s68.667 20.5 108 20.5c59.333 0 102.333 -18.167 129 -54.5s40 -84.833 40 -145.5v-298h-68l-7 58h-2c-23.333 -19.333 -48.5 -35.833 -75.5 -49.5s-55.5 -20.5 -85.5 -20.5c-41.333 0 -75.5 12 -102.5 36s-40.5 58 -40.5 102z
M138.999 132.001c0 -28 8.16699 -48.001 24.5 -60.001s36.5 -18 60.5 -18c23.333 0 45.5 5.5 66.5 16.5s43.167 27.167 66.5 48.5v135c-40.667 -5.33301 -75 -11.666 -103 -18.999s-50.5 -16 -67.5 -26s-29.167 -21.5 -36.5 -34.5s-11 -27.167 -11 -42.5zM268.999 542
c-27.333 0 -49.666 8.5 -66.999 25.5s-26 39.5 -26 67.5s8.66699 50.333 26 67s39.666 25 66.999 25s49.666 -8.33301 66.999 -25s26 -39 26 -67s-8.66699 -50.5 -26 -67.5s-39.666 -25.5 -66.999 -25.5zM268.999 579c13.333 0 24.666 5 33.999 15s14 23.667 14 41
c0 16.667 -4.66699 30 -14 40s-20.666 15 -33.999 15s-24.666 -5 -33.999 -15s-14 -23.333 -14 -40c0 -17.333 4.66699 -31 14 -41s20.666 -15 33.999 -15z" />
    <glyph glyph-name="ae" unicode="&#xe6;" horiz-adv-x="785" 
d="M139 132c0 -28 8.16504 -48.0029 24.498 -60.0029s36.5 -18 60.5 -18c22.667 0 47.334 6.5 74.001 19.5s51 31.5 73 55.5c-5.33301 12.667 -9.66602 27.834 -12.999 45.501s-5.33301 35.834 -6 54.501v25c-38.667 -5.33301 -71.5 -11.666 -98.5 -18.999s-49 -16 -66 -26
s-29.333 -21.5 -37 -34.5s-11.5 -27.167 -11.5 -42.5zM78.998 434.997c22.667 14.667 50.002 28.8359 82.002 42.5029s66 20.5 102 20.5s65.667 -9.16699 89 -27.5s40 -43.5 50 -75.5c19.333 32 42.5 57.167 69.5 75.5s57.167 27.5 90.5 27.5c30 0 56.5 -5.33301 79.5 -16
s42.333 -26 58 -46s27.5 -44.167 35.5 -72.5s12 -59.833 12 -94.5c0 -18.667 -1 -34 -3 -46h-315c0.666992 -25.333 5.16699 -48.333 13.5 -69s19.166 -38.334 32.499 -53.001s29 -26 47 -34s37.333 -12 58 -12c23.333 0 44.333 3.83301 63 11.5s37 17.167 55 28.5l30 -57
c-21.333 -13.333 -44.666 -25 -69.999 -35s-54.666 -15 -87.999 -15c-40.667 0 -74.667 9.16699 -102 27.5s-50.333 39.5 -69 63.5c-33.333 -30 -66.833 -52.667 -100.5 -68s-66.167 -23 -97.5 -23c-41.333 0 -75.5 12 -102.5 36s-40.5 58 -40.5 102
c0 53.333 23.667 94.166 71 122.499s121.666 48.166 222.999 59.499c0 15.333 -1.33301 30.333 -4 45s-7.83398 27.667 -15.501 39s-17.834 20.5 -30.501 27.5s-29 10.5 -49 10.5c-26.667 0 -52 -5.33301 -76 -16s-45.667 -22.667 -65 -36zM675 277.999
c0 50 -9.83301 88.333 -29.5 115s-48.167 40 -85.5 40c-34 0 -63.167 -13.833 -87.5 -41.5s-38.833 -65.5 -43.5 -113.5h246z" />
    <glyph glyph-name="ccedilla" unicode="&#xe7;" horiz-adv-x="456" 
d="M46 242c0 40.667 6.33594 76.8311 19.0029 108.498s29.667 58.5 51 80.5s46.166 38.667 74.499 50s58.166 17 89.499 17c32 0 59.5 -5.83301 82.5 -17.5s42.833 -25.167 59.5 -40.5l-41 -53c-14.667 12.667 -29.834 23 -45.501 31s-33.167 12 -52.5 12
c-22 0 -42.333 -4.5 -61 -13.5s-34.667 -21.833 -48 -38.5s-23.833 -36.5 -31.5 -59.5s-11.5 -48.5 -11.5 -76.5s3.66699 -53.333 11 -76s17.5 -42.167 30.5 -58.5s28.833 -29 47.5 -38s39 -13.5 61 -13.5c23.333 0 44.5 4.83301 63.5 14.5s35.833 21.167 50.5 34.5l37 -54
c-22 -19.333 -46.5 -34.666 -73.5 -45.999s-55.167 -17 -84.5 -17c-32 0 -62 5.66699 -90 17s-52.167 27.833 -72.5 49.5s-36.333 48.334 -48 80.001s-17.5 67.5 -17.5 107.5zM253.003 2.99707l53.001 0.000976562l-25 -53c16 -5.33301 29.833 -13.333 41.5 -24
s17.5 -26.334 17.5 -47.001c0 -14.667 -4 -27.334 -12 -38.001s-18.667 -19.667 -32 -27s-28.833 -13.166 -46.5 -17.499s-35.834 -7.5 -54.501 -9.5l-8 41c26.667 3.33301 48.167 8.83301 64.5 16.5s24.5 18.167 24.5 31.5s-5.5 23.5 -16.5 30.5s-26.5 13.167 -46.5 18.5z
" />
    <glyph glyph-name="egrave" unicode="&#xe8;" horiz-adv-x="496" 
d="M46 242c0 40 6.16895 75.833 18.502 107.5s28.666 58.5 48.999 80.5s43.5 38.833 69.5 50.5s53 17.5 81 17.5c30.667 0 58.167 -5.33301 82.5 -16s44.666 -26 60.999 -46s28.833 -44 37.5 -72s13 -59.333 13 -94c0 -18 -1 -33 -3 -45h-328
c3.33301 -52.667 19.5 -94.334 48.5 -125.001s66.833 -46 113.5 -46c23.333 0 44.833 3.5 64.5 10.5s38.5 16.167 56.5 27.5l29 -54c-21.333 -13.333 -45 -25 -71 -35s-55.667 -15 -89 -15c-32.667 0 -63.167 5.83301 -91.5 17.5s-53 28.334 -74 50.001
s-37.5 48.167 -49.5 79.5s-18 67 -18 107zM386.002 279c0 50 -10.499 88.167 -31.499 114.5s-50.5 39.5 -88.5 39.5c-17.333 0 -33.833 -3.5 -49.5 -10.5s-29.834 -17 -42.501 -30s-23.167 -29 -31.5 -48s-13.833 -40.833 -16.5 -65.5h260zM154.003 714h86l90 -141h-63z" />
    <glyph glyph-name="eacute" unicode="&#xe9;" horiz-adv-x="496" 
d="M46 242c0 40 6.16895 75.833 18.502 107.5s28.666 58.5 48.999 80.5s43.5 38.833 69.5 50.5s53 17.5 81 17.5c30.667 0 58.167 -5.33301 82.5 -16s44.666 -26 60.999 -46s28.833 -44 37.5 -72s13 -59.333 13 -94c0 -18 -1 -33 -3 -45h-328
c3.33301 -52.667 19.5 -94.334 48.5 -125.001s66.833 -46 113.5 -46c23.333 0 44.833 3.5 64.5 10.5s38.5 16.167 56.5 27.5l29 -54c-21.333 -13.333 -45 -25 -71 -35s-55.667 -15 -89 -15c-32.667 0 -63.167 5.83301 -91.5 17.5s-53 28.334 -74 50.001
s-37.5 48.167 -49.5 79.5s-18 67 -18 107zM386.002 279c0 50 -10.499 88.167 -31.499 114.5s-50.5 39.5 -88.5 39.5c-17.333 0 -33.833 -3.5 -49.5 -10.5s-29.834 -17 -42.501 -30s-23.167 -29 -31.5 -48s-13.833 -40.833 -16.5 -65.5h260zM263.003 573h-63l90 141h86z" />
    <glyph glyph-name="ecircumflex" unicode="&#xea;" horiz-adv-x="496" 
d="M46 242c0 40 6.16895 75.833 18.502 107.5s28.666 58.5 48.999 80.5s43.5 38.833 69.5 50.5s53 17.5 81 17.5c30.667 0 58.167 -5.33301 82.5 -16s44.666 -26 60.999 -46s28.833 -44 37.5 -72s13 -59.333 13 -94c0 -18 -1 -33 -3 -45h-328
c3.33301 -52.667 19.5 -94.334 48.5 -125.001s66.833 -46 113.5 -46c23.333 0 44.833 3.5 64.5 10.5s38.5 16.167 56.5 27.5l29 -54c-21.333 -13.333 -45 -25 -71 -35s-55.667 -15 -89 -15c-32.667 0 -63.167 5.83301 -91.5 17.5s-53 28.334 -74 50.001
s-37.5 48.167 -49.5 79.5s-18 67 -18 107zM386.002 279c0 50 -10.499 88.167 -31.499 114.5s-50.5 39.5 -88.5 39.5c-17.333 0 -33.833 -3.5 -49.5 -10.5s-29.834 -17 -42.501 -30s-23.167 -29 -31.5 -48s-13.833 -40.833 -16.5 -65.5h260zM231.003 714h68l95 -141h-60
l-67 91h-4l-67 -91h-60z" />
    <glyph glyph-name="edieresis" unicode="&#xeb;" horiz-adv-x="496" 
d="M46 242c0 40 6.16895 75.833 18.502 107.5s28.666 58.5 48.999 80.5s43.5 38.833 69.5 50.5s53 17.5 81 17.5c30.667 0 58.167 -5.33301 82.5 -16s44.666 -26 60.999 -46s28.833 -44 37.5 -72s13 -59.333 13 -94c0 -18 -1 -33 -3 -45h-328
c3.33301 -52.667 19.5 -94.334 48.5 -125.001s66.833 -46 113.5 -46c23.333 0 44.833 3.5 64.5 10.5s38.5 16.167 56.5 27.5l29 -54c-21.333 -13.333 -45 -25 -71 -35s-55.667 -15 -89 -15c-32.667 0 -63.167 5.83301 -91.5 17.5s-53 28.334 -74 50.001
s-37.5 48.167 -49.5 79.5s-18 67 -18 107zM386.002 279c0 50 -10.499 88.167 -31.499 114.5s-50.5 39.5 -88.5 39.5c-17.333 0 -33.833 -3.5 -49.5 -10.5s-29.834 -17 -42.501 -30s-23.167 -29 -31.5 -48s-13.833 -40.833 -16.5 -65.5h260zM179.003 588
c-14.667 0 -26.5 4.66699 -35.5 14s-13.5 21 -13.5 35s4.5 25.667 13.5 35s20.833 14 35.5 14c14 0 25.667 -4.66699 35 -14s14 -21 14 -35s-4.66699 -25.667 -14 -35s-21 -14 -35 -14zM351.003 588c-14 0 -25.667 4.66699 -35 14s-14 21 -14 35s4.66699 25.667 14 35
s21 14 35 14c14.667 0 26.5 -4.66699 35.5 -14s13.5 -21 13.5 -35s-4.5 -25.667 -13.5 -35s-20.833 -14 -35.5 -14z" />
    <glyph glyph-name="igrave" unicode="&#xec;" horiz-adv-x="246" 
d="M82 486h82v-486h-82v486zM12 714h86l90 -141h-63z" />
    <glyph glyph-name="iacute" unicode="&#xed;" horiz-adv-x="246" 
d="M82 486h82v-486h-82v486zM121 573h-63l90 141h86z" />
    <glyph glyph-name="icircumflex" unicode="&#xee;" horiz-adv-x="246" 
d="M82 486h82v-486h-82v486zM89 714h68l95 -141h-60l-67 91h-4l-67 -91h-60z" />
    <glyph glyph-name="idieresis" unicode="&#xef;" horiz-adv-x="246" 
d="M82 486h82v-486h-82v486zM37 588c-14.667 0 -26.5 4.66699 -35.5 14s-13.5 21 -13.5 35s4.5 25.667 13.5 35s20.833 14 35.5 14c14 0 25.667 -4.66699 35 -14s14 -21 14 -35s-4.66699 -25.667 -14 -35s-21 -14 -35 -14zM209 588c-14 0 -25.667 4.66699 -35 14
s-14 21 -14 35s4.66699 25.667 14 35s21 14 35 14c14.667 0 26.5 -4.66699 35.5 -14s13.5 -21 13.5 -35s-4.5 -25.667 -13.5 -35s-20.833 -14 -35.5 -14z" />
    <glyph glyph-name="eth" unicode="&#xf0;" horiz-adv-x="545" 
d="M271 56c22.667 0 42.333 4.83594 59 14.5029s30.667 23.167 42 40.5s19.833 38.166 25.5 62.499s8.5 51.166 8.5 80.499c0 9.33301 -0.166992 18.666 -0.5 27.999s-0.833008 18.333 -1.5 27c-22 29.333 -44 49 -66 59s-44.333 15 -67 15c-22 0 -41.667 -4 -59 -12
s-32 -19.333 -44 -34s-21.167 -31.834 -27.5 -51.501s-9.5 -40.834 -9.5 -63.501c0 -25.333 3.66699 -48.166 11 -68.499s17.5 -37.666 30.5 -51.999s27.833 -25.5 44.5 -33.5s34.667 -12 54 -12zM348.999 605.003c40 -40.667 72.668 -89.001 98.001 -145.001
s38 -123.667 38 -203c0 -40 -5.16699 -76.5 -15.5 -109.5s-25 -61.333 -44 -85s-41.667 -42 -68 -55s-55.833 -19.5 -88.5 -19.5c-28 0 -55 5.33301 -81 16s-49 26.167 -69 46.5s-36 45 -48 74s-18 61.5 -18 97.5c0 34 5.33301 64.833 16 92.5s25.167 51.334 43.5 71.001
s40 34.834 65 45.501s52.167 16 81.5 16c25.333 0 49.666 -5.33301 72.999 -16s43.666 -27.334 60.999 -50.001c-9.33301 41.333 -23.166 77.333 -41.499 108s-40.166 58.667 -65.499 84l-141 -73l-24 41l127 65c-34.667 26.667 -72 50.667 -112 72l38 52
c24 -13.333 47.667 -27.333 71 -42s45.666 -31 66.999 -49l142 73l24 -41z" />
    <glyph glyph-name="ntilde" unicode="&#xf1;" horiz-adv-x="547" 
d="M82 486l67.999 0.000976562l7 -70h3c23.333 23.333 47.833 42.833 73.5 58.5s55.5 23.5 89.5 23.5c51.333 0 88.833 -16 112.5 -48s35.5 -79.333 35.5 -142v-308h-82v297c0 46 -7.33301 79.167 -22 99.5s-38 30.5 -70 30.5c-25.333 0 -47.666 -6.33301 -66.999 -19
s-41.333 -31.334 -66 -56.001v-352h-82v486zM152.999 579.001c2.66699 30 10.666 55.167 23.999 75.5s32.333 30.5 57 30.5c12.667 0 24.334 -2.66699 35.001 -8s20.5 -11.166 29.5 -17.499l25.5 -17.5c8 -5.33301 16 -8 24 -8c18.667 0 31 17 37 51h46
c-2.66699 -30 -10.667 -55.167 -24 -75.5s-32.333 -30.5 -57 -30.5c-12.667 0 -24.167 2.66699 -34.5 8s-20 11.166 -29 17.499l-25.5 17.5c-8 5.33301 -16.333 8 -25 8c-18.667 0 -31 -17 -37 -51h-46v0z" />
    <glyph glyph-name="ograve" unicode="&#xf2;" horiz-adv-x="542" 
d="M46 242c0 40.667 6.16699 76.834 18.5 108.501s28.833 58.5 49.5 80.5s44.5 38.667 71.5 50s55.5 17 85.5 17s58.5 -5.66699 85.5 -17s50.833 -28 71.5 -50s37.167 -48.833 49.5 -80.5s18.5 -67.834 18.5 -108.501c0 -40 -6.16699 -75.833 -18.5 -107.5
s-28.833 -58.334 -49.5 -80.001s-44.5 -38.167 -71.5 -49.5s-55.5 -17 -85.5 -17s-58.5 5.66699 -85.5 17s-50.833 27.833 -71.5 49.5s-37.167 48.334 -49.5 80.001s-18.5 67.5 -18.5 107.5zM131 242c0 -28 3.33301 -53.333 10 -76s16.167 -42.167 28.5 -58.5
s27.166 -29 44.499 -38s36.333 -13.5 57 -13.5s39.667 4.5 57 13.5s32.166 21.667 44.499 38s21.833 35.833 28.5 58.5s10 48 10 76s-3.33301 53.5 -10 76.5s-16.167 42.833 -28.5 59.5s-27.166 29.5 -44.499 38.5s-36.333 13.5 -57 13.5s-39.667 -4.5 -57 -13.5
s-32.166 -21.833 -44.499 -38.5s-21.833 -36.5 -28.5 -59.5s-10 -48.5 -10 -76.5zM160 714h86l90 -141h-63z" />
    <glyph glyph-name="oacute" unicode="&#xf3;" horiz-adv-x="542" 
d="M46 242c0 40.667 6.16699 76.834 18.5 108.501s28.833 58.5 49.5 80.5s44.5 38.667 71.5 50s55.5 17 85.5 17s58.5 -5.66699 85.5 -17s50.833 -28 71.5 -50s37.167 -48.833 49.5 -80.5s18.5 -67.834 18.5 -108.501c0 -40 -6.16699 -75.833 -18.5 -107.5
s-28.833 -58.334 -49.5 -80.001s-44.5 -38.167 -71.5 -49.5s-55.5 -17 -85.5 -17s-58.5 5.66699 -85.5 17s-50.833 27.833 -71.5 49.5s-37.167 48.334 -49.5 80.001s-18.5 67.5 -18.5 107.5zM131 242c0 -28 3.33301 -53.333 10 -76s16.167 -42.167 28.5 -58.5
s27.166 -29 44.499 -38s36.333 -13.5 57 -13.5s39.667 4.5 57 13.5s32.166 21.667 44.499 38s21.833 35.833 28.5 58.5s10 48 10 76s-3.33301 53.5 -10 76.5s-16.167 42.833 -28.5 59.5s-27.166 29.5 -44.499 38.5s-36.333 13.5 -57 13.5s-39.667 -4.5 -57 -13.5
s-32.166 -21.833 -44.499 -38.5s-21.833 -36.5 -28.5 -59.5s-10 -48.5 -10 -76.5zM269 573h-63l90 141h86z" />
    <glyph glyph-name="ocircumflex" unicode="&#xf4;" horiz-adv-x="542" 
d="M46 242c0 40.667 6.16699 76.834 18.5 108.501s28.833 58.5 49.5 80.5s44.5 38.667 71.5 50s55.5 17 85.5 17s58.5 -5.66699 85.5 -17s50.833 -28 71.5 -50s37.167 -48.833 49.5 -80.5s18.5 -67.834 18.5 -108.501c0 -40 -6.16699 -75.833 -18.5 -107.5
s-28.833 -58.334 -49.5 -80.001s-44.5 -38.167 -71.5 -49.5s-55.5 -17 -85.5 -17s-58.5 5.66699 -85.5 17s-50.833 27.833 -71.5 49.5s-37.167 48.334 -49.5 80.001s-18.5 67.5 -18.5 107.5zM131 242c0 -28 3.33301 -53.333 10 -76s16.167 -42.167 28.5 -58.5
s27.166 -29 44.499 -38s36.333 -13.5 57 -13.5s39.667 4.5 57 13.5s32.166 21.667 44.499 38s21.833 35.833 28.5 58.5s10 48 10 76s-3.33301 53.5 -10 76.5s-16.167 42.833 -28.5 59.5s-27.166 29.5 -44.499 38.5s-36.333 13.5 -57 13.5s-39.667 -4.5 -57 -13.5
s-32.166 -21.833 -44.499 -38.5s-21.833 -36.5 -28.5 -59.5s-10 -48.5 -10 -76.5zM237 714h68l95 -141h-60l-67 91h-4l-67 -91h-60z" />
    <glyph glyph-name="otilde" unicode="&#xf5;" horiz-adv-x="542" 
d="M46 242c0 40.667 6.16699 76.834 18.5 108.501s28.833 58.5 49.5 80.5s44.5 38.667 71.5 50s55.5 17 85.5 17s58.5 -5.66699 85.5 -17s50.833 -28 71.5 -50s37.167 -48.833 49.5 -80.5s18.5 -67.834 18.5 -108.501c0 -40 -6.16699 -75.833 -18.5 -107.5
s-28.833 -58.334 -49.5 -80.001s-44.5 -38.167 -71.5 -49.5s-55.5 -17 -85.5 -17s-58.5 5.66699 -85.5 17s-50.833 27.833 -71.5 49.5s-37.167 48.334 -49.5 80.001s-18.5 67.5 -18.5 107.5zM131 242c0 -28 3.33301 -53.333 10 -76s16.167 -42.167 28.5 -58.5
s27.166 -29 44.499 -38s36.333 -13.5 57 -13.5s39.667 4.5 57 13.5s32.166 21.667 44.499 38s21.833 35.833 28.5 58.5s10 48 10 76s-3.33301 53.5 -10 76.5s-16.167 42.833 -28.5 59.5s-27.166 29.5 -44.499 38.5s-36.333 13.5 -57 13.5s-39.667 -4.5 -57 -13.5
s-32.166 -21.833 -44.499 -38.5s-21.833 -36.5 -28.5 -59.5s-10 -48.5 -10 -76.5zM132 579c2.66699 30 10.666 55.167 23.999 75.5s32.333 30.5 57 30.5c12.667 0 24.334 -2.66699 35.001 -8s20.5 -11.166 29.5 -17.499l25.5 -17.5c8 -5.33301 16 -8 24 -8
c18.667 0 31 17 37 51h46c-2.66699 -30 -10.667 -55.167 -24 -75.5s-32.333 -30.5 -57 -30.5c-12.667 0 -24.167 2.66699 -34.5 8s-20 11.166 -29 17.499l-25.5 17.5c-8 5.33301 -16.333 8 -25 8c-18.667 0 -31 -17 -37 -51h-46v0z" />
    <glyph glyph-name="odieresis" unicode="&#xf6;" horiz-adv-x="542" 
d="M46 242c0 40.667 6.16699 76.834 18.5 108.501s28.833 58.5 49.5 80.5s44.5 38.667 71.5 50s55.5 17 85.5 17s58.5 -5.66699 85.5 -17s50.833 -28 71.5 -50s37.167 -48.833 49.5 -80.5s18.5 -67.834 18.5 -108.501c0 -40 -6.16699 -75.833 -18.5 -107.5
s-28.833 -58.334 -49.5 -80.001s-44.5 -38.167 -71.5 -49.5s-55.5 -17 -85.5 -17s-58.5 5.66699 -85.5 17s-50.833 27.833 -71.5 49.5s-37.167 48.334 -49.5 80.001s-18.5 67.5 -18.5 107.5zM131 242c0 -28 3.33301 -53.333 10 -76s16.167 -42.167 28.5 -58.5
s27.166 -29 44.499 -38s36.333 -13.5 57 -13.5s39.667 4.5 57 13.5s32.166 21.667 44.499 38s21.833 35.833 28.5 58.5s10 48 10 76s-3.33301 53.5 -10 76.5s-16.167 42.833 -28.5 59.5s-27.166 29.5 -44.499 38.5s-36.333 13.5 -57 13.5s-39.667 -4.5 -57 -13.5
s-32.166 -21.833 -44.499 -38.5s-21.833 -36.5 -28.5 -59.5s-10 -48.5 -10 -76.5zM185 588c-14.667 0 -26.5 4.66699 -35.5 14s-13.5 21 -13.5 35s4.5 25.667 13.5 35s20.833 14 35.5 14c14 0 25.667 -4.66699 35 -14s14 -21 14 -35s-4.66699 -25.667 -14 -35
s-21 -14 -35 -14zM357 588c-14 0 -25.667 4.66699 -35 14s-14 21 -14 35s4.66699 25.667 14 35s21 14 35 14c14.667 0 26.5 -4.66699 35.5 -14s13.5 -21 13.5 -35s-4.5 -25.667 -13.5 -35s-20.833 -14 -35.5 -14z" />
    <glyph glyph-name="divide" unicode="&#xf7;" horiz-adv-x="497" 
d="M249 456c-15.333 0 -28.333 5 -39 15s-16 23 -16 39c0 15.333 5.33301 28 16 38s23.667 15 39 15s28.166 -5 38.499 -15s15.5 -22.667 15.5 -38c0 -16 -5.16699 -29 -15.5 -39s-23.166 -15 -38.499 -15zM194 150c0 15.333 5.33301 28 16 38s23.667 15 39 15
s28.166 -5 38.499 -15s15.5 -22.667 15.5 -38c0 -16 -5.16699 -29 -15.5 -39s-23.166 -15 -38.499 -15s-28.333 5 -39 15s-16 23 -16 39zM34 361h429v-62h-429v62z" />
    <glyph glyph-name="oslash" unicode="&#xf8;" horiz-adv-x="542" 
d="M178 93c26 -26 56.999 -39 92.999 -39c20.667 0 39.834 4.5 57.501 13.5s33 21.667 46 38s23 35.833 30 58.5s10.5 47.667 10.5 75c0 44.667 -8 82.667 -24 114zM363.999 392c-24.667 26.667 -55.665 40.001 -92.998 40.001c-20.667 0 -39.834 -4.5 -57.501 -13.5
s-32.834 -21.667 -45.501 -38s-22.667 -36 -30 -59s-11 -48.167 -11 -75.5c0 -44.667 7.66699 -82.334 23 -113.001zM442.001 415.001c16.667 -21.333 29.834 -46.499 39.501 -75.499s14.5 -61.5 14.5 -97.5c0 -40 -6.16699 -75.833 -18.5 -107.5
s-28.833 -58.334 -49.5 -80.001s-44.5 -38.167 -71.5 -49.5s-55.5 -17 -85.5 -17c-52.667 0 -99 16.333 -139 49l-49 -60l-37 29l54 65c-16.667 21.333 -29.834 46.166 -39.501 74.499s-14.5 60.5 -14.5 96.5c0 40.667 6.16699 76.834 18.5 108.501s28.833 58.5 49.5 80.5
s44.5 38.667 71.5 50s55.5 17 85.5 17c25.333 0 50 -4.16699 74 -12.5s45.667 -20.833 65 -37.5l50 61l36 -29z" />
    <glyph glyph-name="ugrave" unicode="&#xf9;" horiz-adv-x="544" 
d="M75 486h83.002v-297c0 -46 7.16699 -79.167 21.5 -99.5s37.5 -30.5 69.5 -30.5c25.333 0 47.666 6.5 66.999 19.5s40.666 33.833 63.999 62.5v345h82v-486h-68l-7 76h-3c-22.667 -26.667 -46.5 -48 -71.5 -64s-54.5 -24 -88.5 -24c-52 0 -89.833 16 -113.5 48
s-35.5 79.333 -35.5 142v308zM161.002 714h86l90 -141h-63z" />
    <glyph glyph-name="uacute" unicode="&#xfa;" horiz-adv-x="544" 
d="M75 486h83.002v-297c0 -46 7.16699 -79.167 21.5 -99.5s37.5 -30.5 69.5 -30.5c25.333 0 47.666 6.5 66.999 19.5s40.666 33.833 63.999 62.5v345h82v-486h-68l-7 76h-3c-22.667 -26.667 -46.5 -48 -71.5 -64s-54.5 -24 -88.5 -24c-52 0 -89.833 16 -113.5 48
s-35.5 79.333 -35.5 142v308zM270.002 573h-63l90 141h86z" />
    <glyph glyph-name="ucircumflex" unicode="&#xfb;" horiz-adv-x="544" 
d="M75 486h83.002v-297c0 -46 7.16699 -79.167 21.5 -99.5s37.5 -30.5 69.5 -30.5c25.333 0 47.666 6.5 66.999 19.5s40.666 33.833 63.999 62.5v345h82v-486h-68l-7 76h-3c-22.667 -26.667 -46.5 -48 -71.5 -64s-54.5 -24 -88.5 -24c-52 0 -89.833 16 -113.5 48
s-35.5 79.333 -35.5 142v308zM238.002 714h68l95 -141h-60l-67 91h-4l-67 -91h-60z" />
    <glyph glyph-name="udieresis" unicode="&#xfc;" horiz-adv-x="544" 
d="M75 486h83.002v-297c0 -46 7.16699 -79.167 21.5 -99.5s37.5 -30.5 69.5 -30.5c25.333 0 47.666 6.5 66.999 19.5s40.666 33.833 63.999 62.5v345h82v-486h-68l-7 76h-3c-22.667 -26.667 -46.5 -48 -71.5 -64s-54.5 -24 -88.5 -24c-52 0 -89.833 16 -113.5 48
s-35.5 79.333 -35.5 142v308zM186.002 588c-14.667 0 -26.5 4.66699 -35.5 14s-13.5 21 -13.5 35s4.5 25.667 13.5 35s20.833 14 35.5 14c14 0 25.667 -4.66699 35 -14s14 -21 14 -35s-4.66699 -25.667 -14 -35s-21 -14 -35 -14zM358.002 588c-14 0 -25.667 4.66699 -35 14
s-14 21 -14 35s4.66699 25.667 14 35s21 14 35 14c14.667 0 26.5 -4.66699 35.5 -14s13.5 -21 13.5 -35s-4.5 -25.667 -13.5 -35s-20.833 -14 -35.5 -14z" />
    <glyph glyph-name="yacute" unicode="&#xfd;" horiz-adv-x="467" 
d="M49 -134l18.002 -4.5c6.66699 -1.66699 13 -2.5 19 -2.5c28 0 50.833 9.83301 68.5 29.5s31.5 44.5 41.5 74.5l11 36l-195 487h85l99 -269l23.5 -67.5l23.5 -69.5h4c7.33301 22 14.333 45 21 69s13.334 46.667 20.001 68l87 269h80l-183 -526
c-8.66699 -24 -18.334 -46.333 -29.001 -67s-23.334 -38.5 -38.001 -53.5s-31.334 -26.833 -50.001 -35.5s-40.334 -13 -65.001 -13c-11.333 0 -21.666 0.833008 -30.999 2.5s-18 4.16699 -26 7.5l16 65v0zM240.002 573h-63l90 141h86z" />
    <glyph glyph-name="thorn" unicode="&#xfe;" horiz-adv-x="555" 
d="M164 -205l-82.001 0.00292969v917h82v-194l-1 -83c21.333 17.333 44.666 32.166 69.999 44.499s51.333 18.5 78 18.5c32 0 60.167 -5.83301 84.5 -17.5s44.833 -28.334 61.5 -50.001s29.167 -47.667 37.5 -78s12.5 -64.5 12.5 -102.5
c0 -41.333 -5.66699 -78.166 -17 -110.499s-26.666 -59.833 -45.999 -82.5s-41.666 -39.834 -66.999 -51.501s-52 -17.5 -80 -17.5c-23.333 0 -46 4.66699 -68 14s-44 22.666 -66 39.999l1 -83v-164zM163.999 108.003c22 -18.667 43.332 -31.835 63.999 -39.502
s39 -11.5 55 -11.5c20 0 38.5 4.5 55.5 13.5s31.667 21.667 44 38s22 36.5 29 60.5s10.5 51 10.5 81c0 26.667 -2.33301 51 -7 73s-12.167 40.833 -22.5 56.5s-23.666 27.834 -39.999 36.501s-35.833 13 -58.5 13c-20.667 0 -41.5 -5.66699 -62.5 -17
s-43.5 -27.666 -67.5 -48.999v-255z" />
    <glyph glyph-name="ydieresis" unicode="&#xff;" horiz-adv-x="467" 
d="M49 -134l18.002 -4.5c6.66699 -1.66699 13 -2.5 19 -2.5c28 0 50.833 9.83301 68.5 29.5s31.5 44.5 41.5 74.5l11 36l-195 487h85l99 -269l23.5 -67.5l23.5 -69.5h4c7.33301 22 14.333 45 21 69s13.334 46.667 20.001 68l87 269h80l-183 -526
c-8.66699 -24 -18.334 -46.333 -29.001 -67s-23.334 -38.5 -38.001 -53.5s-31.334 -26.833 -50.001 -35.5s-40.334 -13 -65.001 -13c-11.333 0 -21.666 0.833008 -30.999 2.5s-18 4.16699 -26 7.5l16 65v0zM156.002 588c-14.667 0 -26.5 4.66699 -35.5 14s-13.5 21 -13.5 35
s4.5 25.667 13.5 35s20.833 14 35.5 14c14 0 25.667 -4.66699 35 -14s14 -21 14 -35s-4.66699 -25.667 -14 -35s-21 -14 -35 -14zM328.002 588c-14 0 -25.667 4.66699 -35 14s-14 21 -14 35s4.66699 25.667 14 35s21 14 35 14c14.667 0 26.5 -4.66699 35.5 -14
s13.5 -21 13.5 -35s-4.5 -25.667 -13.5 -35s-20.833 -14 -35.5 -14z" />
    <glyph glyph-name="Amacron" unicode="&#x100;" horiz-adv-x="544" 
d="M369 267l-31 100c-12 36.667 -23.333 73.167 -34 109.5l-32 111.5h-4c-10 -38 -20.333 -75.167 -31 -111.5s-22 -72.833 -34 -109.5l-31 -100h197zM390 200h-239l-63 -200h-85l222 656h94l222 -656h-89zM147 786h248v-57h-248v57z" />
    <glyph glyph-name="amacron" unicode="&#x101;" horiz-adv-x="512" 
d="M58 126c0 53.333 23.832 94.167 71.499 122.5s123.5 48.166 227.5 59.499c0 15.333 -1.5 30.333 -4.5 45s-8.33301 27.667 -16 39s-17.834 20.5 -30.501 27.5s-29 10.5 -49 10.5c-28.667 0 -55.167 -5.33301 -79.5 -16s-46.166 -22.667 -65.499 -36l-33 57
c22.667 14.667 50.334 28.834 83.001 42.501s68.667 20.5 108 20.5c59.333 0 102.333 -18.167 129 -54.5s40 -84.833 40 -145.5v-298h-68l-7 58h-2c-23.333 -19.333 -48.5 -35.833 -75.5 -49.5s-55.5 -20.5 -85.5 -20.5c-41.333 0 -75.5 12 -102.5 36s-40.5 58 -40.5 102z
M138.999 132.001c0 -28 8.16699 -48.001 24.5 -60.001s36.5 -18 60.5 -18c23.333 0 45.5 5.5 66.5 16.5s43.167 27.167 66.5 48.5v135c-40.667 -5.33301 -75 -11.666 -103 -18.999s-50.5 -16 -67.5 -26s-29.167 -21.5 -36.5 -34.5s-11 -27.167 -11 -42.5zM145.999 658h246
v-57h-246v57z" />
    <glyph glyph-name="Abreve" unicode="&#x102;" horiz-adv-x="544" 
d="M369 267l-31 100c-12 36.667 -23.333 73.167 -34 109.5l-32 111.5h-4c-10 -38 -20.333 -75.167 -31 -111.5s-22 -72.833 -34 -109.5l-31 -100h197zM390 200h-239l-63 -200h-85l222 656h94l222 -656h-89zM271 708c-20 0 -37.3311 3.16699 -51.998 9.5s-27 14.5 -37 24.5
s-17.667 21.667 -23 35s-9 27 -11 41h50c3.33301 -16 10.666 -30.5 21.999 -43.5s28.333 -19.5 51 -19.5s39.667 6.5 51 19.5s18.666 27.5 21.999 43.5h50c-2 -14 -5.66699 -27.667 -11 -41s-13 -25 -23 -35s-22.333 -18.167 -37 -24.5s-32 -9.5 -52 -9.5z" />
    <glyph glyph-name="abreve" unicode="&#x103;" horiz-adv-x="512" 
d="M58 126c0 53.333 23.832 94.167 71.499 122.5s123.5 48.166 227.5 59.499c0 15.333 -1.5 30.333 -4.5 45s-8.33301 27.667 -16 39s-17.834 20.5 -30.501 27.5s-29 10.5 -49 10.5c-28.667 0 -55.167 -5.33301 -79.5 -16s-46.166 -22.667 -65.499 -36l-33 57
c22.667 14.667 50.334 28.834 83.001 42.501s68.667 20.5 108 20.5c59.333 0 102.333 -18.167 129 -54.5s40 -84.833 40 -145.5v-298h-68l-7 58h-2c-23.333 -19.333 -48.5 -35.833 -75.5 -49.5s-55.5 -20.5 -85.5 -20.5c-41.333 0 -75.5 12 -102.5 36s-40.5 58 -40.5 102z
M138.999 132.001c0 -28 8.16699 -48.001 24.5 -60.001s36.5 -18 60.5 -18c23.333 0 45.5 5.5 66.5 16.5s43.167 27.167 66.5 48.5v135c-40.667 -5.33301 -75 -11.666 -103 -18.999s-50.5 -16 -67.5 -26s-29.167 -21.5 -36.5 -34.5s-11 -27.167 -11 -42.5zM268.999 575
c-21.333 0 -39.833 3.83301 -55.5 11.5s-28.5 17.667 -38.5 30s-17.667 26 -23 41s-8.33301 29.833 -9 44.5h51c2.66699 -19.333 10 -36.833 22 -52.5s29.667 -23.5 53 -23.5s41 7.83301 53 23.5s19.333 33.167 22 52.5h51c-1.33301 -14.667 -4.5 -29.5 -9.5 -44.5
s-12.5 -28.667 -22.5 -41s-22.833 -22.333 -38.5 -30s-34.167 -11.5 -55.5 -11.5z" />
    <glyph glyph-name="Aogonek" unicode="&#x104;" horiz-adv-x="544" 
d="M369 267l-31 100c-12 36.667 -23.333 73.167 -34 109.5l-32 111.5h-4c-10 -38 -20.333 -75.167 -31 -111.5s-22 -72.833 -34 -109.5l-31 -100h197zM572 -184c-10 -7.33301 -22.5 -13.835 -37.5 -19.502s-29.167 -8.5 -42.5 -8.5c-26.667 0 -49.334 7.33301 -68.001 22
s-28 36.334 -28 65.001c0 13.333 2.33301 26.333 7 39s10.667 24.334 18 35.001s15.333 20.334 24 29.001s17.334 16 26.001 22h-19l-62 200h-239l-63 -200h-85l222 656h94l222 -656c-23.333 -9.33301 -42.5 -24.333 -57.5 -45s-22.5 -41.334 -22.5 -62.001
c0 -15.333 4.66699 -26.833 14 -34.5s20 -11.5 32 -11.5c15.333 0 29.333 4.66699 42 14z" />
    <glyph glyph-name="aogonek" unicode="&#x105;" horiz-adv-x="512" 
d="M139 132c0 -28 8.16699 -48.001 24.5 -60.001s36.5 -18 60.5 -18c23.333 0 45.5 5.5 66.5 16.5s43.167 27.167 66.5 48.5v135c-40.667 -5.33301 -75 -11.666 -103 -18.999s-50.5 -16 -67.5 -26s-29.167 -21.5 -36.5 -34.5s-11 -27.167 -11 -42.5zM58 125.999
c0 53.333 23.8301 94.167 71.4971 122.5s123.5 48.166 227.5 59.499c0 15.333 -1.5 30.333 -4.5 45s-8.33301 27.667 -16 39s-17.834 20.5 -30.501 27.5s-29 10.5 -49 10.5c-28.667 0 -55.167 -5.33301 -79.5 -16s-46.166 -22.667 -65.499 -36l-33 57
c22.667 14.667 50.334 28.834 83.001 42.501s68.667 20.5 108 20.5c59.333 0 102.333 -18.167 129 -54.5s40 -84.833 40 -145.5v-298c-28 -11.333 -49.5 -26.833 -64.5 -46.5s-22.5 -39.167 -22.5 -58.5c0 -15.333 4.83301 -26.833 14.5 -34.5s20.5 -11.5 32.5 -11.5
c8 0 15.167 1.16699 21.5 3.5s12.5 5.5 18.5 9.5l21 -41c-9.33301 -7.33301 -21.5 -13.666 -36.5 -18.999s-28.833 -8 -41.5 -8c-25.333 0 -46.666 7.16699 -63.999 21.5s-26 35.5 -26 63.5c0 13.333 2.33301 26.166 7 38.499s10.834 23.833 18.501 34.5
s16.167 20.5 25.5 29.5s19 16.5 29 22.5l-8 54h-2c-23.333 -19.333 -48.5 -35.833 -75.5 -49.5s-55.5 -20.5 -85.5 -20.5c-41.333 0 -75.5 12 -102.5 36s-40.5 58 -40.5 102z" />
    <glyph glyph-name="Cacute" unicode="&#x106;" horiz-adv-x="571" 
d="M52 328c0 52.667 7.33203 100.001 21.999 142.001s35 77.667 61 107s56.833 51.833 92.5 67.5s74.5 23.5 116.5 23.5c40 0 75 -8.16699 105 -24.5s54.667 -35.166 74 -56.499l-47 -53c-17.333 18.667 -36.5 33.5 -57.5 44.5s-45.5 16.5 -73.5 16.5
c-31.333 0 -59.666 -6.16699 -84.999 -18.5s-47 -30 -65 -53s-32 -50.833 -42 -83.5s-15 -69.334 -15 -110.001c0 -41.333 4.83301 -78.5 14.5 -111.5s23.167 -61.167 40.5 -84.5s38.5 -41.333 63.5 -54s53.167 -19 84.5 -19c32 0 59.833 6.33301 83.5 19
s46.167 30.667 67.5 54l47 -51c-26 -30 -55.333 -53.333 -88 -70s-70 -25 -112 -25c-41.333 0 -79.5 7.66699 -114.5 23s-65.333 37.5 -91 66.5s-45.667 64.667 -60 107s-21.5 90.166 -21.5 143.499zM347.999 706.001h-69l88 112h94z" />
    <glyph glyph-name="cacute" unicode="&#x107;" horiz-adv-x="456" 
d="M46 242c0 40.667 6.33594 76.8311 19.0029 108.498s29.667 58.5 51 80.5s46.166 38.667 74.499 50s58.166 17 89.499 17c32 0 59.5 -5.83301 82.5 -17.5s42.833 -25.167 59.5 -40.5l-41 -53c-14.667 12.667 -29.834 23 -45.501 31s-33.167 12 -52.5 12
c-22 0 -42.333 -4.5 -61 -13.5s-34.667 -21.833 -48 -38.5s-23.833 -36.5 -31.5 -59.5s-11.5 -48.5 -11.5 -76.5s3.66699 -53.333 11 -76s17.5 -42.167 30.5 -58.5s28.833 -29 47.5 -38s39 -13.5 61 -13.5c23.333 0 44.5 4.83301 63.5 14.5s35.833 21.167 50.5 34.5l37 -54
c-22 -19.333 -46.5 -34.666 -73.5 -45.999s-55.167 -17 -84.5 -17c-32 0 -62 5.66699 -90 17s-52.167 27.833 -72.5 49.5s-36.333 48.334 -48 80.001s-17.5 67.5 -17.5 107.5zM277.003 572.997h-63l90 141h86z" />
    <glyph glyph-name="Ccircumflex" unicode="&#x108;" horiz-adv-x="571" 
d="M52 328c0 52.667 7.33203 100.001 21.999 142.001s35 77.667 61 107s56.833 51.833 92.5 67.5s74.5 23.5 116.5 23.5c40 0 75 -8.16699 105 -24.5s54.667 -35.166 74 -56.499l-47 -53c-17.333 18.667 -36.5 33.5 -57.5 44.5s-45.5 16.5 -73.5 16.5
c-31.333 0 -59.666 -6.16699 -84.999 -18.5s-47 -30 -65 -53s-32 -50.833 -42 -83.5s-15 -69.334 -15 -110.001c0 -41.333 4.83301 -78.5 14.5 -111.5s23.167 -61.167 40.5 -84.5s38.5 -41.333 63.5 -54s53.167 -19 84.5 -19c32 0 59.833 6.33301 83.5 19
s46.167 30.667 67.5 54l47 -51c-26 -30 -55.333 -53.333 -88 -70s-70 -25 -112 -25c-41.333 0 -79.5 7.66699 -114.5 23s-65.333 37.5 -91 66.5s-45.667 64.667 -60 107s-21.5 90.166 -21.5 143.499zM193.999 706.001l96 112h80l96 -112h-67l-67 68h-4l-67 -68h-67z" />
    <glyph glyph-name="ccircumflex" unicode="&#x109;" horiz-adv-x="456" 
d="M46 242c0 40.667 6.33594 76.8311 19.0029 108.498s29.667 58.5 51 80.5s46.166 38.667 74.499 50s58.166 17 89.499 17c32 0 59.5 -5.83301 82.5 -17.5s42.833 -25.167 59.5 -40.5l-41 -53c-14.667 12.667 -29.834 23 -45.501 31s-33.167 12 -52.5 12
c-22 0 -42.333 -4.5 -61 -13.5s-34.667 -21.833 -48 -38.5s-23.833 -36.5 -31.5 -59.5s-11.5 -48.5 -11.5 -76.5s3.66699 -53.333 11 -76s17.5 -42.167 30.5 -58.5s28.833 -29 47.5 -38s39 -13.5 61 -13.5c23.333 0 44.5 4.83301 63.5 14.5s35.833 21.167 50.5 34.5l37 -54
c-22 -19.333 -46.5 -34.666 -73.5 -45.999s-55.167 -17 -84.5 -17c-32 0 -62 5.66699 -90 17s-52.167 27.833 -72.5 49.5s-36.333 48.334 -48 80.001s-17.5 67.5 -17.5 107.5zM245.003 713.997h68l95 -141h-60l-67 91h-4l-67 -91h-60z" />
    <glyph glyph-name="Cdotaccent" unicode="&#x10a;" horiz-adv-x="571" 
d="M52 328c0 52.667 7.33203 100.001 21.999 142.001s35 77.667 61 107s56.833 51.833 92.5 67.5s74.5 23.5 116.5 23.5c40 0 75 -8.16699 105 -24.5s54.667 -35.166 74 -56.499l-47 -53c-17.333 18.667 -36.5 33.5 -57.5 44.5s-45.5 16.5 -73.5 16.5
c-31.333 0 -59.666 -6.16699 -84.999 -18.5s-47 -30 -65 -53s-32 -50.833 -42 -83.5s-15 -69.334 -15 -110.001c0 -41.333 4.83301 -78.5 14.5 -111.5s23.167 -61.167 40.5 -84.5s38.5 -41.333 63.5 -54s53.167 -19 84.5 -19c32 0 59.833 6.33301 83.5 19
s46.167 30.667 67.5 54l47 -51c-26 -30 -55.333 -53.333 -88 -70s-70 -25 -112 -25c-41.333 0 -79.5 7.66699 -114.5 23s-65.333 37.5 -91 66.5s-45.667 64.667 -60 107s-21.5 90.166 -21.5 143.499zM329.999 714.001c-16 0 -29.5 5 -40.5 15s-16.5 23 -16.5 39
c0 15.333 5.5 28 16.5 38s24.5 15 40.5 15s29.5 -5 40.5 -15s16.5 -22.667 16.5 -38c0 -16 -5.5 -29 -16.5 -39s-24.5 -15 -40.5 -15z" />
    <glyph glyph-name="cdotaccent" unicode="&#x10b;" horiz-adv-x="456" 
d="M46 242c0 40.667 6.33594 76.8311 19.0029 108.498s29.667 58.5 51 80.5s46.166 38.667 74.499 50s58.166 17 89.499 17c32 0 59.5 -5.83301 82.5 -17.5s42.833 -25.167 59.5 -40.5l-41 -53c-14.667 12.667 -29.834 23 -45.501 31s-33.167 12 -52.5 12
c-22 0 -42.333 -4.5 -61 -13.5s-34.667 -21.833 -48 -38.5s-23.833 -36.5 -31.5 -59.5s-11.5 -48.5 -11.5 -76.5s3.66699 -53.333 11 -76s17.5 -42.167 30.5 -58.5s28.833 -29 47.5 -38s39 -13.5 61 -13.5c23.333 0 44.5 4.83301 63.5 14.5s35.833 21.167 50.5 34.5l37 -54
c-22 -19.333 -46.5 -34.666 -73.5 -45.999s-55.167 -17 -84.5 -17c-32 0 -62 5.66699 -90 17s-52.167 27.833 -72.5 49.5s-36.333 48.334 -48 80.001s-17.5 67.5 -17.5 107.5zM279.003 585.997c-15.333 0 -28.166 5 -38.499 15s-15.5 23 -15.5 39
c0 15.333 5.16699 28.166 15.5 38.499s23.166 15.5 38.499 15.5s28.166 -5.16699 38.499 -15.5s15.5 -23.166 15.5 -38.499c0 -16 -5.16699 -29 -15.5 -39s-23.166 -15 -38.499 -15z" />
    <glyph glyph-name="Ccaron" unicode="&#x10c;" horiz-adv-x="571" 
d="M52 328c0 52.667 7.33203 100.001 21.999 142.001s35 77.667 61 107s56.833 51.833 92.5 67.5s74.5 23.5 116.5 23.5c40 0 75 -8.16699 105 -24.5s54.667 -35.166 74 -56.499l-47 -53c-17.333 18.667 -36.5 33.5 -57.5 44.5s-45.5 16.5 -73.5 16.5
c-31.333 0 -59.666 -6.16699 -84.999 -18.5s-47 -30 -65 -53s-32 -50.833 -42 -83.5s-15 -69.334 -15 -110.001c0 -41.333 4.83301 -78.5 14.5 -111.5s23.167 -61.167 40.5 -84.5s38.5 -41.333 63.5 -54s53.167 -19 84.5 -19c32 0 59.833 6.33301 83.5 19
s46.167 30.667 67.5 54l47 -51c-26 -30 -55.333 -53.333 -88 -70s-70 -25 -112 -25c-41.333 0 -79.5 7.66699 -114.5 23s-65.333 37.5 -91 66.5s-45.667 64.667 -60 107s-21.5 90.166 -21.5 143.499zM465.999 818.001l-96 -112h-80l-96 112h67l67 -68h4l67 68h67z" />
    <glyph glyph-name="ccaron" unicode="&#x10d;" horiz-adv-x="456" 
d="M46 242c0 40.667 6.33594 76.8311 19.0029 108.498s29.667 58.5 51 80.5s46.166 38.667 74.499 50s58.166 17 89.499 17c32 0 59.5 -5.83301 82.5 -17.5s42.833 -25.167 59.5 -40.5l-41 -53c-14.667 12.667 -29.834 23 -45.501 31s-33.167 12 -52.5 12
c-22 0 -42.333 -4.5 -61 -13.5s-34.667 -21.833 -48 -38.5s-23.833 -36.5 -31.5 -59.5s-11.5 -48.5 -11.5 -76.5s3.66699 -53.333 11 -76s17.5 -42.167 30.5 -58.5s28.833 -29 47.5 -38s39 -13.5 61 -13.5c23.333 0 44.5 4.83301 63.5 14.5s35.833 21.167 50.5 34.5l37 -54
c-22 -19.333 -46.5 -34.666 -73.5 -45.999s-55.167 -17 -84.5 -17c-32 0 -62 5.66699 -90 17s-52.167 27.833 -72.5 49.5s-36.333 48.334 -48 80.001s-17.5 67.5 -17.5 107.5zM150.003 713.997h60l67 -92h4l67 92h60l-95 -141h-68z" />
    <glyph glyph-name="Dcaron" unicode="&#x10e;" horiz-adv-x="615" 
d="M90 656h164c101.333 0 178.333 -28 231 -84s79 -136.333 79 -241c0 -52 -6.66699 -98.5 -20 -139.5s-33 -75.667 -59 -104s-58 -50 -96 -65s-81.667 -22.5 -131 -22.5h-168v656zM248 68c76.667 0 134.167 23 172.5 69s57.5 110.667 57.5 194s-19.167 147 -57.5 191
s-95.833 66 -172.5 66h-75v-520h75zM443 818l-96 -112h-80l-96 112h67l67 -68h4l67 68h67z" />
    <glyph glyph-name="dcaron" unicode="&#x10f;" horiz-adv-x="573" 
d="M47 242c0 39.333 5.83301 74.834 17.5 106.501s27.167 58.5 46.5 80.5s41.666 39 66.999 51s52 18 80 18s52.333 -5 73 -15s41.667 -23.667 63 -41l-4 83v187h83v-712h-68l-7 57h-3c-19.333 -18.667 -41.5 -34.834 -66.5 -48.501s-51.833 -20.5 -80.5 -20.5
c-61.333 0 -110.166 22 -146.499 66s-54.5 106.667 -54.5 188zM132 243.001c0 -58.667 11.667 -104.334 35 -137.001s56.333 -49 99 -49c22.667 0 44 5.5 64 16.5s40 27.833 60 50.5v254c-20.667 18.667 -40.5 31.834 -59.5 39.501s-38.5 11.5 -58.5 11.5
c-19.333 0 -37.5 -4.5 -54.5 -13.5s-31.833 -21.667 -44.5 -38s-22.667 -35.833 -30 -58.5s-11 -48 -11 -76zM530 548.001l-4 212h59l-1 -57l-14 -155h-40z" />
    <glyph glyph-name="Dcroat" unicode="&#x110;" horiz-adv-x="638" 
d="M270 68c76.667 0 134.167 23 172.5 69s57.5 110.667 57.5 194s-19.167 147 -57.5 191s-95.833 66 -172.5 66h-75v-220h149v-47h-149v-253h75zM276 656c101.333 0 178.333 -28 231 -84s79 -136.333 79 -241c0 -52 -6.66699 -98.5 -20 -139.5s-33 -75.667 -59 -104
s-58 -50 -96 -65s-81.667 -22.5 -131 -22.5h-168v321h-79v43l79 4v288h164z" />
    <glyph glyph-name="dcroat" unicode="&#x111;" horiz-adv-x="555" 
d="M390 358c-20.667 18.667 -40.5 31.834 -59.5 39.501s-38.5 11.5 -58.5 11.5c-19.333 0 -37.5 -4.16699 -54.5 -12.5s-31.833 -20.333 -44.5 -36s-22.667 -34.334 -30 -56.001s-11 -45.5 -11 -71.5c0 -56 11.667 -99.333 35 -130s56.333 -46 99 -46
c22.667 0 44 5.5 64 16.5s40 27.833 60 50.5v234zM545 576l-71.999 -4.99805v-571h-70l-6 55h-3c-18.667 -18.667 -40.334 -34.5 -65.001 -47.5s-51.667 -19.5 -81 -19.5c-61.333 0 -110.166 21 -146.499 63s-54.5 102.333 -54.5 181c0 38 5.83301 72.167 17.5 102.5
s27.167 56.166 46.5 77.499s41.666 37.666 66.999 48.999s52 17 80 17s52.333 -5 73 -15s41.667 -23.667 63 -41l-4 83v66h-161v48h161v93h83v-93h72v-43z" />
    <glyph glyph-name="Emacron" unicode="&#x112;" horiz-adv-x="527" 
d="M90 656h378v-70h-295v-206h249v-71h-249v-238h305v-71h-388v656zM160 786h248v-57h-248v57z" />
    <glyph glyph-name="emacron" unicode="&#x113;" horiz-adv-x="496" 
d="M46 242c0 40 6.16895 75.833 18.502 107.5s28.666 58.5 48.999 80.5s43.5 38.833 69.5 50.5s53 17.5 81 17.5c30.667 0 58.167 -5.33301 82.5 -16s44.666 -26 60.999 -46s28.833 -44 37.5 -72s13 -59.333 13 -94c0 -18 -1 -33 -3 -45h-328
c3.33301 -52.667 19.5 -94.334 48.5 -125.001s66.833 -46 113.5 -46c23.333 0 44.833 3.5 64.5 10.5s38.5 16.167 56.5 27.5l29 -54c-21.333 -13.333 -45 -25 -71 -35s-55.667 -15 -89 -15c-32.667 0 -63.167 5.83301 -91.5 17.5s-53 28.334 -74 50.001
s-37.5 48.167 -49.5 79.5s-18 67 -18 107zM386.002 279c0 50 -10.499 88.167 -31.499 114.5s-50.5 39.5 -88.5 39.5c-17.333 0 -33.833 -3.5 -49.5 -10.5s-29.834 -17 -42.501 -30s-23.167 -29 -31.5 -48s-13.833 -40.833 -16.5 -65.5h260zM142.003 658h246v-57h-246v57z
" />
    <glyph glyph-name="Ebreve" unicode="&#x114;" horiz-adv-x="527" 
d="M90 656h378v-70h-295v-206h249v-71h-249v-238h305v-71h-388v656zM284 708c-20 0 -37.3311 3.16699 -51.998 9.5s-27 14.5 -37 24.5s-17.667 21.667 -23 35s-9 27 -11 41h50c3.33301 -16 10.666 -30.5 21.999 -43.5s28.333 -19.5 51 -19.5s39.667 6.5 51 19.5
s18.666 27.5 21.999 43.5h50c-2 -14 -5.66699 -27.667 -11 -41s-13 -25 -23 -35s-22.333 -18.167 -37 -24.5s-32 -9.5 -52 -9.5z" />
    <glyph glyph-name="ebreve" unicode="&#x115;" horiz-adv-x="496" 
d="M46 242c0 40 6.16895 75.833 18.502 107.5s28.666 58.5 48.999 80.5s43.5 38.833 69.5 50.5s53 17.5 81 17.5c30.667 0 58.167 -5.33301 82.5 -16s44.666 -26 60.999 -46s28.833 -44 37.5 -72s13 -59.333 13 -94c0 -18 -1 -33 -3 -45h-328
c3.33301 -52.667 19.5 -94.334 48.5 -125.001s66.833 -46 113.5 -46c23.333 0 44.833 3.5 64.5 10.5s38.5 16.167 56.5 27.5l29 -54c-21.333 -13.333 -45 -25 -71 -35s-55.667 -15 -89 -15c-32.667 0 -63.167 5.83301 -91.5 17.5s-53 28.334 -74 50.001
s-37.5 48.167 -49.5 79.5s-18 67 -18 107zM386.002 279c0 50 -10.499 88.167 -31.499 114.5s-50.5 39.5 -88.5 39.5c-17.333 0 -33.833 -3.5 -49.5 -10.5s-29.834 -17 -42.501 -30s-23.167 -29 -31.5 -48s-13.833 -40.833 -16.5 -65.5h260zM265.003 575
c-21.333 0 -39.833 3.83301 -55.5 11.5s-28.5 17.667 -38.5 30s-17.667 26 -23 41s-8.33301 29.833 -9 44.5h51c2.66699 -19.333 10 -36.833 22 -52.5s29.667 -23.5 53 -23.5s41 7.83301 53 23.5s19.333 33.167 22 52.5h51c-1.33301 -14.667 -4.5 -29.5 -9.5 -44.5
s-12.5 -28.667 -22.5 -41s-22.833 -22.333 -38.5 -30s-34.167 -11.5 -55.5 -11.5z" />
    <glyph glyph-name="Edotaccent" unicode="&#x116;" horiz-adv-x="527" 
d="M90 656h378v-70h-295v-206h249v-71h-249v-238h305v-71h-388v656zM284 714c-16 0 -29.5 5 -40.5 15s-16.5 23 -16.5 39c0 15.333 5.5 28 16.5 38s24.5 15 40.5 15s29.5 -5 40.5 -15s16.5 -22.667 16.5 -38c0 -16 -5.5 -29 -16.5 -39s-24.5 -15 -40.5 -15z" />
    <glyph glyph-name="edotaccent" unicode="&#x117;" horiz-adv-x="496" 
d="M46 242c0 40 6.16895 75.833 18.502 107.5s28.666 58.5 48.999 80.5s43.5 38.833 69.5 50.5s53 17.5 81 17.5c30.667 0 58.167 -5.33301 82.5 -16s44.666 -26 60.999 -46s28.833 -44 37.5 -72s13 -59.333 13 -94c0 -18 -1 -33 -3 -45h-328
c3.33301 -52.667 19.5 -94.334 48.5 -125.001s66.833 -46 113.5 -46c23.333 0 44.833 3.5 64.5 10.5s38.5 16.167 56.5 27.5l29 -54c-21.333 -13.333 -45 -25 -71 -35s-55.667 -15 -89 -15c-32.667 0 -63.167 5.83301 -91.5 17.5s-53 28.334 -74 50.001
s-37.5 48.167 -49.5 79.5s-18 67 -18 107zM386.002 279c0 50 -10.499 88.167 -31.499 114.5s-50.5 39.5 -88.5 39.5c-17.333 0 -33.833 -3.5 -49.5 -10.5s-29.834 -17 -42.501 -30s-23.167 -29 -31.5 -48s-13.833 -40.833 -16.5 -65.5h260zM265.003 586
c-15.333 0 -28.166 5 -38.499 15s-15.5 23 -15.5 39c0 15.333 5.16699 28.166 15.5 38.499s23.166 15.5 38.499 15.5s28.166 -5.16699 38.499 -15.5s15.5 -23.166 15.5 -38.499c0 -16 -5.16699 -29 -15.5 -39s-23.166 -15 -38.499 -15z" />
    <glyph glyph-name="Eogonek" unicode="&#x118;" horiz-adv-x="527" 
d="M90 656l377.998 -0.00292969v-70h-295v-206h249v-71h-249v-238h305v-71h-3c-11.333 -1.33301 -22.5 -5.16602 -33.5 -11.499s-20.833 -14.333 -29.5 -24s-15.667 -20.667 -21 -33s-8 -25.166 -8 -38.499c0 -15.333 5 -26.833 15 -34.5s21 -11.5 33 -11.5
c14 0 27.333 4.66699 40 14l23 -45c-9.33301 -7.33301 -21.666 -13.833 -36.999 -19.5s-29.666 -8.5 -42.999 -8.5c-26.667 0 -49.334 7.33301 -68.001 22s-28 36.334 -28 65.001c0 28 7.83301 52.833 23.5 74.5s32.834 38.5 51.501 50.5h-303v656z" />
    <glyph glyph-name="eogonek" unicode="&#x119;" horiz-adv-x="496" 
d="M46 242c0 40 6.16797 75.8311 18.501 107.498s28.666 58.5 48.999 80.5s43.5 38.833 69.5 50.5s53 17.5 81 17.5c30.667 0 58.167 -5.33301 82.5 -16s44.666 -26 60.999 -46s28.833 -44 37.5 -72s13 -59.333 13 -94c0 -18 -1 -33 -3 -45h-328
c3.33301 -52.667 19.5 -94.334 48.5 -125.001s66.833 -46 113.5 -46c23.333 0 44.833 3.5 64.5 10.5s38.5 16.167 56.5 27.5l29 -54c-22 -15.333 -40 -29.5 -54 -42.5s-25.333 -25.167 -34 -36.5s-14.667 -22.166 -18 -32.499s-5 -20.833 -5 -31.5
c0 -15.333 4.66699 -26.833 14 -34.5s20.333 -11.5 33 -11.5c8 0 15.167 1.16699 21.5 3.5s12.5 5.5 18.5 9.5l21 -41c-9.33301 -7.33301 -21.5 -13.666 -36.5 -18.999s-28.833 -8 -41.5 -8c-25.333 0 -46.666 7.16699 -63.999 21.5s-26 35.5 -26 63.5
c0 12.667 1.83301 24.667 5.5 36s8.5 22 14.5 32s12.5 19 19.5 27s13.833 15 20.5 21c-8.66699 -3.33301 -17 -5.33301 -25 -6s-16 -1 -24 -1c-32.667 0 -63.167 5.83301 -91.5 17.5s-53 28.334 -74 50.001s-37.5 48.167 -49.5 79.5s-18 67 -18 107zM386.001 278.998
c0 50 -10.3311 88.167 -30.998 114.5s-50.334 39.5 -89.001 39.5c-17.333 0 -33.833 -3.5 -49.5 -10.5s-29.834 -17 -42.501 -30s-23.167 -29 -31.5 -48s-13.833 -40.833 -16.5 -65.5h260z" />
    <glyph glyph-name="Ecaron" unicode="&#x11a;" horiz-adv-x="527" 
d="M90 656h378v-70h-295v-206h249v-71h-249v-238h305v-71h-388v656zM420 818l-96 -112h-80l-96 112h67l67 -68h4l67 68h67z" />
    <glyph glyph-name="ecaron" unicode="&#x11b;" horiz-adv-x="496" 
d="M46 242c0 40 6.16895 75.833 18.502 107.5s28.666 58.5 48.999 80.5s43.5 38.833 69.5 50.5s53 17.5 81 17.5c30.667 0 58.167 -5.33301 82.5 -16s44.666 -26 60.999 -46s28.833 -44 37.5 -72s13 -59.333 13 -94c0 -18 -1 -33 -3 -45h-328
c3.33301 -52.667 19.5 -94.334 48.5 -125.001s66.833 -46 113.5 -46c23.333 0 44.833 3.5 64.5 10.5s38.5 16.167 56.5 27.5l29 -54c-21.333 -13.333 -45 -25 -71 -35s-55.667 -15 -89 -15c-32.667 0 -63.167 5.83301 -91.5 17.5s-53 28.334 -74 50.001
s-37.5 48.167 -49.5 79.5s-18 67 -18 107zM386.002 279c0 50 -10.499 88.167 -31.499 114.5s-50.5 39.5 -88.5 39.5c-17.333 0 -33.833 -3.5 -49.5 -10.5s-29.834 -17 -42.501 -30s-23.167 -29 -31.5 -48s-13.833 -40.833 -16.5 -65.5h260zM136.003 714h60l67 -92h4l67 92
h60l-95 -141h-68z" />
    <glyph glyph-name="Gcircumflex" unicode="&#x11c;" horiz-adv-x="617" 
d="M52 328c0 52.667 7.50391 100.002 22.5039 142.002s36 77.667 63 107s58.833 51.833 95.5 67.5s77 23.5 121 23.5c45.333 0 83.166 -8.5 113.499 -25.5s55.166 -35.5 74.499 -55.5l-47 -53c-16.667 17.333 -35.834 31.833 -57.501 43.5s-49.167 17.5 -82.5 17.5
s-63.333 -6.16699 -90 -18.5s-49.334 -30 -68.001 -53s-33.167 -50.833 -43.5 -83.5s-15.5 -69.334 -15.5 -110.001c0 -41.333 4.83301 -78.5 14.5 -111.5s23.667 -61.167 42 -84.5s41 -41.333 68 -54s58.167 -19 93.5 -19c23.333 0 45.5 3.5 66.5 10.5
s38.167 16.5 51.5 28.5v171h-139v69h215v-276c-21.333 -22 -49.5 -40.167 -84.5 -54.5s-74.5 -21.5 -118.5 -21.5c-43.333 0 -83 7.66699 -119 23s-67 37.5 -93 66.5s-46.333 64.667 -61 107s-22 90.166 -22 143.499zM217.004 706.002l96 112h80l96 -112h-67l-67 68h-4
l-67 -68h-67z" />
    <glyph glyph-name="gcircumflex" unicode="&#x11d;" horiz-adv-x="504" 
d="M117 -82c0 -26 12.501 -46.668 37.501 -62.001s59.5 -23 103.5 -23c23.333 0 44.5 2.83301 63.5 8.5s35.167 13 48.5 22s23.666 19.5 30.999 31.5s11 24.333 11 37c0 22.667 -8.33301 38.334 -25 47.001s-41 13 -73 13h-84c-9.33301 0 -19.5 0.5 -30.5 1.5
s-21.833 3.16699 -32.5 6.5c-17.333 -12.667 -30 -26 -38 -40s-12 -28 -12 -42zM45.001 -93.001c0 20.667 6.33301 40.332 19 58.999s30 35.667 52 51v4c-12 7.33301 -22.167 17.5 -30.5 30.5s-12.5 29.167 -12.5 48.5c0 20.667 5.66699 38.667 17 54s23.333 27.333 36 36v4
c-16 13.333 -30.5 31.166 -43.5 53.499s-19.5 48.166 -19.5 77.499c0 26.667 4.83301 50.667 14.5 72s22.834 39.5 39.501 54.5s36.167 26.5 58.5 34.5s45.833 12 70.5 12c13.333 0 25.833 -1.16699 37.5 -3.5s22.167 -5.16602 31.5 -8.49902h169v-63h-100
c11.333 -11.333 20.833 -25.666 28.5 -42.999s11.5 -36.333 11.5 -57c0 -26 -4.66699 -49.5 -14 -70.5s-22 -38.667 -38 -53s-34.833 -25.5 -56.5 -33.5s-44.834 -12 -69.501 -12c-12 0 -24.333 1.5 -37 4.5s-24.667 7.16699 -36 12.5
c-8.66699 -7.33301 -16 -15.5 -22 -24.5s-9 -20.167 -9 -33.5c0 -15.333 6 -28 18 -38s34.667 -15 68 -15h94c56.667 0 99.167 -9.16699 127.5 -27.5s42.5 -47.833 42.5 -88.5c0 -22.667 -5.66699 -44.167 -17 -64.5s-27.666 -38.166 -48.999 -53.499
s-47.166 -27.5 -77.499 -36.5s-64.5 -13.5 -102.5 -13.5c-30 0 -57.333 2.83301 -82 8.5s-45.834 14.167 -63.501 25.5s-31.334 25 -41.001 41s-14.5 34.667 -14.5 56zM246.001 208.997c14 0 27.167 2.66699 39.5 8s23.333 13 33 23s17.167 22.167 22.5 36.5s8 30.5 8 48.5
c0 36 -10 63.833 -30 83.5s-44.333 29.5 -73 29.5s-53 -9.83301 -73 -29.5s-30 -47.5 -30 -83.5c0 -18 2.66699 -34.167 8 -48.5s12.833 -26.5 22.5 -36.5s20.667 -17.667 33 -23s25.5 -8 39.5 -8zM205.001 713.997h68l95 -141h-60l-67 91h-4l-67 -91h-60z" />
    <glyph glyph-name="Gbreve" unicode="&#x11e;" horiz-adv-x="617" 
d="M52 328c0 52.667 7.50391 100.002 22.5039 142.002s36 77.667 63 107s58.833 51.833 95.5 67.5s77 23.5 121 23.5c45.333 0 83.166 -8.5 113.499 -25.5s55.166 -35.5 74.499 -55.5l-47 -53c-16.667 17.333 -35.834 31.833 -57.501 43.5s-49.167 17.5 -82.5 17.5
s-63.333 -6.16699 -90 -18.5s-49.334 -30 -68.001 -53s-33.167 -50.833 -43.5 -83.5s-15.5 -69.334 -15.5 -110.001c0 -41.333 4.83301 -78.5 14.5 -111.5s23.667 -61.167 42 -84.5s41 -41.333 68 -54s58.167 -19 93.5 -19c23.333 0 45.5 3.5 66.5 10.5
s38.167 16.5 51.5 28.5v171h-139v69h215v-276c-21.333 -22 -49.5 -40.167 -84.5 -54.5s-74.5 -21.5 -118.5 -21.5c-43.333 0 -83 7.66699 -119 23s-67 37.5 -93 66.5s-46.333 64.667 -61 107s-22 90.166 -22 143.499zM353.004 708.002c-20 0 -37.3311 3.16699 -51.998 9.5
s-27 14.5 -37 24.5s-17.667 21.667 -23 35s-9 27 -11 41h50c3.33301 -16 10.666 -30.5 21.999 -43.5s28.333 -19.5 51 -19.5s39.667 6.5 51 19.5s18.666 27.5 21.999 43.5h50c-2 -14 -5.66699 -27.667 -11 -41s-13 -25 -23 -35s-22.333 -18.167 -37 -24.5s-32 -9.5 -52 -9.5
z" />
    <glyph glyph-name="gbreve" unicode="&#x11f;" horiz-adv-x="504" 
d="M117 -82c0 -26 12.501 -46.668 37.501 -62.001s59.5 -23 103.5 -23c23.333 0 44.5 2.83301 63.5 8.5s35.167 13 48.5 22s23.666 19.5 30.999 31.5s11 24.333 11 37c0 22.667 -8.33301 38.334 -25 47.001s-41 13 -73 13h-84c-9.33301 0 -19.5 0.5 -30.5 1.5
s-21.833 3.16699 -32.5 6.5c-17.333 -12.667 -30 -26 -38 -40s-12 -28 -12 -42zM45.001 -93.001c0 20.667 6.33301 40.332 19 58.999s30 35.667 52 51v4c-12 7.33301 -22.167 17.5 -30.5 30.5s-12.5 29.167 -12.5 48.5c0 20.667 5.66699 38.667 17 54s23.333 27.333 36 36v4
c-16 13.333 -30.5 31.166 -43.5 53.499s-19.5 48.166 -19.5 77.499c0 26.667 4.83301 50.667 14.5 72s22.834 39.5 39.501 54.5s36.167 26.5 58.5 34.5s45.833 12 70.5 12c13.333 0 25.833 -1.16699 37.5 -3.5s22.167 -5.16602 31.5 -8.49902h169v-63h-100
c11.333 -11.333 20.833 -25.666 28.5 -42.999s11.5 -36.333 11.5 -57c0 -26 -4.66699 -49.5 -14 -70.5s-22 -38.667 -38 -53s-34.833 -25.5 -56.5 -33.5s-44.834 -12 -69.501 -12c-12 0 -24.333 1.5 -37 4.5s-24.667 7.16699 -36 12.5
c-8.66699 -7.33301 -16 -15.5 -22 -24.5s-9 -20.167 -9 -33.5c0 -15.333 6 -28 18 -38s34.667 -15 68 -15h94c56.667 0 99.167 -9.16699 127.5 -27.5s42.5 -47.833 42.5 -88.5c0 -22.667 -5.66699 -44.167 -17 -64.5s-27.666 -38.166 -48.999 -53.499
s-47.166 -27.5 -77.499 -36.5s-64.5 -13.5 -102.5 -13.5c-30 0 -57.333 2.83301 -82 8.5s-45.834 14.167 -63.501 25.5s-31.334 25 -41.001 41s-14.5 34.667 -14.5 56zM246.001 208.997c14 0 27.167 2.66699 39.5 8s23.333 13 33 23s17.167 22.167 22.5 36.5s8 30.5 8 48.5
c0 36 -10 63.833 -30 83.5s-44.333 29.5 -73 29.5s-53 -9.83301 -73 -29.5s-30 -47.5 -30 -83.5c0 -18 2.66699 -34.167 8 -48.5s12.833 -26.5 22.5 -36.5s20.667 -17.667 33 -23s25.5 -8 39.5 -8zM239.001 574.997c-21.333 0 -39.833 3.83301 -55.5 11.5
s-28.5 17.667 -38.5 30s-17.667 26 -23 41s-8.33301 29.833 -9 44.5h51c2.66699 -19.333 10 -36.833 22 -52.5s29.667 -23.5 53 -23.5s41 7.83301 53 23.5s19.333 33.167 22 52.5h51c-1.33301 -14.667 -4.5 -29.5 -9.5 -44.5s-12.5 -28.667 -22.5 -41
s-22.833 -22.333 -38.5 -30s-34.167 -11.5 -55.5 -11.5z" />
    <glyph glyph-name="Gdotaccent" unicode="&#x120;" horiz-adv-x="617" 
d="M52 328c0 52.667 7.50391 100.002 22.5039 142.002s36 77.667 63 107s58.833 51.833 95.5 67.5s77 23.5 121 23.5c45.333 0 83.166 -8.5 113.499 -25.5s55.166 -35.5 74.499 -55.5l-47 -53c-16.667 17.333 -35.834 31.833 -57.501 43.5s-49.167 17.5 -82.5 17.5
s-63.333 -6.16699 -90 -18.5s-49.334 -30 -68.001 -53s-33.167 -50.833 -43.5 -83.5s-15.5 -69.334 -15.5 -110.001c0 -41.333 4.83301 -78.5 14.5 -111.5s23.667 -61.167 42 -84.5s41 -41.333 68 -54s58.167 -19 93.5 -19c23.333 0 45.5 3.5 66.5 10.5
s38.167 16.5 51.5 28.5v171h-139v69h215v-276c-21.333 -22 -49.5 -40.167 -84.5 -54.5s-74.5 -21.5 -118.5 -21.5c-43.333 0 -83 7.66699 -119 23s-67 37.5 -93 66.5s-46.333 64.667 -61 107s-22 90.166 -22 143.499zM353.004 714.002c-16 0 -29.5 5 -40.5 15
s-16.5 23 -16.5 39c0 15.333 5.5 28 16.5 38s24.5 15 40.5 15s29.5 -5 40.5 -15s16.5 -22.667 16.5 -38c0 -16 -5.5 -29 -16.5 -39s-24.5 -15 -40.5 -15z" />
    <glyph glyph-name="gdotaccent" unicode="&#x121;" horiz-adv-x="504" 
d="M117 -82c0 -26 12.501 -46.668 37.501 -62.001s59.5 -23 103.5 -23c23.333 0 44.5 2.83301 63.5 8.5s35.167 13 48.5 22s23.666 19.5 30.999 31.5s11 24.333 11 37c0 22.667 -8.33301 38.334 -25 47.001s-41 13 -73 13h-84c-9.33301 0 -19.5 0.5 -30.5 1.5
s-21.833 3.16699 -32.5 6.5c-17.333 -12.667 -30 -26 -38 -40s-12 -28 -12 -42zM45.001 -93.001c0 20.667 6.33301 40.332 19 58.999s30 35.667 52 51v4c-12 7.33301 -22.167 17.5 -30.5 30.5s-12.5 29.167 -12.5 48.5c0 20.667 5.66699 38.667 17 54s23.333 27.333 36 36v4
c-16 13.333 -30.5 31.166 -43.5 53.499s-19.5 48.166 -19.5 77.499c0 26.667 4.83301 50.667 14.5 72s22.834 39.5 39.501 54.5s36.167 26.5 58.5 34.5s45.833 12 70.5 12c13.333 0 25.833 -1.16699 37.5 -3.5s22.167 -5.16602 31.5 -8.49902h169v-63h-100
c11.333 -11.333 20.833 -25.666 28.5 -42.999s11.5 -36.333 11.5 -57c0 -26 -4.66699 -49.5 -14 -70.5s-22 -38.667 -38 -53s-34.833 -25.5 -56.5 -33.5s-44.834 -12 -69.501 -12c-12 0 -24.333 1.5 -37 4.5s-24.667 7.16699 -36 12.5
c-8.66699 -7.33301 -16 -15.5 -22 -24.5s-9 -20.167 -9 -33.5c0 -15.333 6 -28 18 -38s34.667 -15 68 -15h94c56.667 0 99.167 -9.16699 127.5 -27.5s42.5 -47.833 42.5 -88.5c0 -22.667 -5.66699 -44.167 -17 -64.5s-27.666 -38.166 -48.999 -53.499
s-47.166 -27.5 -77.499 -36.5s-64.5 -13.5 -102.5 -13.5c-30 0 -57.333 2.83301 -82 8.5s-45.834 14.167 -63.501 25.5s-31.334 25 -41.001 41s-14.5 34.667 -14.5 56zM246.001 208.997c14 0 27.167 2.66699 39.5 8s23.333 13 33 23s17.167 22.167 22.5 36.5s8 30.5 8 48.5
c0 36 -10 63.833 -30 83.5s-44.333 29.5 -73 29.5s-53 -9.83301 -73 -29.5s-30 -47.5 -30 -83.5c0 -18 2.66699 -34.167 8 -48.5s12.833 -26.5 22.5 -36.5s20.667 -17.667 33 -23s25.5 -8 39.5 -8zM239.001 585.997c-15.333 0 -28.166 5 -38.499 15s-15.5 23 -15.5 39
c0 15.333 5.16699 28.166 15.5 38.499s23.166 15.5 38.499 15.5s28.166 -5.16699 38.499 -15.5s15.5 -23.166 15.5 -38.499c0 -16 -5.16699 -29 -15.5 -39s-23.166 -15 -38.499 -15z" />
    <glyph glyph-name="uni0122" unicode="&#x122;" horiz-adv-x="617" 
d="M52 328c0 52.667 7.50391 100.002 22.5039 142.002s36 77.667 63 107s58.833 51.833 95.5 67.5s77 23.5 121 23.5c45.333 0 83.166 -8.5 113.499 -25.5s55.166 -35.5 74.499 -55.5l-47 -53c-16.667 17.333 -35.834 31.833 -57.501 43.5s-49.167 17.5 -82.5 17.5
s-63.333 -6.16699 -90 -18.5s-49.334 -30 -68.001 -53s-33.167 -50.833 -43.5 -83.5s-15.5 -69.334 -15.5 -110.001c0 -41.333 4.83301 -78.5 14.5 -111.5s23.667 -61.167 42 -84.5s41 -41.333 68 -54s58.167 -19 93.5 -19c23.333 0 45.5 3.5 66.5 10.5
s38.167 16.5 51.5 28.5v171h-139v69h215v-276c-21.333 -22 -49.5 -40.167 -84.5 -54.5s-74.5 -21.5 -118.5 -21.5c-43.333 0 -83 7.66699 -119 23s-67 37.5 -93 66.5s-46.333 64.667 -61 107s-22 90.166 -22 143.499zM319.004 -47.998
c34 -5.33301 58.668 -13.8311 74.001 -25.498s23 -28.834 23 -51.501c0 -14.667 -4 -27.334 -12 -38.001s-18.667 -19.667 -32 -27s-28.833 -13.166 -46.5 -17.499s-35.834 -7.16602 -54.501 -8.49902l-8 40c26.667 3.33301 48.167 8.5 64.5 15.5s24.5 17.167 24.5 30.5
s-5 23.166 -15 29.499s-22 11.166 -36 14.499l18 38v0z" />
    <glyph glyph-name="uni0123" unicode="&#x123;" horiz-adv-x="504" 
d="M117 -82c0 -26 12.501 -46.668 37.501 -62.001s59.5 -23 103.5 -23c23.333 0 44.5 2.83301 63.5 8.5s35.167 13 48.5 22s23.666 19.5 30.999 31.5s11 24.333 11 37c0 22.667 -8.33301 38.334 -25 47.001s-41 13 -73 13h-84c-9.33301 0 -19.5 0.5 -30.5 1.5
s-21.833 3.16699 -32.5 6.5c-17.333 -12.667 -30 -26 -38 -40s-12 -28 -12 -42zM45.001 -93.001c0 20.667 6.33301 40.332 19 58.999s30 35.667 52 51v4c-12 7.33301 -22.167 17.5 -30.5 30.5s-12.5 29.167 -12.5 48.5c0 20.667 5.66699 38.667 17 54s23.333 27.333 36 36v4
c-16 13.333 -30.5 31.166 -43.5 53.499s-19.5 48.166 -19.5 77.499c0 26.667 4.83301 50.667 14.5 72s22.834 39.5 39.501 54.5s36.167 26.5 58.5 34.5s45.833 12 70.5 12c13.333 0 25.833 -1.16699 37.5 -3.5s22.167 -5.16602 31.5 -8.49902h169v-63h-100
c11.333 -11.333 20.833 -25.666 28.5 -42.999s11.5 -36.333 11.5 -57c0 -26 -4.66699 -49.5 -14 -70.5s-22 -38.667 -38 -53s-34.833 -25.5 -56.5 -33.5s-44.834 -12 -69.501 -12c-12 0 -24.333 1.5 -37 4.5s-24.667 7.16699 -36 12.5
c-8.66699 -7.33301 -16 -15.5 -22 -24.5s-9 -20.167 -9 -33.5c0 -15.333 6 -28 18 -38s34.667 -15 68 -15h94c56.667 0 99.167 -9.16699 127.5 -27.5s42.5 -47.833 42.5 -88.5c0 -22.667 -5.66699 -44.167 -17 -64.5s-27.666 -38.166 -48.999 -53.499
s-47.166 -27.5 -77.499 -36.5s-64.5 -13.5 -102.5 -13.5c-30 0 -57.333 2.83301 -82 8.5s-45.834 14.167 -63.501 25.5s-31.334 25 -41.001 41s-14.5 34.667 -14.5 56zM246.001 208.997c14 0 27.167 2.66699 39.5 8s23.333 13 33 23s17.167 22.167 22.5 36.5s8 30.5 8 48.5
c0 36 -10 63.833 -30 83.5s-44.333 29.5 -73 29.5s-53 -9.83301 -73 -29.5s-30 -47.5 -30 -83.5c0 -18 2.66699 -34.167 8 -48.5s12.833 -26.5 22.5 -36.5s20.667 -17.667 33 -23s25.5 -8 39.5 -8zM267.001 540.997c-34 5.33301 -58.667 14 -74 26s-23 29 -23 51
c0 14.667 4 27.334 12 38.001s18.667 19.667 32 27s28.666 13.166 45.999 17.499s35.333 7.5 54 9.5l8 -41c-26 -3.33301 -47.167 -8.5 -63.5 -15.5s-24.5 -16.833 -24.5 -29.5c0 -13.333 4.83301 -23.333 14.5 -30s21.834 -11.667 36.501 -15l-18 -38v0z" />
    <glyph glyph-name="Hcircumflex" unicode="&#x124;" horiz-adv-x="652" 
d="M90 656h83v-275h305v275h84v-656h-84v309h-305v-309h-83v656zM190 706l96 112h80l96 -112h-67l-67 68h-4l-67 -68h-67z" />
    <glyph glyph-name="hcircumflex" unicode="&#x125;" horiz-adv-x="544" 
d="M82 712l82 0.000976562v-194l-3 -100c23.333 22 47.666 40.833 72.999 56.5s55 23.5 89 23.5c51.333 0 88.833 -16 112.5 -48s35.5 -79.333 35.5 -142v-308h-82v297c0 46 -7.33301 79.167 -22 99.5s-38 30.5 -70 30.5c-25.333 0 -47.666 -6.33301 -66.999 -19
s-41.333 -31.334 -66 -56.001v-352h-82v712zM-12 748.001l96 112h80l96 -112h-67l-67 68h-4l-67 -68h-67z" />
    <glyph glyph-name="Hbar" unicode="&#x126;" horiz-adv-x="687" 
d="M498 492h-305v-111h305v111zM654 492h-72v-492h-84v309h-305v-309h-83v492h-78v42l78 5v117h83v-117h305v117h84v-117h72v-47z" />
    <glyph glyph-name="hbar" unicode="&#x127;" horiz-adv-x="544" 
d="M161 398c23.333 22 47.666 40.834 72.999 56.501s55 23.5 89 23.5c51.333 0 88.833 -16 112.5 -48s35.5 -79.333 35.5 -142v-288h-82v277c0 46 -7.33301 79.167 -22 99.5s-38 30.5 -70 30.5c-25.333 0 -47.666 -6.33301 -66.999 -19s-41.333 -31.334 -66 -56.001v-332
h-82v571h-74v43l74 5v93h82v-93h182v-48h-182v-73z" />
    <glyph glyph-name="Itilde" unicode="&#x128;" horiz-adv-x="263" 
d="M90 656h83v-656h-83v656zM191 711c-13.333 0 -25.333 2.66895 -36 8.00195s-20.5 11.333 -29.5 18s-17.833 12.667 -26.5 18s-17.667 8 -27 8s-17.666 -4.33301 -24.999 -13s-12.333 -21.667 -15 -39h-46c3.33301 31.333 12.333 57.166 27 77.499s34 30.5 58 30.5
c13.333 0 25.333 -2.66699 36 -8s20.5 -11.333 29.5 -18s17.833 -12.667 26.5 -18s17.667 -8 27 -8s17.666 4.5 24.999 13.5s12.333 21.833 15 38.5h46c-3.33301 -30.667 -12.333 -56.334 -27 -77.001s-34 -31 -58 -31z" />
    <glyph glyph-name="itilde" unicode="&#x129;" horiz-adv-x="246" 
d="M82 486h82v-486h-82v486zM-16 579c2.66699 30 10.666 55.167 23.999 75.5s32.333 30.5 57 30.5c12.667 0 24.334 -2.66699 35.001 -8s20.5 -11.166 29.5 -17.499l25.5 -17.5c8 -5.33301 16 -8 24 -8c18.667 0 31 17 37 51h46c-2.66699 -30 -10.667 -55.167 -24 -75.5
s-32.333 -30.5 -57 -30.5c-12.667 0 -24.167 2.66699 -34.5 8s-20 11.166 -29 17.499l-25.5 17.5c-8 5.33301 -16.333 8 -25 8c-18.667 0 -31 -17 -37 -51h-46v0z" />
    <glyph glyph-name="Imacron" unicode="&#x12a;" horiz-adv-x="263" 
d="M90 656h83v-656h-83v656zM7 786h248v-57h-248v57z" />
    <glyph glyph-name="imacron" unicode="&#x12b;" horiz-adv-x="246" 
d="M82 486h82v-486h-82v486zM0 658h246v-57h-246v57z" />
    <glyph glyph-name="uni012C" unicode="&#x12c;" horiz-adv-x="263" 
d="M90 656h83v-656h-83v656zM131 708c-20 0 -37.3311 3.16699 -51.998 9.5s-27 14.5 -37 24.5s-17.667 21.667 -23 35s-9 27 -11 41h50c3.33301 -16 10.666 -30.5 21.999 -43.5s28.333 -19.5 51 -19.5s39.667 6.5 51 19.5s18.666 27.5 21.999 43.5h50
c-2 -14 -5.66699 -27.667 -11 -41s-13 -25 -23 -35s-22.333 -18.167 -37 -24.5s-32 -9.5 -52 -9.5z" />
    <glyph glyph-name="uni012D" unicode="&#x12d;" horiz-adv-x="246" 
d="M82 486h82v-486h-82v486zM124 575c-21.333 0 -39.833 3.83301 -55.5 11.5s-28.5 17.667 -38.5 30s-17.667 26 -23 41s-8.33301 29.833 -9 44.5h51c2.66699 -19.333 10 -36.833 22 -52.5s29.667 -23.5 53 -23.5s41 7.83301 53 23.5s19.333 33.167 22 52.5h51
c-1.33301 -14.667 -4.5 -29.5 -9.5 -44.5s-12.5 -28.667 -22.5 -41s-22.833 -22.333 -38.5 -30s-34.167 -11.5 -55.5 -11.5z" />
    <glyph glyph-name="Iogonek" unicode="&#x12e;" horiz-adv-x="263" 
d="M90 656l83 -0.000976562v-656c-20.667 -16 -36.667 -32.667 -48 -50s-17 -36.333 -17 -57c0 -15.333 5 -26.833 15 -34.5s20.667 -11.5 32 -11.5c14.667 0 28.334 4.66699 41.001 14l23 -45c-10 -7.33301 -22.5 -13.833 -37.5 -19.5s-29.167 -8.5 -42.5 -8.5
c-26.667 0 -49.334 7.33301 -68.001 22s-28 36.334 -28 65.001s7.16699 53 21.5 73s29.5 37.333 45.5 52h-20v656z" />
    <glyph glyph-name="iogonek" unicode="&#x12f;" horiz-adv-x="246" 
d="M82 486l82.001 -0.000976562v-486c-20 -14.667 -35.833 -31 -47.5 -49s-17.5 -36.667 -17.5 -56c0 -15.333 4.66699 -26.833 14 -34.5s20.333 -11.5 33 -11.5c7.33301 0 14.166 1.16699 20.499 3.5s12.833 5.5 19.5 9.5l21 -41
c-9.33301 -7.33301 -21.5 -13.666 -36.5 -18.999s-28.833 -8 -41.5 -8c-25.333 0 -46.833 7.16699 -64.5 21.5s-26.5 35.5 -26.5 63.5c0 26.667 7.16699 50 21.5 70s28.5 37 42.5 51h-20v486zM123.001 585.999c-16 0 -29.5 5 -40.5 15s-16.5 22.667 -16.5 38
c0 16 5.5 28.833 16.5 38.5s24.5 14.5 40.5 14.5c15.333 0 28.5 -4.83301 39.5 -14.5s16.5 -22.5 16.5 -38.5c0 -15.333 -5.5 -28 -16.5 -38s-24.167 -15 -39.5 -15z" />
    <glyph glyph-name="Idotaccent" unicode="&#x130;" horiz-adv-x="263" 
d="M90 656h83v-656h-83v656zM131 714c-16 0 -29.5 5 -40.5 15s-16.5 23 -16.5 39c0 15.333 5.5 28 16.5 38s24.5 15 40.5 15s29.5 -5 40.5 -15s16.5 -22.667 16.5 -38c0 -16 -5.5 -29 -16.5 -39s-24.5 -15 -40.5 -15z" />
    <glyph glyph-name="dotlessi" unicode="&#x131;" horiz-adv-x="246" 
d="M82 486h82v-486h-82v486z" />
    <glyph glyph-name="Jcircumflex" unicode="&#x134;" horiz-adv-x="480" 
d="M91 135c14.667 -26 31.334 -44.832 50.001 -56.499s39.667 -17.5 63 -17.5c35.333 0 61.666 10.833 78.999 32.5s26 57.5 26 107.5v455h84v-463c0 -28 -3.5 -54.5 -10.5 -79.5s-17.667 -46.833 -32 -65.5s-33 -33.334 -56 -44.001s-50.5 -16 -82.5 -16
c-82 0 -142.333 35 -181 105zM212 706.001l96 112h80l96 -112h-67l-67 68h-4l-67 -68h-67z" />
    <glyph glyph-name="jcircumflex" unicode="&#x135;" horiz-adv-x="247" 
d="M83 486l82 -0.000976562v-541c0 -49.333 -10 -88.666 -30 -117.999s-54.333 -44 -103 -44c-15.333 0 -29 1.33301 -41 4s-22.333 5.66699 -31 9l17 62c6 -2 13 -3.83301 21 -5.5s16.333 -2.5 25 -2.5c24 0 40 8.33301 48 25s12 40 12 70v541zM89 713.999h68l95 -141h-60
l-67 91h-4l-67 -91h-60z" />
    <glyph glyph-name="uni0136" unicode="&#x136;" horiz-adv-x="579" 
d="M90 656h83v-329h3l273 329h94l-205 -250l237 -406h-93l-196 341l-113 -133v-208h-83v656zM296 -48c34 -5.33301 58.668 -13.8311 74.001 -25.498s23 -28.834 23 -51.501c0 -14.667 -4 -27.334 -12 -38.001s-18.667 -19.667 -32 -27s-28.833 -13.166 -46.5 -17.499
s-35.834 -7.16602 -54.501 -8.49902l-8 40c26.667 3.33301 48.167 8.5 64.5 15.5s24.5 17.167 24.5 30.5s-5 23.166 -15 29.499s-22 11.166 -36 14.499l18 38v0z" />
    <glyph glyph-name="uni0137" unicode="&#x137;" horiz-adv-x="495" 
d="M82 712h81v-482h3l207 256h91l-163 -195l185 -291h-90l-142 234l-91 -106v-128h-81v712zM242 -48c34 -5.33301 58.668 -13.8311 74.001 -25.498s23 -28.834 23 -51.501c0 -14.667 -4 -27.334 -12 -38.001s-18.667 -19.667 -32 -27s-28.833 -13.166 -46.5 -17.499
s-35.834 -7.16602 -54.501 -8.49902l-8 40c26.667 3.33301 48.167 8.5 64.5 15.5s24.5 17.167 24.5 30.5s-5 23.166 -15 29.499s-22 11.166 -36 14.499l18 38v0z" />
    <glyph glyph-name="kgreenlandic" unicode="&#x138;" horiz-adv-x="495" 
d="M82 486h82v-258h3l206 258h91l-161 -195l183 -291h-90l-142 231l-90 -106v-125h-82v486z" />
    <glyph glyph-name="Lacute" unicode="&#x139;" horiz-adv-x="486" 
d="M90 656h83v-585h287v-71h-370v656zM152 706h-69l88 112h94z" />
    <glyph glyph-name="lacute" unicode="&#x13a;" horiz-adv-x="255" 
d="M82 712l81.9971 -0.000976562v-620c0 -13.333 2.33301 -22.666 7 -27.999s10 -8 16 -8h7.5c2.33301 0 5.83301 0.666992 10.5 2l11 -62c-5.33301 -2.66699 -11.666 -4.66699 -18.999 -6s-16.666 -2 -27.999 -2c-31.333 0 -53.666 9.33301 -66.999 28s-20 46 -20 82v614z
M136.997 757.999h-69l88 112h94z" />
    <glyph glyph-name="uni013B" unicode="&#x13b;" horiz-adv-x="486" 
d="M90 656h83v-585h287v-71h-370v656zM259 -48c34 -5.33301 58.668 -13.8311 74.001 -25.498s23 -28.834 23 -51.501c0 -14.667 -4 -27.334 -12 -38.001s-18.667 -19.667 -32 -27s-28.833 -13.166 -46.5 -17.499s-35.834 -7.16602 -54.501 -8.49902l-8 40
c26.667 3.33301 48.167 8.5 64.5 15.5s24.5 17.167 24.5 30.5s-5 23.166 -15 29.499s-22 11.166 -36 14.499l18 38v0z" />
    <glyph glyph-name="uni013C" unicode="&#x13c;" horiz-adv-x="255" 
d="M82 712l81.9971 -0.000976562v-620c0 -13.333 2.33301 -22.666 7 -27.999s10 -8 16 -8h7.5c2.33301 0 5.83301 0.666992 10.5 2l11 -62c-5.33301 -2.66699 -11.666 -4.66699 -18.999 -6s-16.666 -2 -27.999 -2c-31.333 0 -53.666 9.33301 -66.999 28s-20 46 -20 82v614z
M140.997 -48.001c34 -5.33301 58.668 -13.8311 74.001 -25.498s23 -28.834 23 -51.501c0 -14.667 -4 -27.334 -12 -38.001s-18.667 -19.667 -32 -27s-28.833 -13.166 -46.5 -17.499s-35.834 -7.16602 -54.501 -8.49902l-8 40c26.667 3.33301 48.167 8.5 64.5 15.5
s24.5 17.167 24.5 30.5s-5 23.166 -15 29.499s-22 11.166 -36 14.499l18 38v0z" />
    <glyph glyph-name="Lcaron" unicode="&#x13d;" horiz-adv-x="486" 
d="M90 656h83v-585h287v-71h-370v656zM334 515l-4 212h59l-1 -57l-14 -155h-40z" />
    <glyph glyph-name="lcaron" unicode="&#x13e;" horiz-adv-x="264" 
d="M82 712l81.9971 -0.000976562v-620c0 -13.333 2.33301 -22.666 7 -27.999s10 -8 16 -8h7.5c2.33301 0 5.83301 0.666992 10.5 2l11 -62c-5.33301 -2.66699 -11.666 -4.66699 -18.999 -6s-16.666 -2 -27.999 -2c-31.333 0 -53.666 9.33301 -66.999 28s-20 46 -20 82v614z
M220.997 547.999l-4 212h59l-1 -57l-14 -155h-40z" />
    <glyph glyph-name="Ldot" unicode="&#x13f;" horiz-adv-x="486" 
d="M90 656h83v-585h287v-71h-370v656zM317 325c0 19.333 5.83301 34.833 17.5 46.5s25.834 17.5 42.501 17.5c16 0 29.833 -5.83301 41.5 -17.5s17.5 -27.167 17.5 -46.5c0 -18 -5.83301 -32.833 -17.5 -44.5s-25.5 -17.5 -41.5 -17.5
c-16.667 0 -30.834 5.83301 -42.501 17.5s-17.5 26.5 -17.5 44.5z" />
    <glyph glyph-name="ldot" unicode="&#x140;" horiz-adv-x="362" 
d="M82 712l81.9971 -0.000976562v-620c0 -13.333 2.33301 -22.666 7 -27.999s10 -8 16 -8h7.5c2.33301 0 5.83301 0.666992 10.5 2l11 -62c-5.33301 -2.66699 -11.666 -4.66699 -18.999 -6s-16.666 -2 -27.999 -2c-31.333 0 -53.666 9.33301 -66.999 28s-20 46 -20 82v614z
M243.997 324.999c0 19.333 5.83301 34.833 17.5 46.5s25.834 17.5 42.501 17.5c16 0 29.833 -5.83301 41.5 -17.5s17.5 -27.167 17.5 -46.5c0 -18 -5.83301 -32.833 -17.5 -44.5s-25.5 -17.5 -41.5 -17.5c-16.667 0 -30.834 5.83301 -42.501 17.5s-17.5 26.5 -17.5 44.5z
" />
    <glyph glyph-name="Lslash" unicode="&#x141;" horiz-adv-x="489" 
d="M465 71v-71h-370v240l-82 -46v67l82 47v348h84v-311l185 100v-68l-185 -99v-207h286z" />
    <glyph glyph-name="lslash" unicode="&#x142;" horiz-adv-x="262" 
d="M169 374l0.000976562 -282.001c0 -13.333 2.33301 -22.666 7 -27.999s10 -8 16 -8h6.5c2.33301 0 6.16602 0.666992 11.499 2l11 -62c-6 -2.66699 -12.667 -4.66699 -20 -6s-16.666 -2 -27.999 -2c-30.667 0 -52.834 9.33301 -66.501 28s-20.5 46 -20.5 82v233l-63 -40
v70l63 40v311h83v-268l70 45v-70z" />
    <glyph glyph-name="Nacute" unicode="&#x143;" horiz-adv-x="647" 
d="M90 656l86 -0.00195312l237 -412l71 -136h4l-6.5 103.5c-2.33301 35.667 -3.5 70.834 -3.5 105.501v339h79v-656h-86l-238 413l-71 135h-4c2.66699 -33.333 5.16699 -67.166 7.5 -101.499s3.5 -68.833 3.5 -103.5v-343h-79v656zM344 705.998h-69l88 112h94z" />
    <glyph glyph-name="nacute" unicode="&#x144;" horiz-adv-x="547" 
d="M82 486l67.999 0.000976562l7 -70h3c23.333 23.333 47.833 42.833 73.5 58.5s55.5 23.5 89.5 23.5c51.333 0 88.833 -16 112.5 -48s35.5 -79.333 35.5 -142v-308h-82v297c0 46 -7.33301 79.167 -22 99.5s-38 30.5 -70 30.5c-25.333 0 -47.666 -6.33301 -66.999 -19
s-41.333 -31.334 -66 -56.001v-352h-82v486zM289.999 573.001h-63l90 141h86z" />
    <glyph glyph-name="uni0145" unicode="&#x145;" horiz-adv-x="647" 
d="M90 656l86 -0.00195312l237 -412l71 -136h4l-6.5 103.5c-2.33301 35.667 -3.5 70.834 -3.5 105.501v339h79v-656h-86l-238 413l-71 135h-4c2.66699 -33.333 5.16699 -67.166 7.5 -101.499s3.5 -68.833 3.5 -103.5v-343h-79v656zM299 -48.002
c34 -5.33301 58.668 -13.8311 74.001 -25.498s23 -28.834 23 -51.501c0 -14.667 -4 -27.334 -12 -38.001s-18.667 -19.667 -32 -27s-28.833 -13.166 -46.5 -17.499s-35.834 -7.16602 -54.501 -8.49902l-8 40c26.667 3.33301 48.167 8.5 64.5 15.5s24.5 17.167 24.5 30.5
s-5 23.166 -15 29.499s-22 11.166 -36 14.499l18 38v0z" />
    <glyph glyph-name="uni0146" unicode="&#x146;" horiz-adv-x="547" 
d="M82 486l67.999 0.000976562l7 -70h3c23.333 23.333 47.833 42.833 73.5 58.5s55.5 23.5 89.5 23.5c51.333 0 88.833 -16 112.5 -48s35.5 -79.333 35.5 -142v-308h-82v297c0 46 -7.33301 79.167 -22 99.5s-38 30.5 -70 30.5c-25.333 0 -47.666 -6.33301 -66.999 -19
s-41.333 -31.334 -66 -56.001v-352h-82v486zM249.999 -47.999c34 -5.33301 58.668 -13.8311 74.001 -25.498s23 -28.834 23 -51.501c0 -14.667 -4 -27.334 -12 -38.001s-18.667 -19.667 -32 -27s-28.833 -13.166 -46.5 -17.499s-35.834 -7.16602 -54.501 -8.49902l-8 40
c26.667 3.33301 48.167 8.5 64.5 15.5s24.5 17.167 24.5 30.5s-5 23.166 -15 29.499s-22 11.166 -36 14.499l18 38v0z" />
    <glyph glyph-name="Ncaron" unicode="&#x147;" horiz-adv-x="647" 
d="M90 656l86 -0.00195312l237 -412l71 -136h4l-6.5 103.5c-2.33301 35.667 -3.5 70.834 -3.5 105.501v339h79v-656h-86l-238 413l-71 135h-4c2.66699 -33.333 5.16699 -67.166 7.5 -101.499s3.5 -68.833 3.5 -103.5v-343h-79v656zM462 817.998l-96 -112h-80l-96 112h67
l67 -68h4l67 68h67z" />
    <glyph glyph-name="ncaron" unicode="&#x148;" horiz-adv-x="547" 
d="M82 486l67.999 0.000976562l7 -70h3c23.333 23.333 47.833 42.833 73.5 58.5s55.5 23.5 89.5 23.5c51.333 0 88.833 -16 112.5 -48s35.5 -79.333 35.5 -142v-308h-82v297c0 46 -7.33301 79.167 -22 99.5s-38 30.5 -70 30.5c-25.333 0 -47.666 -6.33301 -66.999 -19
s-41.333 -31.334 -66 -56.001v-352h-82v486zM162.999 714.001h60l67 -92h4l67 92h60l-95 -141h-68z" />
    <glyph glyph-name="napostrophe" unicode="&#x149;" horiz-adv-x="775" 
d="M63 469c25.333 16.667 44.168 34.333 56.501 53s18.5 42.667 18.5 72c-2 -0.666992 -4.66699 -1 -8 -1c-14 0 -26.333 4.33301 -37 13s-16 21 -16 37c0 17.333 5 31 15 41s22.667 15 38 15c19.333 0 34.666 -7.83301 45.999 -23.5s17 -38.167 17 -67.5
c0 -40 -9.16699 -74.5 -27.5 -103.5s-44.833 -53.5 -79.5 -73.5zM304.002 485.999l67.999 0.000976562l7 -70h3c23.333 23.333 47.833 42.833 73.5 58.5s55.5 23.5 89.5 23.5c51.333 0 88.833 -16 112.5 -48s35.5 -79.333 35.5 -142v-308h-82v297
c0 46 -7.33301 79.167 -22 99.5s-38 30.5 -70 30.5c-25.333 0 -47.666 -6.33301 -66.999 -19s-41.333 -31.334 -66 -56.001v-352h-82v486z" />
    <glyph glyph-name="Omacron" unicode="&#x14c;" horiz-adv-x="664" 
d="M332 -12c-41.333 0 -79.166 7.99902 -113.499 23.999s-63.833 38.833 -88.5 68.5s-43.834 65.667 -57.501 108s-20.5 89.833 -20.5 142.5s6.83301 99.834 20.5 141.501s32.834 77 57.501 106s54.167 51.167 88.5 66.5s72.166 23 113.499 23
s79.166 -7.83301 113.499 -23.5s64 -38 89 -67s44.333 -64.333 58 -106s20.5 -88.5 20.5 -140.5c0 -52.667 -6.83301 -100.167 -20.5 -142.5s-33 -78.333 -58 -108s-54.667 -52.5 -89 -68.5s-72.166 -24 -113.499 -24zM332 60.999c29.333 0 55.833 6.33301 79.5 19
s44 30.834 61 54.501s30.167 52 39.5 85s14 70.167 14 111.5c0 40.667 -4.66699 77.334 -14 110.001s-22.5 60.334 -39.5 83.001s-37.333 40.167 -61 52.5s-50.167 18.5 -79.5 18.5s-55.833 -6.16699 -79.5 -18.5s-44 -29.833 -61 -52.5s-30.167 -50.334 -39.5 -83.001
s-14 -69.334 -14 -110.001c0 -41.333 4.66699 -78.5 14 -111.5s22.5 -61.333 39.5 -85s37.333 -41.834 61 -54.501s50.167 -19 79.5 -19zM208 785.999h248v-57h-248v57z" />
    <glyph glyph-name="omacron" unicode="&#x14d;" horiz-adv-x="542" 
d="M46 242c0 40.667 6.16699 76.834 18.5 108.501s28.833 58.5 49.5 80.5s44.5 38.667 71.5 50s55.5 17 85.5 17s58.5 -5.66699 85.5 -17s50.833 -28 71.5 -50s37.167 -48.833 49.5 -80.5s18.5 -67.834 18.5 -108.501c0 -40 -6.16699 -75.833 -18.5 -107.5
s-28.833 -58.334 -49.5 -80.001s-44.5 -38.167 -71.5 -49.5s-55.5 -17 -85.5 -17s-58.5 5.66699 -85.5 17s-50.833 27.833 -71.5 49.5s-37.167 48.334 -49.5 80.001s-18.5 67.5 -18.5 107.5zM131 242c0 -28 3.33301 -53.333 10 -76s16.167 -42.167 28.5 -58.5
s27.166 -29 44.499 -38s36.333 -13.5 57 -13.5s39.667 4.5 57 13.5s32.166 21.667 44.499 38s21.833 35.833 28.5 58.5s10 48 10 76s-3.33301 53.5 -10 76.5s-16.167 42.833 -28.5 59.5s-27.166 29.5 -44.499 38.5s-36.333 13.5 -57 13.5s-39.667 -4.5 -57 -13.5
s-32.166 -21.833 -44.499 -38.5s-21.833 -36.5 -28.5 -59.5s-10 -48.5 -10 -76.5zM148 658h246v-57h-246v57z" />
    <glyph glyph-name="uni014E" unicode="&#x14e;" horiz-adv-x="664" 
d="M332 -12c-41.333 0 -79.166 7.99902 -113.499 23.999s-63.833 38.833 -88.5 68.5s-43.834 65.667 -57.501 108s-20.5 89.833 -20.5 142.5s6.83301 99.834 20.5 141.501s32.834 77 57.501 106s54.167 51.167 88.5 66.5s72.166 23 113.499 23
s79.166 -7.83301 113.499 -23.5s64 -38 89 -67s44.333 -64.333 58 -106s20.5 -88.5 20.5 -140.5c0 -52.667 -6.83301 -100.167 -20.5 -142.5s-33 -78.333 -58 -108s-54.667 -52.5 -89 -68.5s-72.166 -24 -113.499 -24zM332 60.999c29.333 0 55.833 6.33301 79.5 19
s44 30.834 61 54.501s30.167 52 39.5 85s14 70.167 14 111.5c0 40.667 -4.66699 77.334 -14 110.001s-22.5 60.334 -39.5 83.001s-37.333 40.167 -61 52.5s-50.167 18.5 -79.5 18.5s-55.833 -6.16699 -79.5 -18.5s-44 -29.833 -61 -52.5s-30.167 -50.334 -39.5 -83.001
s-14 -69.334 -14 -110.001c0 -41.333 4.66699 -78.5 14 -111.5s22.5 -61.333 39.5 -85s37.333 -41.834 61 -54.501s50.167 -19 79.5 -19zM332 707.999c-20 0 -37.3311 3.16699 -51.998 9.5s-27 14.5 -37 24.5s-17.667 21.667 -23 35s-9 27 -11 41h50
c3.33301 -16 10.666 -30.5 21.999 -43.5s28.333 -19.5 51 -19.5s39.667 6.5 51 19.5s18.666 27.5 21.999 43.5h50c-2 -14 -5.66699 -27.667 -11 -41s-13 -25 -23 -35s-22.333 -18.167 -37 -24.5s-32 -9.5 -52 -9.5z" />
    <glyph glyph-name="uni014F" unicode="&#x14f;" horiz-adv-x="542" 
d="M46 242c0 40.667 6.16699 76.834 18.5 108.501s28.833 58.5 49.5 80.5s44.5 38.667 71.5 50s55.5 17 85.5 17s58.5 -5.66699 85.5 -17s50.833 -28 71.5 -50s37.167 -48.833 49.5 -80.5s18.5 -67.834 18.5 -108.501c0 -40 -6.16699 -75.833 -18.5 -107.5
s-28.833 -58.334 -49.5 -80.001s-44.5 -38.167 -71.5 -49.5s-55.5 -17 -85.5 -17s-58.5 5.66699 -85.5 17s-50.833 27.833 -71.5 49.5s-37.167 48.334 -49.5 80.001s-18.5 67.5 -18.5 107.5zM131 242c0 -28 3.33301 -53.333 10 -76s16.167 -42.167 28.5 -58.5
s27.166 -29 44.499 -38s36.333 -13.5 57 -13.5s39.667 4.5 57 13.5s32.166 21.667 44.499 38s21.833 35.833 28.5 58.5s10 48 10 76s-3.33301 53.5 -10 76.5s-16.167 42.833 -28.5 59.5s-27.166 29.5 -44.499 38.5s-36.333 13.5 -57 13.5s-39.667 -4.5 -57 -13.5
s-32.166 -21.833 -44.499 -38.5s-21.833 -36.5 -28.5 -59.5s-10 -48.5 -10 -76.5zM271 575c-21.333 0 -39.833 3.83301 -55.5 11.5s-28.5 17.667 -38.5 30s-17.667 26 -23 41s-8.33301 29.833 -9 44.5h51c2.66699 -19.333 10 -36.833 22 -52.5s29.667 -23.5 53 -23.5
s41 7.83301 53 23.5s19.333 33.167 22 52.5h51c-1.33301 -14.667 -4.5 -29.5 -9.5 -44.5s-12.5 -28.667 -22.5 -41s-22.833 -22.333 -38.5 -30s-34.167 -11.5 -55.5 -11.5z" />
    <glyph glyph-name="Ohungarumlaut" unicode="&#x150;" horiz-adv-x="664" 
d="M332 -12c-41.333 0 -79.166 7.99902 -113.499 23.999s-63.833 38.833 -88.5 68.5s-43.834 65.667 -57.501 108s-20.5 89.833 -20.5 142.5s6.83301 99.834 20.5 141.501s32.834 77 57.501 106s54.167 51.167 88.5 66.5s72.166 23 113.499 23
s79.166 -7.83301 113.499 -23.5s64 -38 89 -67s44.333 -64.333 58 -106s20.5 -88.5 20.5 -140.5c0 -52.667 -6.83301 -100.167 -20.5 -142.5s-33 -78.333 -58 -108s-54.667 -52.5 -89 -68.5s-72.166 -24 -113.499 -24zM332 60.999c29.333 0 55.833 6.33301 79.5 19
s44 30.834 61 54.501s30.167 52 39.5 85s14 70.167 14 111.5c0 40.667 -4.66699 77.334 -14 110.001s-22.5 60.334 -39.5 83.001s-37.333 40.167 -61 52.5s-50.167 18.5 -79.5 18.5s-55.833 -6.16699 -79.5 -18.5s-44 -29.833 -61 -52.5s-30.167 -50.334 -39.5 -83.001
s-14 -69.334 -14 -110.001c0 -41.333 4.66699 -78.5 14 -111.5s22.5 -61.333 39.5 -85s37.333 -41.834 61 -54.501s50.167 -19 79.5 -19zM223 705.999l66 112h77l-83 -112h-60zM447 817.999h77l-84 -112h-59z" />
    <glyph glyph-name="ohungarumlaut" unicode="&#x151;" horiz-adv-x="542" 
d="M46 242c0 40.667 6.16699 76.834 18.5 108.501s28.833 58.5 49.5 80.5s44.5 38.667 71.5 50s55.5 17 85.5 17s58.5 -5.66699 85.5 -17s50.833 -28 71.5 -50s37.167 -48.833 49.5 -80.5s18.5 -67.834 18.5 -108.501c0 -40 -6.16699 -75.833 -18.5 -107.5
s-28.833 -58.334 -49.5 -80.001s-44.5 -38.167 -71.5 -49.5s-55.5 -17 -85.5 -17s-58.5 5.66699 -85.5 17s-50.833 27.833 -71.5 49.5s-37.167 48.334 -49.5 80.001s-18.5 67.5 -18.5 107.5zM131 242c0 -28 3.33301 -53.333 10 -76s16.167 -42.167 28.5 -58.5
s27.166 -29 44.499 -38s36.333 -13.5 57 -13.5s39.667 4.5 57 13.5s32.166 21.667 44.499 38s21.833 35.833 28.5 58.5s10 48 10 76s-3.33301 53.5 -10 76.5s-16.167 42.833 -28.5 59.5s-27.166 29.5 -44.499 38.5s-36.333 13.5 -57 13.5s-39.667 -4.5 -57 -13.5
s-32.166 -21.833 -44.499 -38.5s-21.833 -36.5 -28.5 -59.5s-10 -48.5 -10 -76.5zM243 714h73l-88 -143h-55zM391 714h72l-88 -143h-55z" />
    <glyph glyph-name="OE" unicode="&#x152;" horiz-adv-x="847" 
d="M52 331c0 104.667 27.999 185 83.999 241s135 84 237 84h415v-70h-278v-206h232v-71h-232v-238h288v-71h-429c-50 0 -94.5 7.5 -133.5 22.5s-72.167 36.667 -99.5 65s-48.166 63 -62.499 104s-21.5 87.5 -21.5 139.5zM137.999 331c0 -84 20.333 -148.833 61 -194.5
s100.667 -68.5 180 -68.5h48v520h-48c-79.333 0 -139.333 -22 -180 -66s-61 -107.667 -61 -191z" />
    <glyph glyph-name="oe" unicode="&#x153;" horiz-adv-x="839" 
d="M130 242c0 -28 3.33301 -53.333 10 -76s16 -42.167 28 -58.5s26.333 -29 43 -38s35 -13.5 55 -13.5s38.333 4.5 55 13.5s31 21.667 43 38s21.333 35.833 28 58.5s10 48 10 76s-3.33301 53.5 -10 76.5s-16 42.833 -28 59.5s-26.333 29.5 -43 38.5s-35 13.5 -55 13.5
s-38.333 -4.5 -55 -13.5s-31 -21.833 -43 -38.5s-21.333 -36.5 -28 -59.5s-10 -48.5 -10 -76.5zM46 242c0 40.667 6.00098 76.833 18.001 108.5s28 58.5 48 80.5s43.333 38.667 70 50s54.667 17 84 17c37.333 0 71.666 -10.333 102.999 -31s55.666 -51 72.999 -91
c18.667 38 42.834 67.833 72.501 89.5s62.5 32.5 98.5 32.5c30 0 56.667 -5.33301 80 -16s43 -26 59 -46s28.167 -44.167 36.5 -72.5s12.5 -59.833 12.5 -94.5c0 -18.667 -1 -34 -3 -46h-319c0.666992 -25.333 5.16699 -48.333 13.5 -69s19.333 -38.334 33 -53.001
s29.667 -26 48 -34s37.833 -12 58.5 -12c23.333 0 44.666 3.83301 63.999 11.5s38 17.167 56 28.5l30 -57c-21.333 -13.333 -45 -25 -71 -35s-55.667 -15 -89 -15c-38 0 -72.667 10.667 -104 32s-56.333 51 -75 89c-38 -80.667 -97.667 -121 -179 -121
c-29.333 0 -57.166 5.66699 -83.499 17s-49.5 27.833 -69.5 49.5s-35.833 48.334 -47.5 80.001s-17.5 67.5 -17.5 107.5zM729.001 277.999c0 50 -10.332 88.333 -30.999 115s-49.667 40 -87 40c-34 0 -63.333 -13.833 -88 -41.5s-39.334 -65.5 -44.001 -113.5h250z" />
    <glyph glyph-name="Racute" unicode="&#x154;" horiz-adv-x="581" 
d="M173 345l110 0.000976562c51.333 0 90.666 10.5 117.999 31.5s41 52.833 41 95.5c0 43.333 -13.667 73.666 -41 90.999s-66.666 26 -117.999 26h-110v-244zM450 0.000976562l-157.996 277h-119v-277h-83v656h205c33.333 0 64.166 -3.16699 92.499 -9.5
s52.666 -16.833 72.999 -31.5s36.166 -33.667 47.499 -57s17 -52 17 -86c0 -51.333 -13.333 -92.333 -40 -123s-62.334 -51.667 -107.001 -63l166 -286h-94zM312.004 706.001h-69l88 112h94z" />
    <glyph glyph-name="racute" unicode="&#x155;" horiz-adv-x="347" 
d="M82 486h68l7 -88h3c16.667 30.667 36.834 55 60.501 73s49.5 27 77.5 27c19.333 0 36.666 -3.33301 51.999 -10l-16 -72c-8 2.66699 -15.333 4.66699 -22 6s-15 2 -25 2c-20.667 0 -42.167 -8.33301 -64.5 -25s-41.833 -45.667 -58.5 -87v-312h-82v486zM215 573h-63
l90 141h86z" />
    <glyph glyph-name="uni0156" unicode="&#x156;" horiz-adv-x="581" 
d="M173 345l110 0.000976562c51.333 0 90.666 10.5 117.999 31.5s41 52.833 41 95.5c0 43.333 -13.667 73.666 -41 90.999s-66.666 26 -117.999 26h-110v-244zM450 0.000976562l-157.996 277h-119v-277h-83v656h205c33.333 0 64.166 -3.16699 92.499 -9.5
s52.666 -16.833 72.999 -31.5s36.166 -33.667 47.499 -57s17 -52 17 -86c0 -51.333 -13.333 -92.333 -40 -123s-62.334 -51.667 -107.001 -63l166 -286h-94zM280.004 -47.999c34 -5.33301 58.668 -13.8311 74.001 -25.498s23 -28.834 23 -51.501
c0 -14.667 -4 -27.334 -12 -38.001s-18.667 -19.667 -32 -27s-28.833 -13.166 -46.5 -17.499s-35.834 -7.16602 -54.501 -8.49902l-8 40c26.667 3.33301 48.167 8.5 64.5 15.5s24.5 17.167 24.5 30.5s-5 23.166 -15 29.499s-22 11.166 -36 14.499l18 38v0z" />
    <glyph glyph-name="uni0157" unicode="&#x157;" horiz-adv-x="347" 
d="M82 486h68l7 -88h3c16.667 30.667 36.834 55 60.501 73s49.5 27 77.5 27c19.333 0 36.666 -3.33301 51.999 -10l-16 -72c-8 2.66699 -15.333 4.66699 -22 6s-15 2 -25 2c-20.667 0 -42.167 -8.33301 -64.5 -25s-41.833 -45.667 -58.5 -87v-312h-82v486zM92 -48
c34 -5.33301 58.668 -13.8311 74.001 -25.498s23 -28.834 23 -51.501c0 -14.667 -4 -27.334 -12 -38.001s-18.667 -19.667 -32 -27s-28.833 -13.166 -46.5 -17.499s-35.834 -7.16602 -54.501 -8.49902l-8 40c26.667 3.33301 48.167 8.5 64.5 15.5s24.5 17.167 24.5 30.5
s-5 23.166 -15 29.499s-22 11.166 -36 14.499l18 38v0z" />
    <glyph glyph-name="Rcaron" unicode="&#x158;" horiz-adv-x="581" 
d="M173 345l110 0.000976562c51.333 0 90.666 10.5 117.999 31.5s41 52.833 41 95.5c0 43.333 -13.667 73.666 -41 90.999s-66.666 26 -117.999 26h-110v-244zM450 0.000976562l-157.996 277h-119v-277h-83v656h205c33.333 0 64.166 -3.16699 92.499 -9.5
s52.666 -16.833 72.999 -31.5s36.166 -33.667 47.499 -57s17 -52 17 -86c0 -51.333 -13.333 -92.333 -40 -123s-62.334 -51.667 -107.001 -63l166 -286h-94zM430.004 818.001l-96 -112h-80l-96 112h67l67 -68h4l67 68h67z" />
    <glyph glyph-name="rcaron" unicode="&#x159;" horiz-adv-x="347" 
d="M82 486h68l7 -88h3c16.667 30.667 36.834 55 60.501 73s49.5 27 77.5 27c19.333 0 36.666 -3.33301 51.999 -10l-16 -72c-8 2.66699 -15.333 4.66699 -22 6s-15 2 -25 2c-20.667 0 -42.167 -8.33301 -64.5 -25s-41.833 -45.667 -58.5 -87v-312h-82v486zM88 714h60l67 -92
h4l67 92h60l-95 -141h-68z" />
    <glyph glyph-name="Sacute" unicode="&#x15a;" horiz-adv-x="534" 
d="M92 143c23.333 -24.667 50.833 -44.502 82.5 -59.502s64.5 -22.5 98.5 -22.5c43.333 0 77 9.83301 101 29.5s36 45.5 36 77.5c0 16.667 -2.83301 30.834 -8.5 42.501s-13.334 21.667 -23.001 30s-21.167 15.833 -34.5 22.5l-43 21l-94 41
c-15.333 6.66699 -31 14.667 -47 24s-30.333 20.666 -43 33.999s-23 29.166 -31 47.499s-12 39.5 -12 63.5c0 24.667 5.16699 47.667 15.5 69s24.666 39.833 42.999 55.5s40 27.834 65 36.501s52.5 13 82.5 13c39.333 0 75.666 -7.5 108.999 -22.5
s61.666 -34.5 84.999 -58.5l-45 -54c-20 19.333 -42.167 34.5 -66.5 45.5s-51.833 16.5 -82.5 16.5c-36.667 0 -66.167 -8.5 -88.5 -25.5s-33.5 -40.5 -33.5 -70.5c0 -16 3.16699 -29.5 9.5 -40.5s14.833 -20.667 25.5 -29s22.334 -15.666 35.001 -21.999
s25.667 -12.166 39 -17.499l93 -40c18.667 -8 36.334 -17.167 53.001 -27.5s31 -22.333 43 -36s21.5 -29.667 28.5 -48s10.5 -39.5 10.5 -63.5c0 -26 -5.16699 -50.333 -15.5 -73s-25.166 -42.5 -44.499 -59.5s-42.666 -30.333 -69.999 -40s-58.333 -14.5 -93 -14.5
c-46 0 -88.667 8.66699 -128 26s-73.333 41 -102 71zM297 705.998h-69l88 112h94z" />
    <glyph glyph-name="sacute" unicode="&#x15b;" horiz-adv-x="419" 
d="M69 110c21.333 -17.333 43.1641 -31.3369 65.4971 -42.0039s48.166 -16 77.499 -16c32 0 56 7.33301 72 22s24 32.667 24 54c0 12.667 -3.33301 23.667 -10 33s-15.167 17.5 -25.5 24.5s-22.166 13.167 -35.499 18.5l-40 16c-17.333 6 -34.666 12.833 -51.999 20.5
s-32.833 17 -46.5 28s-24.834 23.833 -33.501 38.5s-13 32.334 -13 53.001c0 19.333 3.83301 37.5 11.5 54.5s18.667 31.667 33 44s31.833 22 52.5 29s44 10.5 70 10.5c30.667 0 58.834 -5.33301 84.501 -16s47.834 -23.667 66.501 -39l-39 -52
c-16.667 12.667 -34 23 -52 31s-37.667 12 -59 12c-30.667 0 -53.167 -7 -67.5 -21s-21.5 -30.333 -21.5 -49c0 -11.333 3 -21.166 9 -29.499s14 -15.666 24 -21.999s21.5 -12 34.5 -17l40.5 -15.5l52.5 -21c17.667 -7.33301 33.5 -16.5 47.5 -27.5s25.5 -24.5 34.5 -40.5
s13.5 -35.333 13.5 -58c0 -20 -3.83301 -38.667 -11.5 -56s-19 -32.666 -34 -45.999s-33.667 -23.833 -56 -31.5s-47.833 -11.5 -76.5 -11.5c-34.667 0 -67.667 6.33301 -99 19s-58.666 28.667 -81.999 48zM216.998 572.996h-63l90 141h86z" />
    <glyph glyph-name="Scircumflex" unicode="&#x15c;" horiz-adv-x="534" 
d="M92 143c23.333 -24.667 50.833 -44.502 82.5 -59.502s64.5 -22.5 98.5 -22.5c43.333 0 77 9.83301 101 29.5s36 45.5 36 77.5c0 16.667 -2.83301 30.834 -8.5 42.501s-13.334 21.667 -23.001 30s-21.167 15.833 -34.5 22.5l-43 21l-94 41
c-15.333 6.66699 -31 14.667 -47 24s-30.333 20.666 -43 33.999s-23 29.166 -31 47.499s-12 39.5 -12 63.5c0 24.667 5.16699 47.667 15.5 69s24.666 39.833 42.999 55.5s40 27.834 65 36.501s52.5 13 82.5 13c39.333 0 75.666 -7.5 108.999 -22.5
s61.666 -34.5 84.999 -58.5l-45 -54c-20 19.333 -42.167 34.5 -66.5 45.5s-51.833 16.5 -82.5 16.5c-36.667 0 -66.167 -8.5 -88.5 -25.5s-33.5 -40.5 -33.5 -70.5c0 -16 3.16699 -29.5 9.5 -40.5s14.833 -20.667 25.5 -29s22.334 -15.666 35.001 -21.999
s25.667 -12.166 39 -17.499l93 -40c18.667 -8 36.334 -17.167 53.001 -27.5s31 -22.333 43 -36s21.5 -29.667 28.5 -48s10.5 -39.5 10.5 -63.5c0 -26 -5.16699 -50.333 -15.5 -73s-25.166 -42.5 -44.499 -59.5s-42.666 -30.333 -69.999 -40s-58.333 -14.5 -93 -14.5
c-46 0 -88.667 8.66699 -128 26s-73.333 41 -102 71zM143 705.998l96 112h80l96 -112h-67l-67 68h-4l-67 -68h-67z" />
    <glyph glyph-name="scircumflex" unicode="&#x15d;" horiz-adv-x="419" 
d="M69 110c21.333 -17.333 43.1641 -31.3369 65.4971 -42.0039s48.166 -16 77.499 -16c32 0 56 7.33301 72 22s24 32.667 24 54c0 12.667 -3.33301 23.667 -10 33s-15.167 17.5 -25.5 24.5s-22.166 13.167 -35.499 18.5l-40 16c-17.333 6 -34.666 12.833 -51.999 20.5
s-32.833 17 -46.5 28s-24.834 23.833 -33.501 38.5s-13 32.334 -13 53.001c0 19.333 3.83301 37.5 11.5 54.5s18.667 31.667 33 44s31.833 22 52.5 29s44 10.5 70 10.5c30.667 0 58.834 -5.33301 84.501 -16s47.834 -23.667 66.501 -39l-39 -52
c-16.667 12.667 -34 23 -52 31s-37.667 12 -59 12c-30.667 0 -53.167 -7 -67.5 -21s-21.5 -30.333 -21.5 -49c0 -11.333 3 -21.166 9 -29.499s14 -15.666 24 -21.999s21.5 -12 34.5 -17l40.5 -15.5l52.5 -21c17.667 -7.33301 33.5 -16.5 47.5 -27.5s25.5 -24.5 34.5 -40.5
s13.5 -35.333 13.5 -58c0 -20 -3.83301 -38.667 -11.5 -56s-19 -32.666 -34 -45.999s-33.667 -23.833 -56 -31.5s-47.833 -11.5 -76.5 -11.5c-34.667 0 -67.667 6.33301 -99 19s-58.666 28.667 -81.999 48zM184.998 713.996h68l95 -141h-60l-67 91h-4l-67 -91h-60z" />
    <glyph glyph-name="uni015E" unicode="&#x15e;" horiz-adv-x="534" 
d="M92 143c23.333 -24.667 50.833 -44.502 82.5 -59.502s64.5 -22.5 98.5 -22.5c43.333 0 77 9.83301 101 29.5s36 45.5 36 77.5c0 16.667 -2.83301 30.834 -8.5 42.501s-13.334 21.667 -23.001 30s-21.167 15.833 -34.5 22.5l-43 21l-94 41
c-15.333 6.66699 -31 14.667 -47 24s-30.333 20.666 -43 33.999s-23 29.166 -31 47.499s-12 39.5 -12 63.5c0 24.667 5.16699 47.667 15.5 69s24.666 39.833 42.999 55.5s40 27.834 65 36.501s52.5 13 82.5 13c39.333 0 75.666 -7.5 108.999 -22.5
s61.666 -34.5 84.999 -58.5l-45 -54c-20 19.333 -42.167 34.5 -66.5 45.5s-51.833 16.5 -82.5 16.5c-36.667 0 -66.167 -8.5 -88.5 -25.5s-33.5 -40.5 -33.5 -70.5c0 -16 3.16699 -29.5 9.5 -40.5s14.833 -20.667 25.5 -29s22.334 -15.666 35.001 -21.999
s25.667 -12.166 39 -17.499l93 -40c18.667 -8 36.334 -17.167 53.001 -27.5s31 -22.333 43 -36s21.5 -29.667 28.5 -48s10.5 -39.5 10.5 -63.5c0 -26 -5.16699 -50.333 -15.5 -73s-25.166 -42.5 -44.499 -59.5s-42.666 -30.333 -69.999 -40s-58.333 -14.5 -93 -14.5
c-46 0 -88.667 8.66699 -128 26s-73.333 41 -102 71zM254 2.99805l53.001 0.000976562l-25 -53c16 -5.33301 29.833 -13.333 41.5 -24s17.5 -26.334 17.5 -47.001c0 -14.667 -4 -27.334 -12 -38.001s-18.667 -19.667 -32 -27s-28.833 -13.166 -46.5 -17.499
s-35.834 -7.5 -54.501 -9.5l-8 41c26.667 3.33301 48.167 8.83301 64.5 16.5s24.5 18.167 24.5 31.5s-5.5 23.5 -16.5 30.5s-26.5 13.167 -46.5 18.5z" />
    <glyph glyph-name="uni015F" unicode="&#x15f;" horiz-adv-x="419" 
d="M69 110c21.333 -17.333 43.1641 -31.3369 65.4971 -42.0039s48.166 -16 77.499 -16c32 0 56 7.33301 72 22s24 32.667 24 54c0 12.667 -3.33301 23.667 -10 33s-15.167 17.5 -25.5 24.5s-22.166 13.167 -35.499 18.5l-40 16c-17.333 6 -34.666 12.833 -51.999 20.5
s-32.833 17 -46.5 28s-24.834 23.833 -33.501 38.5s-13 32.334 -13 53.001c0 19.333 3.83301 37.5 11.5 54.5s18.667 31.667 33 44s31.833 22 52.5 29s44 10.5 70 10.5c30.667 0 58.834 -5.33301 84.501 -16s47.834 -23.667 66.501 -39l-39 -52
c-16.667 12.667 -34 23 -52 31s-37.667 12 -59 12c-30.667 0 -53.167 -7 -67.5 -21s-21.5 -30.333 -21.5 -49c0 -11.333 3 -21.166 9 -29.499s14 -15.666 24 -21.999s21.5 -12 34.5 -17l40.5 -15.5l52.5 -21c17.667 -7.33301 33.5 -16.5 47.5 -27.5s25.5 -24.5 34.5 -40.5
s13.5 -35.333 13.5 -58c0 -20 -3.83301 -38.667 -11.5 -56s-19 -32.666 -34 -45.999s-33.667 -23.833 -56 -31.5s-47.833 -11.5 -76.5 -11.5c-34.667 0 -67.667 6.33301 -99 19s-58.666 28.667 -81.999 48zM202.998 2.99609l53.001 0.000976562l-25 -53
c16 -5.33301 29.833 -13.333 41.5 -24s17.5 -26.334 17.5 -47.001c0 -14.667 -4 -27.334 -12 -38.001s-18.667 -19.667 -32 -27s-28.833 -13.166 -46.5 -17.499s-35.834 -7.5 -54.501 -9.5l-8 41c26.667 3.33301 48.167 8.83301 64.5 16.5s24.5 18.167 24.5 31.5
s-5.5 23.5 -16.5 30.5s-26.5 13.167 -46.5 18.5z" />
    <glyph glyph-name="Scaron" unicode="&#x160;" horiz-adv-x="534" 
d="M92 143c23.333 -24.667 50.833 -44.502 82.5 -59.502s64.5 -22.5 98.5 -22.5c43.333 0 77 9.83301 101 29.5s36 45.5 36 77.5c0 16.667 -2.83301 30.834 -8.5 42.501s-13.334 21.667 -23.001 30s-21.167 15.833 -34.5 22.5l-43 21l-94 41
c-15.333 6.66699 -31 14.667 -47 24s-30.333 20.666 -43 33.999s-23 29.166 -31 47.499s-12 39.5 -12 63.5c0 24.667 5.16699 47.667 15.5 69s24.666 39.833 42.999 55.5s40 27.834 65 36.501s52.5 13 82.5 13c39.333 0 75.666 -7.5 108.999 -22.5
s61.666 -34.5 84.999 -58.5l-45 -54c-20 19.333 -42.167 34.5 -66.5 45.5s-51.833 16.5 -82.5 16.5c-36.667 0 -66.167 -8.5 -88.5 -25.5s-33.5 -40.5 -33.5 -70.5c0 -16 3.16699 -29.5 9.5 -40.5s14.833 -20.667 25.5 -29s22.334 -15.666 35.001 -21.999
s25.667 -12.166 39 -17.499l93 -40c18.667 -8 36.334 -17.167 53.001 -27.5s31 -22.333 43 -36s21.5 -29.667 28.5 -48s10.5 -39.5 10.5 -63.5c0 -26 -5.16699 -50.333 -15.5 -73s-25.166 -42.5 -44.499 -59.5s-42.666 -30.333 -69.999 -40s-58.333 -14.5 -93 -14.5
c-46 0 -88.667 8.66699 -128 26s-73.333 41 -102 71zM415 817.998l-96 -112h-80l-96 112h67l67 -68h4l67 68h67z" />
    <glyph glyph-name="scaron" unicode="&#x161;" horiz-adv-x="419" 
d="M69 110c21.333 -17.333 43.1641 -31.3369 65.4971 -42.0039s48.166 -16 77.499 -16c32 0 56 7.33301 72 22s24 32.667 24 54c0 12.667 -3.33301 23.667 -10 33s-15.167 17.5 -25.5 24.5s-22.166 13.167 -35.499 18.5l-40 16c-17.333 6 -34.666 12.833 -51.999 20.5
s-32.833 17 -46.5 28s-24.834 23.833 -33.501 38.5s-13 32.334 -13 53.001c0 19.333 3.83301 37.5 11.5 54.5s18.667 31.667 33 44s31.833 22 52.5 29s44 10.5 70 10.5c30.667 0 58.834 -5.33301 84.501 -16s47.834 -23.667 66.501 -39l-39 -52
c-16.667 12.667 -34 23 -52 31s-37.667 12 -59 12c-30.667 0 -53.167 -7 -67.5 -21s-21.5 -30.333 -21.5 -49c0 -11.333 3 -21.166 9 -29.499s14 -15.666 24 -21.999s21.5 -12 34.5 -17l40.5 -15.5l52.5 -21c17.667 -7.33301 33.5 -16.5 47.5 -27.5s25.5 -24.5 34.5 -40.5
s13.5 -35.333 13.5 -58c0 -20 -3.83301 -38.667 -11.5 -56s-19 -32.666 -34 -45.999s-33.667 -23.833 -56 -31.5s-47.833 -11.5 -76.5 -11.5c-34.667 0 -67.667 6.33301 -99 19s-58.666 28.667 -81.999 48zM89.998 713.996h60l67 -92h4l67 92h60l-95 -141h-68z" />
    <glyph glyph-name="uni0162" unicode="&#x162;" horiz-adv-x="536" 
d="M226 586h-198v70h480v-70h-198v-586h-84v586zM245 3l53.001 0.000976562l-25 -53c16 -5.33301 29.833 -13.333 41.5 -24s17.5 -26.334 17.5 -47.001c0 -14.667 -4 -27.334 -12 -38.001s-18.667 -19.667 -32 -27s-28.833 -13.166 -46.5 -17.499s-35.834 -7.5 -54.501 -9.5
l-8 41c26.667 3.33301 48.167 8.83301 64.5 16.5s24.5 18.167 24.5 31.5s-5.5 23.5 -16.5 30.5s-26.5 13.167 -46.5 18.5z" />
    <glyph glyph-name="uni0163" unicode="&#x163;" horiz-adv-x="338" 
d="M96 419l-72 0.000976562v62l76 5l10 136h69v-136h131v-67h-131v-270c0 -30 5.5 -53.167 16.5 -69.5s30.5 -24.5 58.5 -24.5c8.66699 0 18 1.33301 28 4s19 5.66699 27 9l16 -62c-13.333 -4.66699 -27.833 -8.83398 -43.5 -12.501s-31.167 -5.5 -46.5 -5.5
c-26 0 -47.833 4 -65.5 12s-32 19 -43 33s-18.833 31 -23.5 51s-7 42 -7 66v269zM197 3.00098l53.001 0.000976562l-25 -53c16 -5.33301 29.833 -13.333 41.5 -24s17.5 -26.334 17.5 -47.001c0 -14.667 -4 -27.334 -12 -38.001s-18.667 -19.667 -32 -27
s-28.833 -13.166 -46.5 -17.499s-35.834 -7.5 -54.501 -9.5l-8 41c26.667 3.33301 48.167 8.83301 64.5 16.5s24.5 18.167 24.5 31.5s-5.5 23.5 -16.5 30.5s-26.5 13.167 -46.5 18.5z" />
    <glyph glyph-name="Tcaron" unicode="&#x164;" horiz-adv-x="536" 
d="M226 586h-198v70h480v-70h-198v-586h-84v586zM403 818l-96 -112h-80l-96 112h67l67 -68h4l67 68h67z" />
    <glyph glyph-name="tcaron" unicode="&#x165;" horiz-adv-x="338" 
d="M96 419l-72 0.000976562v62l76 5l10 136h69v-136h131v-67h-131v-270c0 -30 5.5 -53.167 16.5 -69.5s30.5 -24.5 58.5 -24.5c8.66699 0 18 1.33301 28 4s19 5.66699 27 9l16 -62c-13.333 -4.66699 -27.833 -8.83398 -43.5 -12.501s-31.167 -5.5 -46.5 -5.5
c-26 0 -47.833 4 -65.5 12s-32 19 -43 33s-18.833 31 -23.5 51s-7 42 -7 66v269zM257 548.001l-4 212h59l-1 -57l-14 -155h-40z" />
    <glyph glyph-name="Utilde" unicode="&#x168;" horiz-adv-x="645" 
d="M87 656h82.999v-387c0 -39.333 4 -72.333 12 -99s18.833 -48 32.5 -64s29.834 -27.5 48.501 -34.5s38.667 -10.5 60 -10.5c22 0 42.333 3.5 61 10.5s35 18.5 49 34.5s25 37.333 33 64s12 59.667 12 99v387h80v-385c0 -52.667 -6 -97 -18 -133s-28.5 -65.167 -49.5 -87.5
s-45.833 -38.333 -74.5 -48s-59.667 -14.5 -93 -14.5s-64.5 4.83301 -93.5 14.5s-54 25.667 -75 48s-37.5 51.5 -49.5 87.5s-18 80.333 -18 133v385zM381.999 711c-13.333 0 -25.333 2.66895 -36 8.00195s-20.5 11.333 -29.5 18s-17.833 12.667 -26.5 18s-17.667 8 -27 8
s-17.666 -4.33301 -24.999 -13s-12.333 -21.667 -15 -39h-46c3.33301 31.333 12.333 57.166 27 77.499s34 30.5 58 30.5c13.333 0 25.333 -2.66699 36 -8s20.5 -11.333 29.5 -18s17.833 -12.667 26.5 -18s17.667 -8 27 -8s17.666 4.5 24.999 13.5s12.333 21.833 15 38.5h46
c-3.33301 -30.667 -12.333 -56.334 -27 -77.001s-34 -31 -58 -31z" />
    <glyph glyph-name="utilde" unicode="&#x169;" horiz-adv-x="544" 
d="M75 486h83.002v-297c0 -46 7.16699 -79.167 21.5 -99.5s37.5 -30.5 69.5 -30.5c25.333 0 47.666 6.5 66.999 19.5s40.666 33.833 63.999 62.5v345h82v-486h-68l-7 76h-3c-22.667 -26.667 -46.5 -48 -71.5 -64s-54.5 -24 -88.5 -24c-52 0 -89.833 16 -113.5 48
s-35.5 79.333 -35.5 142v308zM133.002 579c2.66699 30 10.666 55.167 23.999 75.5s32.333 30.5 57 30.5c12.667 0 24.334 -2.66699 35.001 -8s20.5 -11.166 29.5 -17.499l25.5 -17.5c8 -5.33301 16 -8 24 -8c18.667 0 31 17 37 51h46
c-2.66699 -30 -10.667 -55.167 -24 -75.5s-32.333 -30.5 -57 -30.5c-12.667 0 -24.167 2.66699 -34.5 8s-20 11.166 -29 17.499l-25.5 17.5c-8 5.33301 -16.333 8 -25 8c-18.667 0 -31 -17 -37 -51h-46v0z" />
    <glyph glyph-name="Umacron" unicode="&#x16a;" horiz-adv-x="645" 
d="M87 656h82.999v-387c0 -39.333 4 -72.333 12 -99s18.833 -48 32.5 -64s29.834 -27.5 48.501 -34.5s38.667 -10.5 60 -10.5c22 0 42.333 3.5 61 10.5s35 18.5 49 34.5s25 37.333 33 64s12 59.667 12 99v387h80v-385c0 -52.667 -6 -97 -18 -133s-28.5 -65.167 -49.5 -87.5
s-45.833 -38.333 -74.5 -48s-59.667 -14.5 -93 -14.5s-64.5 4.83301 -93.5 14.5s-54 25.667 -75 48s-37.5 51.5 -49.5 87.5s-18 80.333 -18 133v385zM197.999 786h248v-57h-248v57z" />
    <glyph glyph-name="umacron" unicode="&#x16b;" horiz-adv-x="544" 
d="M75 486h83.002v-297c0 -46 7.16699 -79.167 21.5 -99.5s37.5 -30.5 69.5 -30.5c25.333 0 47.666 6.5 66.999 19.5s40.666 33.833 63.999 62.5v345h82v-486h-68l-7 76h-3c-22.667 -26.667 -46.5 -48 -71.5 -64s-54.5 -24 -88.5 -24c-52 0 -89.833 16 -113.5 48
s-35.5 79.333 -35.5 142v308zM146.002 658h246v-57h-246v57z" />
    <glyph glyph-name="Ubreve" unicode="&#x16c;" horiz-adv-x="645" 
d="M87 656h82.999v-387c0 -39.333 4 -72.333 12 -99s18.833 -48 32.5 -64s29.834 -27.5 48.501 -34.5s38.667 -10.5 60 -10.5c22 0 42.333 3.5 61 10.5s35 18.5 49 34.5s25 37.333 33 64s12 59.667 12 99v387h80v-385c0 -52.667 -6 -97 -18 -133s-28.5 -65.167 -49.5 -87.5
s-45.833 -38.333 -74.5 -48s-59.667 -14.5 -93 -14.5s-64.5 4.83301 -93.5 14.5s-54 25.667 -75 48s-37.5 51.5 -49.5 87.5s-18 80.333 -18 133v385zM321.999 708c-20 0 -37.3311 3.16699 -51.998 9.5s-27 14.5 -37 24.5s-17.667 21.667 -23 35s-9 27 -11 41h50
c3.33301 -16 10.666 -30.5 21.999 -43.5s28.333 -19.5 51 -19.5s39.667 6.5 51 19.5s18.666 27.5 21.999 43.5h50c-2 -14 -5.66699 -27.667 -11 -41s-13 -25 -23 -35s-22.333 -18.167 -37 -24.5s-32 -9.5 -52 -9.5z" />
    <glyph glyph-name="ubreve" unicode="&#x16d;" horiz-adv-x="544" 
d="M75 486h83.002v-297c0 -46 7.16699 -79.167 21.5 -99.5s37.5 -30.5 69.5 -30.5c25.333 0 47.666 6.5 66.999 19.5s40.666 33.833 63.999 62.5v345h82v-486h-68l-7 76h-3c-22.667 -26.667 -46.5 -48 -71.5 -64s-54.5 -24 -88.5 -24c-52 0 -89.833 16 -113.5 48
s-35.5 79.333 -35.5 142v308zM272.002 575c-21.333 0 -39.833 3.83301 -55.5 11.5s-28.5 17.667 -38.5 30s-17.667 26 -23 41s-8.33301 29.833 -9 44.5h51c2.66699 -19.333 10 -36.833 22 -52.5s29.667 -23.5 53 -23.5s41 7.83301 53 23.5s19.333 33.167 22 52.5h51
c-1.33301 -14.667 -4.5 -29.5 -9.5 -44.5s-12.5 -28.667 -22.5 -41s-22.833 -22.333 -38.5 -30s-34.167 -11.5 -55.5 -11.5z" />
    <glyph glyph-name="Uring" unicode="&#x16e;" horiz-adv-x="645" 
d="M87 656h82.999v-387c0 -39.333 4 -72.333 12 -99s18.833 -48 32.5 -64s29.834 -27.5 48.501 -34.5s38.667 -10.5 60 -10.5c22 0 42.333 3.5 61 10.5s35 18.5 49 34.5s25 37.333 33 64s12 59.667 12 99v387h80v-385c0 -52.667 -6 -97 -18 -133s-28.5 -65.167 -49.5 -87.5
s-45.833 -38.333 -74.5 -48s-59.667 -14.5 -93 -14.5s-64.5 4.83301 -93.5 14.5s-54 25.667 -75 48s-37.5 51.5 -49.5 87.5s-18 80.333 -18 133v385zM321.999 699c-27.333 0 -49.666 7.83301 -66.999 23.5s-26 37.167 -26 64.5c0 26.667 8.66699 48 26 64
s39.666 24 66.999 24c26.667 0 48.834 -8 66.501 -24s26.5 -37.333 26.5 -64c0 -27.333 -8.83301 -48.833 -26.5 -64.5s-39.834 -23.5 -66.501 -23.5zM321.999 735c12.667 0 23.667 4.5 33 13.5s14 21.833 14 38.5c0 15.333 -4.66699 27.666 -14 36.999s-20.333 14 -33 14
c-13.333 0 -24.666 -4.66699 -33.999 -14s-14 -21.666 -14 -36.999c0 -16.667 4.66699 -29.5 14 -38.5s20.666 -13.5 33.999 -13.5z" />
    <glyph glyph-name="uring" unicode="&#x16f;" horiz-adv-x="544" 
d="M75 486h83.002v-297c0 -46 7.16699 -79.167 21.5 -99.5s37.5 -30.5 69.5 -30.5c25.333 0 47.666 6.5 66.999 19.5s40.666 33.833 63.999 62.5v345h82v-486h-68l-7 76h-3c-22.667 -26.667 -46.5 -48 -71.5 -64s-54.5 -24 -88.5 -24c-52 0 -89.833 16 -113.5 48
s-35.5 79.333 -35.5 142v308zM272.002 542c-27.333 0 -49.666 8.5 -66.999 25.5s-26 39.5 -26 67.5s8.66699 50.333 26 67s39.666 25 66.999 25s49.666 -8.33301 66.999 -25s26 -39 26 -67s-8.66699 -50.5 -26 -67.5s-39.666 -25.5 -66.999 -25.5zM272.002 579
c13.333 0 24.666 5 33.999 15s14 23.667 14 41c0 16.667 -4.66699 30 -14 40s-20.666 15 -33.999 15s-24.666 -5 -33.999 -15s-14 -23.333 -14 -40c0 -17.333 4.66699 -31 14 -41s20.666 -15 33.999 -15z" />
    <glyph glyph-name="Uhungarumlaut" unicode="&#x170;" horiz-adv-x="645" 
d="M87 656h82.999v-387c0 -39.333 4 -72.333 12 -99s18.833 -48 32.5 -64s29.834 -27.5 48.501 -34.5s38.667 -10.5 60 -10.5c22 0 42.333 3.5 61 10.5s35 18.5 49 34.5s25 37.333 33 64s12 59.667 12 99v387h80v-385c0 -52.667 -6 -97 -18 -133s-28.5 -65.167 -49.5 -87.5
s-45.833 -38.333 -74.5 -48s-59.667 -14.5 -93 -14.5s-64.5 4.83301 -93.5 14.5s-54 25.667 -75 48s-37.5 51.5 -49.5 87.5s-18 80.333 -18 133v385zM212.999 706l66 112h77l-83 -112h-60zM436.999 818h77l-84 -112h-59z" />
    <glyph glyph-name="uhungarumlaut" unicode="&#x171;" horiz-adv-x="544" 
d="M75 486h83.002v-297c0 -46 7.16699 -79.167 21.5 -99.5s37.5 -30.5 69.5 -30.5c25.333 0 47.666 6.5 66.999 19.5s40.666 33.833 63.999 62.5v345h82v-486h-68l-7 76h-3c-22.667 -26.667 -46.5 -48 -71.5 -64s-54.5 -24 -88.5 -24c-52 0 -89.833 16 -113.5 48
s-35.5 79.333 -35.5 142v308zM244.002 714h73l-88 -143h-55zM392.002 714h72l-88 -143h-55z" />
    <glyph glyph-name="Uogonek" unicode="&#x172;" horiz-adv-x="645" 
d="M87 656l82.9971 0.000976562v-387c0 -39.333 4 -72.333 12 -99s18.833 -48 32.5 -64s29.834 -27.5 48.501 -34.5s38.667 -10.5 60 -10.5c22 0 42.333 3.5 61 10.5s35 18.5 49 34.5s25 37.333 33 64s12 59.667 12 99v387h80v-385c0 -44 -3.83301 -81.167 -11.5 -111.5
s-18.5 -56 -32.5 -77s-30.833 -38.333 -50.5 -52s-41.5 -26.167 -65.5 -37.5c-26 -12.667 -45.667 -28.334 -59 -47.001s-20 -36.334 -20 -53.001c0 -15.333 5 -26.833 15 -34.5s21 -11.5 33 -11.5c14 0 27.333 4.66699 40 14l23 -45
c-9.33301 -7.33301 -21.666 -13.833 -36.999 -19.5s-29.666 -8.5 -42.999 -8.5c-26.667 0 -49.334 7.33301 -68.001 22s-28 36.334 -28 65.001c0 14 2.16699 26.5 6.5 37.5s9.66602 21.167 15.999 30.5s13.333 17.833 21 25.5l20.5 20.5
c-34 0.666992 -65.167 6.33398 -93.5 17.001s-52.666 27.167 -72.999 49.5s-36.166 51.166 -47.499 86.499s-17 78.333 -17 129v385z" />
    <glyph glyph-name="uogonek" unicode="&#x173;" horiz-adv-x="544" 
d="M75 486l83.0029 0.000976562v-297c0 -46 7 -79.167 21 -99.5s37.333 -30.5 70 -30.5c25.333 0 47.666 6.5 66.999 19.5s40.666 33.833 63.999 62.5v345h82v-486c-30 -14.667 -52 -31 -66 -49s-21 -36.667 -21 -56c0 -15.333 4.83301 -26.833 14.5 -34.5
s20.167 -11.5 31.5 -11.5c8 0 15.333 1.16699 22 3.5s13 5.5 19 9.5l21 -41c-9.33301 -7.33301 -21.5 -13.666 -36.5 -18.999s-28.833 -8 -41.5 -8c-25.333 0 -46.833 7.16699 -64.5 21.5s-26.5 35.5 -26.5 63.5c0 27.333 8.16699 51.166 24.5 71.499
s35.166 38.166 56.499 53.499l-8 72h-3c-22.667 -26.667 -46.5 -48 -71.5 -64s-54.5 -24 -88.5 -24c-52 0 -89.833 16 -113.5 48s-35.5 79.333 -35.5 142v308z" />
    <glyph glyph-name="Wcircumflex" unicode="&#x174;" horiz-adv-x="786" 
d="M23 656l86 -0.000976562l69 -357c6 -36 12.333 -71.333 19 -106s13 -70 19 -106h4c7.33301 36 15 71.5 23 106.5s15.667 70.167 23 105.5l91 357h76l91 -357l24 -105l24 -107h4l18 106.5c6 35 12.333 70.167 19 105.5l69 357h80l-136 -656h-100l-99 395
c-6 25.333 -11.5 50.166 -16.5 74.499l-15.5 74.5h-4c-5.33301 -25.333 -10.833 -50.166 -16.5 -74.499s-11.167 -49.166 -16.5 -74.499l-97 -395h-99zM257 705.999l96 112h80l96 -112h-67l-67 68h-4l-67 -68h-67z" />
    <glyph glyph-name="wcircumflex" unicode="&#x175;" horiz-adv-x="718" 
d="M24 486l84 -0.000976562l72 -281l15 -68l14 -67h4l16 67.5c5.33301 22.333 11 44.833 17 67.5l75 281h80l76 -281l17.5 -68l16.5 -67h4c5.33301 22.667 10.333 45 15 67l15 68l71 281h78l-130 -486h-100l-70 261c-6 23.333 -11.5 46.333 -16.5 69
s-10.5 46.334 -16.5 71.001h-4l-16 -71.5c-5.33301 -23 -11.333 -46.167 -18 -69.5l-68 -260h-96zM326 713.999h68l95 -141h-60l-67 91h-4l-67 -91h-60z" />
    <glyph glyph-name="Ycircumflex" unicode="&#x176;" horiz-adv-x="476" 
d="M196 254l-197 402h89l85 -185l31 -71l32 -72h4l34 72c11.333 23.333 22 47 32 71l84 185h87l-197 -402v-254h-84v254zM102 706l96 112h80l96 -112h-67l-67 68h-4l-67 -68h-67z" />
    <glyph glyph-name="ycircumflex" unicode="&#x177;" horiz-adv-x="467" 
d="M49 -134l18.002 -4.5c6.66699 -1.66699 13 -2.5 19 -2.5c28 0 50.833 9.83301 68.5 29.5s31.5 44.5 41.5 74.5l11 36l-195 487h85l99 -269l23.5 -67.5l23.5 -69.5h4c7.33301 22 14.333 45 21 69s13.334 46.667 20.001 68l87 269h80l-183 -526
c-8.66699 -24 -18.334 -46.333 -29.001 -67s-23.334 -38.5 -38.001 -53.5s-31.334 -26.833 -50.001 -35.5s-40.334 -13 -65.001 -13c-11.333 0 -21.666 0.833008 -30.999 2.5s-18 4.16699 -26 7.5l16 65v0zM208.002 714h68l95 -141h-60l-67 91h-4l-67 -91h-60z" />
    <glyph glyph-name="Ydieresis" unicode="&#x178;" horiz-adv-x="476" 
d="M196 254l-197 402h89l85 -185l31 -71l32 -72h4l34 72c11.333 23.333 22 47 32 71l84 185h87l-197 -402v-254h-84v254zM152 715c-14.667 0 -26.5 4.66699 -35.5 14s-13.5 21 -13.5 35c0 14.667 4.5 26.5 13.5 35.5s20.833 13.5 35.5 13.5c14 0 25.667 -4.5 35 -13.5
s14 -20.833 14 -35.5c0 -14 -4.66699 -25.667 -14 -35s-21 -14 -35 -14zM324 715c-14 0 -25.667 4.66699 -35 14s-14 21 -14 35c0 14.667 4.66699 26.5 14 35.5s21 13.5 35 13.5c14.667 0 26.5 -4.5 35.5 -13.5s13.5 -20.833 13.5 -35.5c0 -14 -4.5 -25.667 -13.5 -35
s-20.833 -14 -35.5 -14z" />
    <glyph glyph-name="Zacute" unicode="&#x179;" horiz-adv-x="539" 
d="M45 50l345 536h-314v70h418v-49l-346 -536h349v-71h-452v50zM298 706h-69l88 112h94z" />
    <glyph glyph-name="zacute" unicode="&#x17a;" horiz-adv-x="425" 
d="M31 44l256 375h-228v67h332v-44l-256 -375h264v-67h-368v44zM226 573h-63l90 141h86z" />
    <glyph glyph-name="Zdotaccent" unicode="&#x17b;" horiz-adv-x="539" 
d="M45 50l345 536h-314v70h418v-49l-346 -536h349v-71h-452v50zM280 714c-16 0 -29.5 5 -40.5 15s-16.5 23 -16.5 39c0 15.333 5.5 28 16.5 38s24.5 15 40.5 15s29.5 -5 40.5 -15s16.5 -22.667 16.5 -38c0 -16 -5.5 -29 -16.5 -39s-24.5 -15 -40.5 -15z" />
    <glyph glyph-name="zdotaccent" unicode="&#x17c;" horiz-adv-x="425" 
d="M31 44l256 375h-228v67h332v-44l-256 -375h264v-67h-368v44zM228 586c-15.333 0 -28.166 5 -38.499 15s-15.5 23 -15.5 39c0 15.333 5.16699 28.166 15.5 38.499s23.166 15.5 38.499 15.5s28.166 -5.16699 38.499 -15.5s15.5 -23.166 15.5 -38.499
c0 -16 -5.16699 -29 -15.5 -39s-23.166 -15 -38.499 -15z" />
    <glyph glyph-name="Zcaron" unicode="&#x17d;" horiz-adv-x="539" 
d="M45 50l345 536h-314v70h418v-49l-346 -536h349v-71h-452v50zM416 818l-96 -112h-80l-96 112h67l67 -68h4l67 68h67z" />
    <glyph glyph-name="zcaron" unicode="&#x17e;" horiz-adv-x="425" 
d="M31 44l256 375h-228v67h332v-44l-256 -375h264v-67h-368v44zM99 714h60l67 -92h4l67 92h60l-95 -141h-68z" />
    <glyph glyph-name="uni0180" unicode="&#x180;" horiz-adv-x="544" 
d="M164 108c21.333 -18.667 42.499 -31.835 63.499 -39.502s39.5 -11.5 55.5 -11.5c20 0 38.5 4.16699 55.5 12.5s31.667 20.333 44 36s22 34.834 29 57.501s10.5 48.334 10.5 77.001c0 50.667 -9.83301 91.5 -29.5 122.5s-52.5 46.5 -98.5 46.5
c-39.333 0 -82.666 -22 -129.999 -66v-235zM161.999 409.999c22 19.333 45.998 35.499 71.998 48.499s52.667 19.5 80 19.5c31.333 0 59 -5.66699 83 -17s44.167 -27.166 60.5 -47.499s28.666 -45.166 36.999 -74.499s12.5 -62 12.5 -98c0 -40 -5.66699 -75.667 -17 -107
s-26.666 -57.833 -45.999 -79.5s-41.666 -38.167 -66.999 -49.5s-52 -17 -80 -17c-22.667 0 -46.167 5.16699 -70.5 15.5s-47.166 25.166 -68.499 44.499h-3l-7 -48h-66v571h-74v43l74 5v93h82v-93h182v-48h-182v-73z" />
    <glyph glyph-name="uni018F" unicode="&#x18f;" horiz-adv-x="659" 
d="M143 286c2 -36 7.83203 -68.167 17.499 -96.5s22.667 -52.333 39 -72s35.333 -34.667 57 -45s45.5 -15.5 71.5 -15.5c53.333 0 97.333 20.333 132 61s55.334 96.667 62.001 168h-379zM124.999 591c23.333 22.667 52.501 41.1699 87.501 55.5029s74.833 21.5 119.5 21.5
c42 0 80 -7.83301 114 -23.5s62.833 -38 86.5 -67s42 -64.333 55 -106s19.5 -88.834 19.5 -141.501s-6.83301 -100 -20.5 -142s-32.834 -77.833 -57.501 -107.5s-54.167 -52.5 -88.5 -68.5s-71.833 -24 -112.5 -24c-41.333 0 -78.5 8 -111.5 24s-61.333 38.833 -85 68.5
s-41.834 65.167 -54.501 106.5s-19 87.333 -19 138c0 3.33301 0.166992 7.16602 0.5 11.499s0.833008 8.83301 1.5 13.5h464c-3.33301 77.333 -21.833 138.166 -55.5 182.499s-81.5 66.5 -143.5 66.5c-32.667 0 -62.667 -6 -90 -18s-50.666 -27.667 -69.999 -47z" />
    <glyph glyph-name="uni0192" unicode="&#x192;" horiz-adv-x="497" 
d="M444 587c-7.33301 3.33301 -15.333 6.50098 -24 9.50098s-19.334 4.5 -32.001 4.5c-15.333 0 -28.333 -3.66699 -39 -11s-19.5 -17 -26.5 -29s-12.667 -25.833 -17 -41.5s-7.5 -31.834 -9.5 -48.501l-7 -63h126v-63h-133l-26 -237
c-3.33301 -30.667 -8.66602 -58.5 -15.999 -83.5s-17.333 -46.5 -30 -64.5s-28.667 -32 -48 -42s-43 -15 -71 -15c-15.333 0 -29.333 1.33301 -42 4s-23 6.33398 -31 11.001l15 62c15.333 -6.66699 32 -10 50 -10c31.333 0 53.833 13.167 67.5 39.5
s23.167 65.166 28.5 116.499l24 219h-87v59l69 4h25l6 56c7.33301 66.667 23.833 117.334 49.5 152.001s65.167 52 118.5 52c14.667 0 29 -1.83301 43 -5.5s25.667 -7.83398 35 -12.501z" />
    <glyph glyph-name="Ohorn" unicode="&#x1a0;" horiz-adv-x="664" 
d="M335 61c29.333 0 55.833 6.33301 79.5 19s44 30.834 61 54.501s30.167 52 39.5 85s14 70.167 14 111.5c0 40.667 -4.66699 77.334 -14 110.001s-22.5 60.334 -39.5 83.001s-37.333 40.167 -61 52.5s-50.167 18.5 -79.5 18.5s-56 -6.16699 -80 -18.5
s-44.5 -29.833 -61.5 -52.5s-30.167 -50.334 -39.5 -83.001s-14 -69.334 -14 -110.001c0 -41.333 4.66699 -78.5 14 -111.5s22.5 -61.333 39.5 -85s37.5 -41.834 61.5 -54.501s50.667 -19 80 -19zM591 773c6.66699 -9.33301 12.166 -19.332 16.499 -29.999
s6.5 -22.334 6.5 -35.001c0 -28.667 -9.16699 -51.5 -27.5 -68.5s-43.166 -29.167 -74.499 -36.5c32 -29.333 57.167 -66.833 75.5 -112.5s27.5 -98.834 27.5 -159.501c0 -52.667 -6.83301 -100.167 -20.5 -142.5s-33 -78.333 -58 -108s-54.667 -52.5 -89 -68.5
s-71.833 -24 -112.5 -24c-41.333 0 -79.166 8 -113.499 24s-64 38.833 -89 68.5s-44.333 65.667 -58 108s-20.5 89.833 -20.5 142.5s6.83301 99.834 20.5 141.501s33 77 58 106s54.667 51.167 89 66.5s72.166 23 113.499 23c48 0 91.333 -10.667 130 -32
c28 5.33301 48.5 13.166 61.5 23.499s19.5 24.833 19.5 43.5c0 7.33301 -1.33301 14.333 -4 21s-6 13.334 -10 20.001z" />
    <glyph glyph-name="ohorn" unicode="&#x1a1;" horiz-adv-x="542" 
d="M271 56c20.667 0 39.667 4.5 57 13.5s32.166 21.667 44.499 38s21.833 35.833 28.5 58.5s10 48 10 76s-3.33301 53.5 -10 76.5s-16.167 42.833 -28.5 59.5s-27.166 29.5 -44.499 38.5s-36.333 13.5 -57 13.5s-39.667 -4.5 -57 -13.5s-32.166 -21.833 -44.499 -38.5
s-21.833 -36.5 -28.5 -59.5s-10 -48.5 -10 -76.5s3.33301 -53.333 10 -76s16.167 -42.167 28.5 -58.5s27.166 -29 44.499 -38s36.333 -13.5 57 -13.5zM484 613c6.66699 -9.33301 12.1699 -19.333 16.5029 -30s6.5 -22.334 6.5 -35.001c0 -30 -9.33301 -52.833 -28 -68.5
s-40.334 -27.167 -65.001 -34.5c24.667 -22 44.5 -50 59.5 -84s22.5 -73.667 22.5 -119c0 -40 -6.16699 -75.833 -18.5 -107.5s-28.833 -58.334 -49.5 -80.001s-44.5 -38.167 -71.5 -49.5s-55.5 -17 -85.5 -17s-58.5 5.66699 -85.5 17s-50.833 27.833 -71.5 49.5
s-37.167 48.334 -49.5 80.001s-18.5 67.5 -18.5 107.5c0 40.667 6.16699 76.834 18.5 108.501s28.833 58.5 49.5 80.5s44.5 38.667 71.5 50s55.5 17 85.5 17c33.333 0 64.666 -7 93.999 -21c23.333 4 41.5 11.167 54.5 21.5s19.5 24.833 19.5 43.5
c0 7.33301 -1.33301 14.5 -4 21.5s-6.33398 13.833 -11.001 20.5z" />
    <glyph glyph-name="Uhorn" unicode="&#x1af;" horiz-adv-x="659" 
d="M645 793c7.33301 -9.33301 13 -19.333 17 -30s6 -22.334 6 -35.001c0 -16.667 -3 -31 -9 -43s-14 -22.333 -24 -31s-21.667 -15.667 -35 -21s-27.333 -9.66602 -42 -12.999v-349c0 -52.667 -6 -97 -18 -133s-28.5 -65.167 -49.5 -87.5s-45.833 -38.333 -74.5 -48
s-59.667 -14.5 -93 -14.5s-64.5 4.83301 -93.5 14.5s-54 25.667 -75 48s-37.5 51.5 -49.5 87.5s-18 80.333 -18 133v385h83v-387c0 -39.333 4 -72.333 12 -99s18.833 -48 32.5 -64s29.834 -27.5 48.501 -34.5s38.667 -10.5 60 -10.5c22 0 42.333 3.5 61 10.5
s35 18.5 49 34.5s25 37.333 33 64s12 59.667 12 99v387h33c28 2.66699 50 8.66699 66 18s24 25.666 24 48.999c0 7.33301 -1.33301 14.333 -4 21s-6.33398 13.334 -11.001 20.001z" />
    <glyph glyph-name="uhorn" unicode="&#x1b0;" horiz-adv-x="544" 
d="M530 623c6.66699 -9.33301 12.1689 -19.3359 16.502 -30.0029s6.5 -22.334 6.5 -35.001c0 -15.333 -2.66699 -28.666 -8 -39.999s-12.166 -21.166 -20.499 -29.499s-18 -15.166 -29 -20.499s-22.167 -9.66602 -33.5 -12.999v-455h-68l-7 76h-3
c-22.667 -26.667 -46.5 -48 -71.5 -64s-54.5 -24 -88.5 -24c-52 0 -89.833 16 -113.5 48s-35.5 79.333 -35.5 142v308h83v-297c0 -46 7.16699 -79.167 21.5 -99.5s37.5 -30.5 69.5 -30.5c25.333 0 47.666 6.5 66.999 19.5s40.666 33.833 63.999 62.5v345h21
c23.333 2.66699 43.166 8.66699 59.499 18s24.5 25.333 24.5 48c0 7.33301 -1.33301 14.5 -4 21.5s-6 13.833 -10 20.5z" />
    <glyph glyph-name="uni01CD" unicode="&#x1cd;" horiz-adv-x="544" 
d="M369 267l-31 100c-12 36.667 -23.333 73.167 -34 109.5l-32 111.5h-4c-10 -38 -20.333 -75.167 -31 -111.5s-22 -72.833 -34 -109.5l-31 -100h197zM390 200h-239l-63 -200h-85l222 656h94l222 -656h-89zM407 818l-96 -112h-80l-96 112h67l67 -68h4l67 68h67z" />
    <glyph glyph-name="uni01CE" unicode="&#x1ce;" horiz-adv-x="512" 
d="M58 126c0 53.333 23.832 94.167 71.499 122.5s123.5 48.166 227.5 59.499c0 15.333 -1.5 30.333 -4.5 45s-8.33301 27.667 -16 39s-17.834 20.5 -30.501 27.5s-29 10.5 -49 10.5c-28.667 0 -55.167 -5.33301 -79.5 -16s-46.166 -22.667 -65.499 -36l-33 57
c22.667 14.667 50.334 28.834 83.001 42.501s68.667 20.5 108 20.5c59.333 0 102.333 -18.167 129 -54.5s40 -84.833 40 -145.5v-298h-68l-7 58h-2c-23.333 -19.333 -48.5 -35.833 -75.5 -49.5s-55.5 -20.5 -85.5 -20.5c-41.333 0 -75.5 12 -102.5 36s-40.5 58 -40.5 102z
M138.999 132.001c0 -28 8.16699 -48.001 24.5 -60.001s36.5 -18 60.5 -18c23.333 0 45.5 5.5 66.5 16.5s43.167 27.167 66.5 48.5v135c-40.667 -5.33301 -75 -11.666 -103 -18.999s-50.5 -16 -67.5 -26s-29.167 -21.5 -36.5 -34.5s-11 -27.167 -11 -42.5zM139.999 714h60
l67 -92h4l67 92h60l-95 -141h-68z" />
    <glyph glyph-name="uni01CF" unicode="&#x1cf;" horiz-adv-x="263" 
d="M90 656h83v-656h-83v656zM267 818l-96 -112h-80l-96 112h67l67 -68h4l67 68h67z" />
    <glyph glyph-name="uni01D0" unicode="&#x1d0;" horiz-adv-x="246" 
d="M82 486h82v-486h-82v486zM-6 714h60l67 -92h4l67 92h60l-95 -141h-68z" />
    <glyph glyph-name="uni01D1" unicode="&#x1d1;" horiz-adv-x="664" 
d="M332 -12c-41.333 0 -79.166 7.99902 -113.499 23.999s-63.833 38.833 -88.5 68.5s-43.834 65.667 -57.501 108s-20.5 89.833 -20.5 142.5s6.83301 99.834 20.5 141.501s32.834 77 57.501 106s54.167 51.167 88.5 66.5s72.166 23 113.499 23
s79.166 -7.83301 113.499 -23.5s64 -38 89 -67s44.333 -64.333 58 -106s20.5 -88.5 20.5 -140.5c0 -52.667 -6.83301 -100.167 -20.5 -142.5s-33 -78.333 -58 -108s-54.667 -52.5 -89 -68.5s-72.166 -24 -113.499 -24zM332 60.999c29.333 0 55.833 6.33301 79.5 19
s44 30.834 61 54.501s30.167 52 39.5 85s14 70.167 14 111.5c0 40.667 -4.66699 77.334 -14 110.001s-22.5 60.334 -39.5 83.001s-37.333 40.167 -61 52.5s-50.167 18.5 -79.5 18.5s-55.833 -6.16699 -79.5 -18.5s-44 -29.833 -61 -52.5s-30.167 -50.334 -39.5 -83.001
s-14 -69.334 -14 -110.001c0 -41.333 4.66699 -78.5 14 -111.5s22.5 -61.333 39.5 -85s37.333 -41.834 61 -54.501s50.167 -19 79.5 -19zM468 817.999l-96 -112h-80l-96 112h67l67 -68h4l67 68h67z" />
    <glyph glyph-name="uni01D2" unicode="&#x1d2;" horiz-adv-x="542" 
d="M46 242c0 40.667 6.16699 76.834 18.5 108.501s28.833 58.5 49.5 80.5s44.5 38.667 71.5 50s55.5 17 85.5 17s58.5 -5.66699 85.5 -17s50.833 -28 71.5 -50s37.167 -48.833 49.5 -80.5s18.5 -67.834 18.5 -108.501c0 -40 -6.16699 -75.833 -18.5 -107.5
s-28.833 -58.334 -49.5 -80.001s-44.5 -38.167 -71.5 -49.5s-55.5 -17 -85.5 -17s-58.5 5.66699 -85.5 17s-50.833 27.833 -71.5 49.5s-37.167 48.334 -49.5 80.001s-18.5 67.5 -18.5 107.5zM131 242c0 -28 3.33301 -53.333 10 -76s16.167 -42.167 28.5 -58.5
s27.166 -29 44.499 -38s36.333 -13.5 57 -13.5s39.667 4.5 57 13.5s32.166 21.667 44.499 38s21.833 35.833 28.5 58.5s10 48 10 76s-3.33301 53.5 -10 76.5s-16.167 42.833 -28.5 59.5s-27.166 29.5 -44.499 38.5s-36.333 13.5 -57 13.5s-39.667 -4.5 -57 -13.5
s-32.166 -21.833 -44.499 -38.5s-21.833 -36.5 -28.5 -59.5s-10 -48.5 -10 -76.5zM142 714h60l67 -92h4l67 92h60l-95 -141h-68z" />
    <glyph glyph-name="uni01D3" unicode="&#x1d3;" horiz-adv-x="645" 
d="M87 656h82.999v-387c0 -39.333 4 -72.333 12 -99s18.833 -48 32.5 -64s29.834 -27.5 48.501 -34.5s38.667 -10.5 60 -10.5c22 0 42.333 3.5 61 10.5s35 18.5 49 34.5s25 37.333 33 64s12 59.667 12 99v387h80v-385c0 -52.667 -6 -97 -18 -133s-28.5 -65.167 -49.5 -87.5
s-45.833 -38.333 -74.5 -48s-59.667 -14.5 -93 -14.5s-64.5 4.83301 -93.5 14.5s-54 25.667 -75 48s-37.5 51.5 -49.5 87.5s-18 80.333 -18 133v385zM457.999 818l-96 -112h-80l-96 112h67l67 -68h4l67 68h67z" />
    <glyph glyph-name="uni01D4" unicode="&#x1d4;" horiz-adv-x="544" 
d="M75 486h83.002v-297c0 -46 7.16699 -79.167 21.5 -99.5s37.5 -30.5 69.5 -30.5c25.333 0 47.666 6.5 66.999 19.5s40.666 33.833 63.999 62.5v345h82v-486h-68l-7 76h-3c-22.667 -26.667 -46.5 -48 -71.5 -64s-54.5 -24 -88.5 -24c-52 0 -89.833 16 -113.5 48
s-35.5 79.333 -35.5 142v308zM143.002 714h60l67 -92h4l67 92h60l-95 -141h-68z" />
    <glyph glyph-name="uni01D5" unicode="&#x1d5;" horiz-adv-x="645" 
d="M87 656h82.999v-387c0 -39.333 4 -72.333 12 -99s18.833 -48 32.5 -64s29.834 -27.5 48.501 -34.5s38.667 -10.5 60 -10.5c22 0 42.333 3.5 61 10.5s35 18.5 49 34.5s25 37.333 33 64s12 59.667 12 99v387h80v-385c0 -52.667 -6 -97 -18 -133s-28.5 -65.167 -49.5 -87.5
s-45.833 -38.333 -74.5 -48s-59.667 -14.5 -93 -14.5s-64.5 4.83301 -93.5 14.5s-54 25.667 -75 48s-37.5 51.5 -49.5 87.5s-18 80.333 -18 133v385zM197.999 907h248v-46h-248v46zM235.999 715c-13.333 0 -24.333 4.33301 -33 13s-13 19.667 -13 33
s4.33301 24.166 13 32.499s19.667 12.5 33 12.5s24.166 -4.16699 32.499 -12.5s12.5 -19.166 12.5 -32.499s-4.16699 -24.333 -12.5 -33s-19.166 -13 -32.499 -13zM407.999 715c-13.333 0 -24.166 4.33301 -32.499 13s-12.5 19.667 -12.5 33s4.16699 24.166 12.5 32.499
s19.166 12.5 32.499 12.5s24.333 -4.16699 33 -12.5s13 -19.166 13 -32.499s-4.33301 -24.333 -13 -33s-19.667 -13 -33 -13z" />
    <glyph glyph-name="uni01D6" unicode="&#x1d6;" horiz-adv-x="544" 
d="M75 486h83.002v-297c0 -46 7.16699 -79.167 21.5 -99.5s37.5 -30.5 69.5 -30.5c25.333 0 47.666 6.5 66.999 19.5s40.666 33.833 63.999 62.5v345h82v-486h-68l-7 76h-3c-22.667 -26.667 -46.5 -48 -71.5 -64s-54.5 -24 -88.5 -24c-52 0 -89.833 16 -113.5 48
s-35.5 79.333 -35.5 142v308zM186.002 588c-13.333 0 -24.333 4.33301 -33 13s-13 19.334 -13 32.001c0 13.333 4.33301 24.333 13 33s19.667 13 33 13s24.166 -4.33301 32.499 -13s12.5 -19.667 12.5 -33c0 -12.667 -4.16699 -23.334 -12.5 -32.001
s-19.166 -13 -32.499 -13zM358.002 588c-13.333 0 -24.166 4.33301 -32.499 13s-12.5 19.334 -12.5 32.001c0 13.333 4.16699 24.333 12.5 33s19.166 13 32.499 13s24.333 -4.33301 33 -13s13 -19.667 13 -33c0 -12.667 -4.33301 -23.334 -13 -32.001s-19.667 -13 -33 -13z
M148.002 797h247v-47h-247v47z" />
    <glyph glyph-name="uni01D7" unicode="&#x1d7;" horiz-adv-x="645" 
d="M87 656h82.999v-387c0 -39.333 4 -72.333 12 -99s18.833 -48 32.5 -64s29.834 -27.5 48.501 -34.5s38.667 -10.5 60 -10.5c22 0 42.333 3.5 61 10.5s35 18.5 49 34.5s25 37.333 33 64s12 59.667 12 99v387h80v-385c0 -52.667 -6 -97 -18 -133s-28.5 -65.167 -49.5 -87.5
s-45.833 -38.333 -74.5 -48s-59.667 -14.5 -93 -14.5s-64.5 4.83301 -93.5 14.5s-54 25.667 -75 48s-37.5 51.5 -49.5 87.5s-18 80.333 -18 133v385zM359.999 950h91l-112 -111h-68zM235.999 715c-13.333 0 -24.333 4.33301 -33 13s-13 19.667 -13 33
s4.33301 24.166 13 32.499s19.667 12.5 33 12.5s24.166 -4.16699 32.499 -12.5s12.5 -19.166 12.5 -32.499s-4.16699 -24.333 -12.5 -33s-19.166 -13 -32.499 -13zM407.999 715c-13.333 0 -24.166 4.33301 -32.499 13s-12.5 19.667 -12.5 33s4.16699 24.166 12.5 32.499
s19.166 12.5 32.499 12.5s24.333 -4.16699 33 -12.5s13 -19.166 13 -32.499s-4.33301 -24.333 -13 -33s-19.667 -13 -33 -13z" />
    <glyph glyph-name="uni01D8" unicode="&#x1d8;" horiz-adv-x="544" 
d="M75 486h83.002v-297c0 -46 7.16699 -79.167 21.5 -99.5s37.5 -30.5 69.5 -30.5c25.333 0 47.666 6.5 66.999 19.5s40.666 33.833 63.999 62.5v345h82v-486h-68l-7 76h-3c-22.667 -26.667 -46.5 -48 -71.5 -64s-54.5 -24 -88.5 -24c-52 0 -89.833 16 -113.5 48
s-35.5 79.333 -35.5 142v308zM301.002 823h79l-103 -103h-58zM186.002 588c-13.333 0 -24.333 4.33301 -33 13s-13 19.334 -13 32.001c0 13.333 4.33301 24.333 13 33s19.667 13 33 13s24.166 -4.33301 32.499 -13s12.5 -19.667 12.5 -33
c0 -12.667 -4.16699 -23.334 -12.5 -32.001s-19.166 -13 -32.499 -13zM358.002 588c-13.333 0 -24.166 4.33301 -32.499 13s-12.5 19.334 -12.5 32.001c0 13.333 4.16699 24.333 12.5 33s19.166 13 32.499 13s24.333 -4.33301 33 -13s13 -19.667 13 -33
c0 -12.667 -4.33301 -23.334 -13 -32.001s-19.667 -13 -33 -13z" />
    <glyph glyph-name="uni01D9" unicode="&#x1d9;" horiz-adv-x="645" 
d="M87 656h82.999v-387c0 -39.333 4 -72.333 12 -99s18.833 -48 32.5 -64s29.834 -27.5 48.501 -34.5s38.667 -10.5 60 -10.5c22 0 42.333 3.5 61 10.5s35 18.5 49 34.5s25 37.333 33 64s12 59.667 12 99v387h80v-385c0 -52.667 -6 -97 -18 -133s-28.5 -65.167 -49.5 -87.5
s-45.833 -38.333 -74.5 -48s-59.667 -14.5 -93 -14.5s-64.5 4.83301 -93.5 14.5s-54 25.667 -75 48s-37.5 51.5 -49.5 87.5s-18 80.333 -18 133v385zM235.999 715c-13.333 0 -24.333 4.33301 -33 13s-13 19.667 -13 33s4.33301 24.166 13 32.499s19.667 12.5 33 12.5
s24.166 -4.16699 32.499 -12.5s12.5 -19.166 12.5 -32.499s-4.16699 -24.333 -12.5 -33s-19.166 -13 -32.499 -13zM407.999 715c-13.333 0 -24.166 4.33301 -32.499 13s-12.5 19.667 -12.5 33s4.16699 24.166 12.5 32.499s19.166 12.5 32.499 12.5s24.333 -4.16699 33 -12.5
s13 -19.166 13 -32.499s-4.33301 -24.333 -13 -33s-19.667 -13 -33 -13zM457.999 950l-96 -111h-80l-96 111h67l67 -68h4l67 68h67z" />
    </font>
</defs>
</svg>
